<svg width="auto" height="auto" viewBox="0 0 163 163" fill="none" xmlns="http://www.w3.org/2000/svg">
<path d="M135.198 51.1735C131.344 41.1777 123.646 34.5032 114.413 29.208C94.3493 17.7008 80.1866 16.2253 66.6139 26.8474C53.0412 37.4695 41.239 57.8282 32.6825 62.2543C24.126 66.68 17.3396 72.2863 17.9297 89.1043C18.5197 105.923 30.617 102.972 32.0924 116.544C33.5676 130.117 43.0095 141.034 58.6474 143.984C74.2853 146.935 79.3015 135.723 93.1689 133.362C107.037 131.002 109.102 138.674 127.1 136.313C145.099 133.952 150.705 103.562 147.164 86.7427C145.349 78.121 142.53 69.4432 139.024 61.3773C137.592 58.0831 136.508 54.5701 135.198 51.1735Z" fill="#00B175"/>
<path opacity="0.7" d="M135.198 51.1735C131.344 41.1777 123.646 34.5032 114.413 29.208C94.3493 17.7008 80.1866 16.2253 66.6139 26.8474C53.0412 37.4695 41.239 57.8282 32.6825 62.2543C24.126 66.68 17.3396 72.2863 17.9297 89.1043C18.5197 105.923 30.617 102.972 32.0924 116.544C33.5676 130.117 43.0095 141.034 58.6474 143.984C74.2853 146.935 79.3015 135.723 93.1689 133.362C107.037 131.002 109.102 138.674 127.1 136.313C145.099 133.952 150.705 103.562 147.164 86.7427C145.349 78.121 142.53 69.4432 139.024 61.3773C137.592 58.0831 136.508 54.5701 135.198 51.1735Z" fill="white"/>
<path d="M62.6074 78.6481C62.6074 78.6481 56.6569 80.4229 53.4113 77.5834C50.1656 74.7436 58.6403 71.5492 61.5254 72.6139C64.4105 73.6786 62.4268 77.2284 58.0995 75.631C53.7718 74.0336 51.0673 71.3715 58.2797 70.4841C65.4922 69.5968 61.3451 72.7912 58.8206 68.7094C56.296 64.6275 63.3285 59.1256 66.9347 60.1904C70.5409 61.2551 64.2299 64.9822 62.0662 62.8525C59.9026 60.7227 50.7064 56.1082 65.6725 55.3985C80.6385 54.6885 76.1305 59.1256 73.0652 59.1256C69.9998 59.1256 62.6071 51.6717 67.2953 50.9616C71.9835 50.2516 78.1142 54.5111 77.9336 56.9959C77.753 59.4807 69.9998 53.2687 73.9669 49.1869C77.9336 45.105 82.8021 49.1869 83.5236 53.8014C84.2447 58.4159 78.8354 59.3033 80.4582 54.3338C82.081 49.3642 84.6052 45.6374 86.9495 50.2519C89.2934 54.8665 89.6543 60.9007 88.392 60.1907C87.1298 59.4807 85.5069 45.9924 91.818 50.9616C98.129 55.9312 97.5882 59.8357 96.3259 61.0781C95.0636 62.3204 88.2118 47.4121 97.5882 53.9788C106.965 60.5454 97.2276 65.5149 99.3913 69.5968C101.555 73.6789 108.046 70.4841 106.423 62.3201C104.801 54.1561 100.834 56.6409 98.4896 61.2554C96.1456 65.8699 103.719 77.9384 106.423 72.9689C107.078 71.7663 107.416 70.3658 107.518 68.9995C107.84 64.7205 105.856 60.7746 104.079 64.2722C101.736 68.8867 105.702 72.6136 110.21 71.1938C114.718 69.7741 112.181 64.8694 109.85 66.9343C107.519 68.9995 106.965 69.9514 108.948 72.7912C110.931 75.631 112.374 83.795 106.424 81.4876C100.473 79.1805 106.965 73.5009 112.735 75.2757C118.505 77.0504 116.521 79.7125 114.898 82.375C113.276 85.0371 108.768 85.3921 110.03 87.8769C111.292 90.3617 114.358 93.9111 115.98 88.7643C117.603 83.6174 111.833 82.02 107.506 84.1497" stroke="#6C6C6C" stroke-miterlimit="10" stroke-linecap="round" stroke-linejoin="round"/>
<path d="M63.5091 81.3103C63.5091 81.3103 55.7555 79.1805 54.4932 74.211C53.231 69.2414 57.9192 70.8388 57.7389 74.0336C57.5586 77.2281 56.4766 82.0203 53.231 81.1329C49.9853 80.2456 51.0673 67.112 55.9358 65.6923C60.8043 64.2725 66.7547 68.8867 63.8696 70.3068C60.9845 71.7265 58.4603 66.0473 61.5257 61.6104C64.5911 57.1736 70.361 59.3033 70.1807 61.4331C70.0004 63.5628 62.4271 55.3988 62.6074 52.914C62.7876 50.4293 65.4925 45.9924 68.0167 49.0095C70.5412 52.0267 76.6717 62.8528 73.0654 59.1256C69.4592 55.3985 68.7378 52.3814 72.1641 50.4293C75.59 48.4769 77.9339 48.1222 77.9339 52.559C77.9339 56.9959 76.6896 60.8919 77.4019 53.7085C78.1142 46.5248 83.5235 42.9753 85.5072 48.6545C87.4906 54.3338 87.8512 60.368 86.2283 55.7538C84.6055 51.1393 95.2439 48.4772 94.3425 50.2519C93.4408 52.0267 87.8512 53.6241 89.6543 55.0438C91.4574 56.4635 99.5715 53.0917 102.817 55.9312C106.063 58.7706 100.293 58.2383 98.4895 61.2554C96.6864 64.2725 108.227 59.658 108.948 62.8528C109.669 66.0473 99.9321 66.9347 99.3909 69.5971C98.8501 72.2592 119.045 77.5838 112.193 79.1808C105.341 80.7782 102.637 79.3582 102.456 79.8909" stroke="#6C6C6C" stroke-miterlimit="10" stroke-linecap="round" stroke-linejoin="round"/>
<path d="M61.7056 76.6957C61.7056 76.6957 54.4929 81.4876 55.2143 82.9077C55.9354 84.3274 63.689 80.6006 62.4267 83.085C61.1644 85.5698 56.1157 87.1669 58.46 87.8769C60.8039 88.5869 64.4104 87.5219 65.3118 85.9245" stroke="#6C6C6C" stroke-miterlimit="10" stroke-linecap="round" stroke-linejoin="round"/>
<path d="M66.7545 89.2969C66.7545 89.2969 62.2465 87.5222 59.7223 84.1501C57.1981 80.7779 60.624 72.9689 63.1482 72.2589" stroke="#6C6C6C" stroke-miterlimit="10" stroke-linecap="round" stroke-linejoin="round"/>
<path d="M107.282 78.8072C107.282 78.8072 114.104 80.8747 117.825 77.5668C121.547 74.2589 111.83 70.5376 108.522 71.778C105.214 73.0184 107.488 77.1531 112.45 75.2926C117.412 73.4321 120.513 70.3309 112.243 69.2972C103.974 68.2634 108.729 71.9847 111.623 67.2297C114.518 62.4746 106.455 56.0658 102.32 57.3062C98.1857 58.5467 105.421 62.888 107.902 60.4071C110.383 57.9263 120.926 52.5512 103.767 51.7241C86.6085 50.8971 91.7769 56.0655 95.2911 56.0655C98.8057 56.0655 107.282 47.3825 101.907 46.5557C96.5316 45.7287 89.5024 50.6904 89.709 53.5846C89.9157 56.4788 98.8054 49.2433 94.2574 44.4882C89.709 39.7332 84.1273 44.4882 83.3005 49.8633C82.4735 55.2384 88.6756 56.2722 86.8151 50.4837C84.9547 44.6949 82.0601 40.3536 79.3726 45.7287C76.685 51.1038 76.2717 58.133 77.7188 57.3059C79.1659 56.4788 81.0267 40.7669 73.7908 46.5554C66.5549 52.3442 67.1753 56.8922 68.6224 58.3393C70.0695 59.7864 77.9255 42.4207 67.1753 50.0697C56.4251 57.7189 67.5886 63.5077 65.1078 68.2624C62.6269 73.0175 55.1843 69.2962 57.0452 59.7861C58.906 50.2764 63.454 53.1706 66.1415 58.5457C68.8291 63.9208 60.1461 77.9789 57.0452 72.1904C56.2947 70.7893 55.9074 69.1583 55.7897 67.5667C55.421 62.5825 57.6955 57.9859 59.7327 62.0603C62.4202 67.4354 57.8719 71.777 52.7035 70.1229C47.5351 68.4691 50.4446 62.7556 53.1169 65.1612C55.7894 67.5668 56.4248 68.6758 54.1506 71.9834C51.8764 75.291 50.2226 84.8011 57.0448 82.1135C63.867 79.426 56.4248 72.8105 49.8089 74.8776C48.1551 75.3943 47.0568 75.9759 46.3687 76.6058" stroke="#6C6C6C" stroke-miterlimit="10" stroke-linecap="round" stroke-linejoin="round"/>
<path d="M106.248 81.9081C106.248 81.9081 115.138 79.4273 116.585 73.6388C118.032 67.85 112.657 69.7109 112.864 73.4321C113.07 77.1534 114.311 82.7352 118.032 81.7018C121.753 80.668 120.513 65.3695 114.931 63.7157C109.349 62.0619 102.526 67.437 105.834 69.0908C109.142 70.7446 112.037 64.1291 108.522 58.9607C105.007 53.7923 98.3918 56.2731 98.5985 58.754C98.8052 61.2349 107.488 51.7248 107.281 48.8306C107.075 45.9363 103.974 40.7679 101.079 44.2822C98.1851 47.7968 91.1559 60.4078 95.2905 56.0661C99.4252 51.7248 100.252 48.2102 96.3243 45.936C92.3963 43.6618 89.7088 43.2485 89.7088 48.4169C89.7088 53.5853 91.1357 58.1235 90.3187 49.7557C89.5021 41.388 83.2999 37.253 81.0258 43.8685C78.7516 50.484 78.3382 57.5132 80.1987 52.1382C82.0592 46.7631 69.8619 43.6618 70.8956 45.7293C71.9294 47.7968 78.3382 49.6573 76.2707 51.3111C74.2032 52.9649 64.9002 49.0369 61.1789 52.3448C57.4576 55.6528 64.0731 55.0324 66.1406 58.547C68.2081 62.0616 54.9767 56.6865 54.15 60.4075C53.3229 64.1288 64.4868 65.1625 65.1072 68.2634C65.7272 71.3647 42.5728 77.5665 50.429 79.4273C58.285 81.2878 61.3862 79.634 61.5929 80.2543" stroke="#6C6C6C" stroke-miterlimit="10" stroke-linecap="round" stroke-linejoin="round"/>
<path d="M108.315 76.5331C108.315 76.5331 116.585 82.1148 115.758 83.7689C114.931 85.4227 106.041 81.0814 107.488 83.9756C108.935 86.8699 114.724 88.7307 112.037 89.5574C109.349 90.3845 105.215 89.144 104.181 87.2832" stroke="#6C6C6C" stroke-miterlimit="10" stroke-linecap="round" stroke-linejoin="round"/>
<path d="M102.527 91.2112C102.527 91.2112 107.696 89.1437 110.59 85.2157C113.484 81.2878 109.556 72.1914 106.662 71.3643" stroke="#6C6C6C" stroke-miterlimit="10" stroke-linecap="round" stroke-linejoin="round"/>
<path d="M84.3679 17.5662C84.3679 17.5662 80.0451 16.672 79.2999 20.3985C78.5546 24.125 79.7471 28.4477 84.3679 28.2988C88.9886 28.1498 91.9699 29.3423 93.9076 27.4045C95.8453 25.4668 97.0379 20.2498 93.9076 18.3117C90.7773 16.374 86.9019 17.4175 86.0073 17.4175C85.1131 17.4172 84.3679 17.5662 84.3679 17.5662Z" stroke="#6C6C6C" stroke-miterlimit="10" stroke-linecap="round" stroke-linejoin="round"/>
<path d="M83.0352 22.1592L86.1061 23.0625" stroke="#6C6C6C" stroke-miterlimit="10" stroke-linecap="round" stroke-linejoin="round"/>
<path d="M84.42 20.1119L86.7686 22.4001" stroke="#6C6C6C" stroke-miterlimit="10" stroke-linecap="round" stroke-linejoin="round"/>
<path d="M89.1171 23.3638L91.7665 23.2431" stroke="#6C6C6C" stroke-miterlimit="10" stroke-linecap="round" stroke-linejoin="round"/>
<path d="M88.6353 22.641L91.4053 20.4131" stroke="#6C6C6C" stroke-miterlimit="10" stroke-linecap="round" stroke-linejoin="round"/>
<path d="M84.5406 25.8925C84.5406 25.8925 85.7449 24.5677 87.1901 24.6883C88.6352 24.8086 89.5386 26.3744 89.5386 26.3744" stroke="#6C6C6C" stroke-miterlimit="10" stroke-linecap="round" stroke-linejoin="round"/>
<path d="M94.4761 20.7744C94.4761 20.7744 94.4158 21.4368 93.8137 21.7377C93.2116 22.0389 93.2115 22.0389 93.2115 22.0389" stroke="#6C6C6C" stroke-miterlimit="10" stroke-linecap="round" stroke-linejoin="round"/>
<path d="M93.3323 22.7616C93.3323 22.7616 93.6935 22.4004 94.115 22.6414C94.5365 22.8823 94.4162 23.3038 94.4162 23.3038" stroke="#6C6C6C" stroke-miterlimit="10" stroke-linecap="round" stroke-linejoin="round"/>
<path d="M95.2592 23.0022C95.2592 23.0022 95.1386 22.5807 95.3195 22.3398" stroke="#6C6C6C" stroke-miterlimit="10" stroke-linecap="round" stroke-linejoin="round"/>
<path d="M107.798 28.9814C107.798 28.9814 106.331 25.7543 103.838 25.4609C101.344 25.1675 99.5842 27.5144 99.5842 29.2745C99.5842 31.0345 103.985 39.9819 103.985 39.9819V37.0483L105.158 37.195L105.745 34.408H107.358L106.478 30.4477L107.798 31.0345V28.9814H107.798Z" stroke="#6C6C6C" stroke-miterlimit="10" stroke-linecap="round" stroke-linejoin="round"/>
<path d="M109.265 29.1281V32.0618L108.238 32.7953L108.678 34.5553L106.772 36.022L106.478 38.0755L105.305 38.5156L104.865 41.7427C104.865 41.7427 106.918 39.9826 109.558 38.809C112.199 37.6354 116.305 35.2885 115.279 32.3552C114.252 29.4215 111.172 28.2482 109.265 29.1281Z" stroke="#6C6C6C" stroke-miterlimit="10" stroke-linecap="round" stroke-linejoin="round"/>
<path d="M103.79 42.1694C103.79 42.1694 103.395 42.7627 103.692 42.8119C103.988 42.8615 104.631 43.0098 104.68 42.8119C104.73 42.6141 104.779 42.367 104.631 42.1694C104.482 41.9715 104.235 41.7244 104.235 41.7244L103.79 42.1694Z" stroke="#6C6C6C" stroke-miterlimit="10" stroke-linecap="round" stroke-linejoin="round"/>
<path d="M103.048 40.5743C103.048 40.5743 103.138 40.1378 102.955 40.1785C102.771 40.2193 102.364 40.2835 102.381 40.41C102.399 40.5361 102.428 40.691 102.56 40.7712C102.693 40.8511 102.894 40.9368 102.894 40.9368L103.048 40.5743Z" stroke="#6C6C6C" stroke-miterlimit="10" stroke-linecap="round" stroke-linejoin="round"/>
<path d="M102.855 42.3337C102.855 42.3337 102.945 41.8972 102.762 41.9379C102.578 41.9787 102.171 42.0429 102.188 42.1694C102.206 42.2956 102.235 42.4504 102.367 42.5306C102.5 42.6105 102.701 42.6962 102.701 42.6962L102.855 42.3337Z" stroke="#6C6C6C" stroke-miterlimit="10" stroke-linecap="round" stroke-linejoin="round"/>
<path d="M61.4152 39.5418C61.4152 39.5418 60.0235 40.5857 54.2827 42.6731C48.5418 44.7608 46.8023 46.5003 46.6282 47.892C46.4541 49.2837 46.2804 50.3275 45.7584 52.0671C45.2365 53.8066 43.3229 54.1548 44.7146 55.7202C46.1063 57.286 48.0199 59.0256 50.1076 59.0256C52.1953 59.0256 55.1525 59.3734 55.5003 57.286C55.8481 55.1983 55.3262 52.2412 56.1963 51.1973C57.0661 50.1535 57.4139 51.0232 59.3275 49.6315C61.2412 48.2398 63.3285 47.3701 63.3285 47.3701L65.0681 45.6305L67.8515 46.5003L66.6338 43.3691C66.6338 43.3691 66.9817 43.3691 67.5036 42.1515C68.0255 40.9339 68.3734 40.0638 67.1558 39.194C65.9382 38.3242 65.9382 37.9764 64.8943 37.8023C63.8508 37.6282 61.4152 39.5418 61.4152 39.5418Z" stroke="#6C6C6C" stroke-miterlimit="10" stroke-linecap="round" stroke-linejoin="round"/>
<path d="M61.4152 42.1511C61.0674 42.6731 59.1538 43.8907 59.1538 43.8907C59.1538 43.8907 57.588 45.4564 56.7182 45.9784C55.8485 46.5003 53.4129 47.0222 52.1953 48.7618C50.9777 50.5013 49.9338 53.4588 49.9338 53.4588" stroke="#6C6C6C" stroke-miterlimit="10" stroke-linecap="round" stroke-linejoin="round"/>
<path d="M52.0212 54.8505C52.0212 54.8505 53.0651 51.893 53.587 51.0232C54.1089 50.1535 56.7182 48.7618 56.7182 48.7618L58.6319 47.0222L62.4591 43.7169" stroke="#6C6C6C" stroke-miterlimit="10" stroke-linecap="round" stroke-linejoin="round"/>
<path d="M61.8165 19.6425C61.8165 19.6425 61.9821 20.121 58.34 20.9191C54.6982 21.7168 50.2285 21.2382 49.5664 22.8337C48.9043 24.4295 50.2285 26.1846 47.0832 27.4609C43.938 28.7375 41.786 29.2161 41.4548 30.4927C41.1236 31.7693 43.2759 33.2054 43.938 34.9606C44.6001 36.7157 43.938 39.4284 46.4211 40.5453C48.9042 41.6621 50.2285 38.9495 52.546 38.1518C54.8635 37.3541 55.5256 37.9924 58.34 36.556C61.154 35.12 62.1473 33.8434 63.3063 32.7265C64.4652 31.6096 65.2929 31.4499 66.1203 31.6096C66.948 31.7693 69.4312 31.131 69.4312 31.131L72.1161 33.2484C72.4007 33.4727 72.8186 33.221 72.7322 32.8768C72.5249 32.052 72.3652 31.016 72.742 30.6525C73.4041 30.0142 74.5631 29.695 74.8939 28.8973C75.2252 28.0996 74.0662 26.8229 73.0716 24.1067C72.2638 21.901 72.389 18.1484 69.4005 17.2796C67.0996 16.6107 63.2799 17.9068 61.8165 19.6425Z" stroke="#6C6C6C" stroke-miterlimit="10" stroke-linecap="round" stroke-linejoin="round"/>
<path d="M48.0834 31.6957C48.0834 31.6957 49.981 31.4019 50.9297 30.0794C51.8783 28.7568 51.404 27.5812 52.6692 26.9935C53.9344 26.4057 56.1483 26.6994 57.2551 26.2586C58.3618 25.8179 60.4176 25.0831 60.4176 25.0831L62.6315 23.3198L63.7382 23.026" stroke="#6C6C6C" stroke-miterlimit="10" stroke-linecap="round" stroke-linejoin="round"/>
<path d="M48.8739 34.1938C48.8739 34.1938 52.0364 32.5775 52.6692 31.4019C53.3016 30.2264 54.8831 28.9038 56.4645 28.7568C58.0459 28.6098 61.0503 27.7282 61.6831 26.9934C62.3155 26.2586 63.2645 25.5238 64.0551 25.5238" stroke="#6C6C6C" stroke-miterlimit="10" stroke-linecap="round" stroke-linejoin="round"/>
<path d="M49.6648 36.5449C49.6648 36.5449 53.6182 34.6346 54.0925 33.7531C54.5669 32.8716 55.674 30.5201 58.0459 30.2264C60.4179 29.9327 62.6318 29.7856 64.0551 28.9038C65.4784 28.022 66.9014 27.4342 66.9014 27.4342" stroke="#6C6C6C" stroke-miterlimit="10" stroke-linecap="round" stroke-linejoin="round"/>
<path d="M31.1455 42.3252L34.6249 44.0648L35.8425 41.6292L39.3219 45.1086L39.8438 42.6731L43.497 48.5877L39.6697 46.5003L38.7999 48.4139L35.8425 45.9784L34.7989 47.3701L29.9279 44.7608L31.1455 42.3252Z" stroke="#6C6C6C" stroke-miterlimit="10" stroke-linecap="round" stroke-linejoin="round"/>
<path d="M78.1156 8.40231L76.7242 11.7076L75.1584 10.8379L74.8106 14.3169L72.897 13.9691L74.6365 18.492L76.0282 16.2306L77.594 16.4046L78.6375 13.2734L80.0292 13.7953L82.1169 9.96809L78.1156 8.40231Z" stroke="#6C6C6C" stroke-miterlimit="10" stroke-linecap="round" stroke-linejoin="round"/>
<path d="M110.611 49.3212C110.611 49.3212 111.144 46.0328 113.41 45.7981C115.676 45.563 118.342 48.4993 117.675 50.1433C117.009 51.7877 115.143 53.1967 115.143 53.1967L114.61 55.4281H112.344C112.344 55.4281 112.211 52.8446 113.01 52.3748C113.81 51.905 115.676 51.3179 115.276 49.5562C114.876 47.7945 113.81 47.2074 113.01 48.1469C112.211 49.0865 112.477 50.3784 111.278 50.4958C110.078 50.6131 110.611 49.3212 110.611 49.3212Z" stroke="#6C6C6C" stroke-miterlimit="10" stroke-linecap="round" stroke-linejoin="round"/>
<path d="M113.81 56.3677C113.81 56.3677 111.944 56.1326 111.944 57.1898C111.944 58.2471 112.477 59.8911 112.877 59.8911C113.277 59.8911 114.476 60.0084 114.743 59.0689C115.01 58.1294 114.876 57.8947 114.876 57.3072C114.876 56.7201 113.81 56.3677 113.81 56.3677Z" stroke="#6C6C6C" stroke-miterlimit="10" stroke-linecap="round" stroke-linejoin="round"/>
<path d="M31.2146 26.6717C31.2146 26.6717 31.7476 23.3833 34.0136 23.1486C36.2796 22.9136 38.9453 25.8498 38.279 27.4939C37.6127 29.1379 35.7463 30.5472 35.7463 30.5472L35.2133 32.7786H32.9473C32.9473 32.7786 32.8139 30.1951 33.6136 29.7253C34.4133 29.2556 36.2793 28.6684 35.8796 26.9067C35.4796 25.145 34.4133 24.5579 33.6136 25.4974C32.8139 26.437 33.0806 27.7289 31.8809 27.8463C30.6816 27.9636 31.2146 26.6717 31.2146 26.6717Z" stroke="#6C6C6C" stroke-miterlimit="10" stroke-linecap="round" stroke-linejoin="round"/>
<path d="M34.4136 33.7182C34.4136 33.7182 32.5476 33.4835 32.5476 34.5403C32.5476 35.5972 33.0809 37.2416 33.4806 37.2416C33.8806 37.2416 35.08 37.3589 35.3466 36.4194C35.6133 35.4799 35.48 35.2452 35.48 34.6577C35.48 34.0706 34.4136 33.7182 34.4136 33.7182Z" stroke="#6C6C6C" stroke-miterlimit="10" stroke-linecap="round" stroke-linejoin="round"/>
<path d="M40.4433 63.1987C40.4433 63.1987 40.9763 59.9103 43.2423 59.6756C45.5084 59.4409 48.1741 62.3768 47.5077 64.0208C46.8414 65.6649 44.9754 67.0742 44.9754 67.0742L44.4423 69.3056H42.1763C42.1763 69.3056 42.043 66.7221 42.8427 66.2523C43.6423 65.7825 45.5084 65.1954 45.1087 63.4337C44.7087 61.672 43.6423 61.0849 42.8427 62.0244C42.043 62.964 42.3097 64.2559 41.11 64.3733C39.91 64.4906 40.4433 63.1987 40.4433 63.1987Z" stroke="#6C6C6C" stroke-miterlimit="10" stroke-linecap="round" stroke-linejoin="round"/>
<path d="M43.642 70.2452C43.642 70.2452 41.776 70.0101 41.776 71.0673C41.776 72.1246 42.309 73.7686 42.709 73.7686C43.109 73.7686 44.3087 73.8859 44.575 72.9464C44.8417 72.0069 44.7084 71.7718 44.7084 71.1847C44.7084 70.5976 43.642 70.2452 43.642 70.2452Z" stroke="#6C6C6C" stroke-miterlimit="10" stroke-linecap="round" stroke-linejoin="round"/>
<path d="M100.735 12.3851C100.735 12.3851 101.073 10.2993 102.51 10.1507C103.948 10.0017 105.638 11.8638 105.216 12.9067C104.793 13.9495 103.609 14.8431 103.609 14.8431L103.271 16.2583H101.834C101.834 16.2583 101.75 14.6195 102.257 14.3215C102.764 14.0235 103.947 13.6512 103.694 12.5337C103.44 11.4165 102.764 11.0439 102.257 11.6398C101.75 12.2358 101.919 13.055 101.158 13.1296C100.397 13.2043 100.735 12.3851 100.735 12.3851Z" stroke="#6C6C6C" stroke-miterlimit="10" stroke-linecap="round" stroke-linejoin="round"/>
<path d="M102.764 16.8542C102.764 16.8542 101.58 16.7052 101.58 17.3755C101.58 18.0457 101.918 19.0886 102.172 19.0886C102.425 19.0886 103.186 19.1633 103.355 18.5673C103.525 17.9714 103.44 17.8224 103.44 17.4501C103.44 17.0775 102.764 16.8542 102.764 16.8542Z" stroke="#6C6C6C" stroke-miterlimit="10" stroke-linecap="round" stroke-linejoin="round"/>
<path d="M76.4347 32.1152C76.4347 32.1152 76.7728 30.0298 78.2101 29.8808C79.6474 29.7319 81.3381 31.594 80.9152 32.6368C80.4924 33.6797 79.309 34.5736 79.309 34.5736L78.971 35.9888H77.5336C77.5336 35.9888 77.4492 34.35 77.9565 34.052C78.4637 33.754 79.6474 33.3817 79.3938 32.2642C79.1402 31.147 78.4637 30.7744 77.9565 31.3703C77.4492 31.9663 77.6184 32.7855 76.8575 32.8601C76.0966 32.9345 76.4347 32.1152 76.4347 32.1152Z" stroke="#6C6C6C" stroke-miterlimit="10" stroke-linecap="round" stroke-linejoin="round"/>
<path d="M78.4637 36.5844C78.4637 36.5844 77.28 36.4354 77.28 37.1057C77.28 37.7759 77.6181 38.8188 77.8717 38.8188C78.1253 38.8188 78.8862 38.8934 79.0554 38.2975C79.2246 37.7016 79.1399 37.5526 79.1399 37.1803C79.1399 36.808 78.4637 36.5844 78.4637 36.5844Z" stroke="#6C6C6C" stroke-miterlimit="10" stroke-linecap="round" stroke-linejoin="round"/>
<path d="M116.191 19.766C116.191 19.766 116.529 17.6803 117.966 17.5316C119.403 17.3826 121.094 19.2448 120.671 20.2876C120.248 21.3305 119.065 22.2244 119.065 22.2244L118.727 23.6396H117.29C117.29 23.6396 117.205 22.0008 117.713 21.7028C118.22 21.4048 119.403 21.0325 119.15 19.915C118.896 18.7978 118.22 18.4252 117.713 19.0211C117.205 19.617 117.375 20.4363 116.614 20.5109C115.853 20.5856 116.191 19.766 116.191 19.766Z" stroke="#6C6C6C" stroke-miterlimit="10" stroke-linecap="round" stroke-linejoin="round"/>
<path d="M118.22 24.2352C118.22 24.2352 117.036 24.0862 117.036 24.7564C117.036 25.4267 117.374 26.4696 117.628 26.4696C117.881 26.4696 118.642 26.5442 118.811 25.9483C118.981 25.3524 118.896 25.2034 118.896 24.8311C118.896 24.4588 118.22 24.2352 118.22 24.2352Z" stroke="#6C6C6C" stroke-miterlimit="10" stroke-linecap="round" stroke-linejoin="round"/>
<path d="M113.574 26.2068C121.772 32.9674 118.882 43.533 109.429 45.1086C98.9912 46.8481 99.8756 36.8324 89.4234 36.4103C78.9709 35.9884 83.6826 39.3677 89.5975 41.1073C95.5121 42.8468 93.5985 46.6741 84.3786 42.6731C75.1587 38.6721 71.8533 36.2365 66.2866 36.5844C60.7198 36.9322 43.1494 43.7169 43.4972 48.5877C43.845 53.4588 41.4095 57.9817 44.1929 60.4172C46.9763 62.8528 55.5005 67.7236 57.5882 60.7651C59.14 55.5928 63.1905 51.7662 65.8109 49.9996" stroke="#6C6C6C" stroke-linecap="round" stroke-linejoin="round"/>
<path d="M67.8516 48.9359L65.6368 51.6505L65.6788 50.1186L64.3696 49.3228L67.8516 48.9359Z" fill="#6C6C6C"/>
<path d="M61.0762 16.4369C62.9497 15.6317 64.5976 14.983 65.7644 14.6648C71.5052 13.099 74.4627 18.8399 76.8979 24.0588C79.3335 29.2777 85.4222 34.3226 90.989 31.3651C96.5557 28.4076 98.9913 17.796 110.647 24.2326C111.014 24.4353 111.367 24.6446 111.707 24.8591" stroke="#6C6C6C" stroke-linecap="round" stroke-linejoin="round"/>
<path d="M113.574 26.2068L110.156 25.4348L111.546 24.7897L111.674 23.2627L113.574 26.2068Z" fill="#6C6C6C"/>
<path d="M62.981 13.7953C62.981 13.7953 45.4106 19.5362 44.0189 22.6674C43.0122 24.9325 51.837 20.5523 58.9692 17.3631" stroke="#6C6C6C" stroke-linecap="round" stroke-linejoin="round"/>
<path d="M61.0762 16.4369L58.6595 18.9738L58.8193 17.4498L57.5746 16.5559L61.0762 16.4369Z" fill="#6C6C6C"/>
<path d="M25.8773 47.0451C28.8537 48.4231 34.799 48.0224 38.974 50.5013C44.5408 53.8066 37.2345 57.9817 38.8 61.4611C40.3657 64.9405 49.9335 66.8541 54.6305 65.6362C59.3275 64.4186 62.285 60.7651 64.7205 55.5462C67.1561 50.3272 71.3312 45.8043 73.2448 45.2824C75.1584 44.7605 95.3381 49.4575 98.6435 50.6754C101.949 51.893 102.471 53.8066 106.298 56.2422C110.125 58.6777 109.603 54.8505 108.733 52.589C107.864 50.3276 103.862 50.5013 100.383 47.1963C96.9039 43.891 93.5986 40.4116 94.6425 43.1953C95.6863 45.9787 97.5999 48.7621 92.7288 47.3704C87.8577 45.9787 80.0944 42.3777 79.2243 42.3777C79.2243 42.3777 73.3563 39.3104 71.3556 40.5107C69.3553 41.711 71.489 41.9777 77.8906 43.9784C79.8108 44.5785 81.1549 44.9984 82.096 45.2925" stroke="#6C6C6C" stroke-linecap="round" stroke-linejoin="round"/>
<path d="M84.2923 45.9784L80.8011 46.2757L81.9311 45.2403L81.5917 43.7463L84.2923 45.9784Z" fill="#6C6C6C"/>
<path d="M58.5996 8.21356C48.0372 11.3673 42.2164 15.8469 43.3229 15.7086C44.7146 15.5345 52.195 13.2731 58.8056 10.8375C65.4162 8.40199 71.3308 9.96777 65.0684 11.1854C58.8059 12.403 45.0627 17.6219 42.279 19.3618C39.4953 21.1016 42.801 23.7109 42.9747 25.6246C43.1488 27.5382 40.3654 28.408 38.9737 30.3216C37.582 32.2352 40.8873 39.7156 39.1478 40.4116C37.4363 41.0962 24.9472 41.1073 23.0538 44.4211" stroke="#6C6C6C" stroke-linecap="round" stroke-linejoin="round"/>
<path d="M24.0266 46.514L21.8857 43.7404L23.3681 44.1293L24.4403 43.0346L24.0266 46.514Z" fill="#6C6C6C"/>
<path d="M90.9021 15.1052C88.7619 14.7596 86.3968 13.9864 84.2041 12.9252C78.8115 10.3159 94.2942 11.5335 95.5118 10.6638C96.7294 9.79401 83.8563 3.53123 67.6776 6.14086C65.2342 6.53499 62.9418 7.03214 60.8149 7.59188" stroke="#6C6C6C" stroke-linecap="round" stroke-linejoin="round"/>
<path d="M58.5995 8.21357L61.3966 6.1037L60.9913 7.58178L62.074 8.66606L58.5995 8.21357Z" fill="#6C6C6C"/>
<path d="M114.126 15.8827C114.126 15.8827 113.604 12.4033 107.516 9.9681C101.427 7.53256 99.1654 10.49 97.5996 13.4475C96.9095 14.7512 95.2726 15.3112 93.1957 15.3064" stroke="#6C6C6C" stroke-linecap="round" stroke-linejoin="round"/>
<path d="M90.9022 15.1052L94.2336 14.0193L93.3697 15.2852L94.0409 16.6625L90.9022 15.1052Z" fill="#6C6C6C"/>
<path d="M126.103 40.8426C125.433 44.1352 124.095 46.0781 122.65 46.8485C120.041 48.2402 118.649 49.4578 119.867 50.8495C121.085 52.2412 122.998 51.0236 123.172 53.4591C123.346 55.8946 122.128 60.5917 116.91 62.679C112.691 64.3664 109.61 64.0078 107.297 61.9716" stroke="#6C6C6C" stroke-linecap="round" stroke-linejoin="round"/>
<path d="M105.776 60.2435L108.942 61.7441L107.444 62.0697L106.985 63.5319L105.776 60.2435Z" fill="#6C6C6C"/>
<path d="M109.777 17.4485C109.777 17.4485 113.604 20.5797 112.56 17.9704C111.517 15.3608 109.429 13.4475 107.516 15.5349C105.602 17.6223 107.863 20.406 110.821 20.9276C113.778 21.4495 118.823 20.9276 121.781 30.1475C124.738 39.3674 118.127 40.0634 117.606 42.499C117.084 44.9345 123.868 43.7166 124.216 37.802C124.564 31.8874 120.563 26.6684 120.737 24.0588C120.911 21.4495 124.738 20.0578 126.13 30.1475C126.588 33.4685 126.65 36.262 126.435 38.5648" stroke="#6C6C6C" stroke-linecap="round" stroke-linejoin="round"/>
<path d="M126.103 40.8426L125.23 37.4492L126.439 38.3914L127.856 37.8088L126.103 40.8426Z" fill="#6C6C6C"/>
<path d="M14.3955 104.136C14.3955 104.136 22.7111 102.385 23.3677 100.853C24.0242 99.3214 22.9299 94.7261 25.9936 93.8508C29.0574 92.9755 34.528 94.9449 35.8411 94.5074C37.1542 94.0699 39.5611 88.8177 40.8742 88.1612C41.4248 87.8857 42.9763 87.8414 44.5919 87.8828" stroke="#6C6C6C" stroke-width="2" stroke-linecap="round" stroke-linejoin="round"/>
<path d="M49.1895 88.1611L42.5759 90.4774L44.2483 87.9088L42.8462 85.1838L49.1895 88.1611Z" fill="#6C6C6C"/>
<path d="M23.3673 121.205C23.3673 121.205 29.7132 120.548 30.5889 118.797C31.4642 117.047 29.7136 114.421 32.1207 111.576C34.5279 108.731 36.9351 112.013 39.3423 110.919C41.7495 109.825 43.5001 107.418 44.1567 106.98C44.8132 106.542 45.6885 107.199 46.5638 106.542C47.1885 106.074 48.5932 104.38 49.5852 103.129" stroke="#6C6C6C" stroke-width="2" stroke-linecap="round" stroke-linejoin="round"/>
<path d="M53.1285 100.197L49.9415 106.438L49.3785 103.424L46.4833 102.42L53.1285 100.197Z" fill="#6C6C6C"/>
<path d="M140.879 109.825C140.879 109.825 134.533 109.606 132.782 108.512C131.032 107.418 130.375 104.573 128.843 103.917C127.311 103.26 121.841 102.385 121.841 102.385C121.841 102.385 120.528 102.166 118.558 100.197C116.862 98.5009 117.763 98.7519 117.068 98.4354" stroke="#6C6C6C" stroke-width="2" stroke-linecap="round" stroke-linejoin="round"/>
<path d="M112.65 97.133L119.653 96.8689L117.298 98.8305L117.834 101.848L112.65 97.133Z" fill="#6C6C6C"/>
<path d="M147.007 92.9752C147.007 92.9752 143.724 93.4127 141.755 93.4127C139.786 93.4127 134.533 92.0996 134.533 92.0996L130.594 90.5677C130.594 90.5677 126.437 91.0052 125.124 91.0052C124.353 91.0052 122.905 91.0805 121.84 91.1428" stroke="#6C6C6C" stroke-width="2" stroke-linecap="round" stroke-linejoin="round"/>
<path d="M117.246 91.4433L123.549 88.3822L122.183 91.1261L123.889 93.6719L117.246 91.4433Z" fill="#6C6C6C"/>
<path d="M127.531 133.459C127.531 133.459 124.467 128.864 122.716 127.769C120.966 126.675 117.465 123.611 117.465 123.611L116.589 118.36L115.118 116.468" stroke="#6C6C6C" stroke-width="2" stroke-linecap="round" stroke-linejoin="round"/>
<path d="M112.869 112.451L118.42 116.728L115.355 116.729L113.837 119.391L112.869 112.451Z" fill="#6C6C6C"/>
<path d="M41.3116 129.52C41.3116 129.52 43.0623 125.8 43.9376 124.268C44.8129 122.736 45.0316 121.861 46.126 119.673C46.6675 118.59 47.5301 117.615 48.2639 116.905" stroke="#6C6C6C" stroke-width="2" stroke-linecap="round" stroke-linejoin="round"/>
<path d="M51.1589 113.326L49.0718 120.016L48.0084 117.141L44.9847 116.64L51.1589 113.326Z" fill="#6C6C6C"/>
<path d="M58.7541 147.961C58.7541 147.961 58.1591 150.611 58.8082 151.152C59.4573 151.692 63.6754 153.477 76.7089 154.126C89.7423 154.775 100.829 151.422 101.64 150.557C102.451 149.691 101.748 145.744 101.748 145.744C101.748 145.744 95.2045 149.583 87.7414 150.448C80.2782 151.314 69.354 150.286 65.1359 149.096C60.9178 147.907 59.0247 147.366 59.0247 147.366L58.7541 147.961Z" fill="#00B175" stroke="#263238" stroke-miterlimit="10" stroke-linecap="round" stroke-linejoin="round"/>
<path d="M76.7434 93.1066C76.7434 93.1066 66.3117 93.309 65.5016 94.0181C64.6915 94.7271 61.2479 134.428 60.3364 138.276C59.425 142.125 56.9943 146.986 57.9058 148.303C58.8173 149.619 73.5026 152.354 82.111 152.354C90.7196 152.354 99.5308 148.91 101.252 146.986C102.974 145.062 102.062 142.53 101.759 141.315C101.455 140.099 99.8343 131.795 99.9357 131.491C100.037 131.187 102.974 121.161 102.974 121.161C102.974 121.161 110.266 104.754 109.253 103.032C108.24 101.31 98.0113 95.74 98.0113 95.74L79.3762 92.8031L76.7434 93.1066Z" fill="#00B175" stroke="#263238" stroke-miterlimit="10" stroke-linecap="round" stroke-linejoin="round"/>
<path d="M60.3364 138.277C60.3364 138.277 63.3584 137.676 65.8761 137.805C68.3942 137.935 70.2022 138.451 70.2022 138.451C70.2022 138.451 67.3614 135.093 65.8119 134.835C64.2624 134.577 60.9695 135.739 60.9695 135.739L60.3364 138.277Z" fill="#263238" stroke="#263238" stroke-miterlimit="10" stroke-linecap="round" stroke-linejoin="round"/>
<path d="M85.2679 98.8624C90.2561 98.8624 94.2997 95.9614 94.2997 92.3829C94.2997 88.8043 90.2561 85.9033 85.2679 85.9033C80.2798 85.9033 76.2361 88.8043 76.2361 92.3829C76.2361 95.9614 80.2798 98.8624 85.2679 98.8624Z" fill="#263238" stroke="#263238" stroke-miterlimit="10" stroke-linecap="round" stroke-linejoin="round"/>
<path d="M82.6609 115.193C83.1554 114.841 83.6307 114.548 84.0712 114.339" stroke="#263238" stroke-miterlimit="10" stroke-linecap="round" stroke-linejoin="round"/>
<path d="M74.7965 123.058C74.7965 123.058 78.3522 118.699 81.5855 116.025" stroke="#263238" stroke-miterlimit="10" stroke-linecap="round" stroke-linejoin="round"/>
<path d="M78.9703 115.545C78.9703 115.545 76.0024 119.348 75.2604 120.739" stroke="#263238" stroke-miterlimit="10" stroke-linecap="round" stroke-linejoin="round"/>
<path d="M79.8218 104.325C80.0076 104.572 80.1885 104.79 80.3613 104.971" stroke="#263238" stroke-miterlimit="10" stroke-linecap="round" stroke-linejoin="round"/>
<path d="M75.724 96.8096C75.724 96.8096 77.6859 101.191 79.413 103.749" stroke="#263238" stroke-miterlimit="10" stroke-linecap="round" stroke-linejoin="round"/>
<path d="M74.7036 96.4386C74.7036 96.4386 76.466 102.096 77.2079 103.209" stroke="#263238" stroke-miterlimit="10" stroke-linecap="round" stroke-linejoin="round"/>
<path d="M71.8792 114.117C71.9685 114.666 72.0611 115.134 72.1556 115.486" stroke="#263238" stroke-miterlimit="10" stroke-linecap="round" stroke-linejoin="round"/>
<path d="M70.7792 102.477C70.7792 102.477 71.2 109.398 71.7722 113.411" stroke="#263238" stroke-miterlimit="10" stroke-linecap="round" stroke-linejoin="round"/>
<path d="M65.0253 147.678C66.61 148.846 69.5854 150.786 72.8441 151.624" stroke="#263238" stroke-miterlimit="10" stroke-linecap="round" stroke-linejoin="round"/>
<path d="M63.8269 146.737C63.8269 146.737 64.0867 146.962 64.5516 147.321" stroke="#263238" stroke-miterlimit="10" stroke-linecap="round" stroke-linejoin="round"/>
<path d="M57.8715 131.299C57.8715 131.299 57.0754 133.538 56.7768 134.185C56.4782 134.832 56.6774 135.628 57.0754 135.976C57.4735 136.325 58.2696 137.17 59.0657 137.32C59.8617 137.469 60.1105 137.27 60.2102 136.922C60.3097 136.573 60.3097 136.573 60.3097 136.573C60.3097 136.573 61.9019 137.27 62.9966 137.171C64.0913 137.071 65.1361 136.375 65.1361 136.375L66.7782 136.574L68.4701 132.046C68.4701 132.046 65.9821 131.25 65.0367 130.951C64.0913 130.652 60.1105 129.607 59.0158 129.856C57.9214 130.105 57.8715 131.299 57.8715 131.299Z" fill="white" stroke="#263238" stroke-miterlimit="10" stroke-linecap="round" stroke-linejoin="round"/>
<path d="M60.3096 136.573L58.4188 136.126" stroke="#263238" stroke-miterlimit="10" stroke-linecap="round" stroke-linejoin="round"/>
<path d="M68.1184 132.147C68.1184 132.147 66.1705 134.651 66.0779 135.857C65.985 137.063 67.0054 137.155 67.8403 137.434C68.6752 137.712 72.431 131.869 72.1559 131.8C71.8804 131.731 69.1749 131.048 68.1184 132.147Z" fill="#263238" stroke="#263238" stroke-miterlimit="10" stroke-linecap="round" stroke-linejoin="round"/>
<path d="M98.1691 107.291C98.1691 107.291 91.0274 120.924 89.7289 124.263C88.4305 127.602 88.1521 128.623 88.1521 128.623L87.6882 131.405C87.6882 131.405 72.1063 131.312 70.9934 131.683C69.8804 132.054 65.8921 135.857 67.84 137.433C69.7878 139.01 76.0017 140.401 82.5869 142.164C89.1721 143.926 93.995 144.483 95.1079 142.535C96.2209 140.587 106.052 121.945 107.907 115.638C109.762 109.331 113.843 104.972 111.525 101.354C109.206 97.7371 100.395 97.459 99.1891 97.6445" fill="#00B175"/>
<path d="M98.1691 107.291C98.1691 107.291 91.0274 120.924 89.7289 124.263C88.4305 127.602 88.1521 128.623 88.1521 128.623L87.6882 131.405C87.6882 131.405 72.1063 131.312 70.9934 131.683C69.8804 132.054 65.8921 135.857 67.84 137.433C69.7878 139.01 76.0017 140.401 82.5869 142.164C89.1721 143.926 93.995 144.483 95.1079 142.535C96.2209 140.587 106.052 121.945 107.907 115.638C109.762 109.331 113.843 104.972 111.525 101.354C109.206 97.7371 100.395 97.459 99.1891 97.6445" stroke="#263238" stroke-miterlimit="10" stroke-linecap="round" stroke-linejoin="round"/>
<path d="M106.755 113.876C104.54 115.682 100.736 118.596 98.0223 119.709" stroke="#263238" stroke-miterlimit="10" stroke-linecap="round" stroke-linejoin="round"/>
<path d="M108.679 112.25C108.679 112.25 108.246 112.621 107.538 113.203" stroke="#263238" stroke-miterlimit="10" stroke-linecap="round" stroke-linejoin="round"/>
<path d="M101.801 118.547C101.801 118.547 98.8944 120 96.8599 120.775" stroke="#263238" stroke-miterlimit="10" stroke-linecap="round" stroke-linejoin="round"/>
<path d="M87.4153 139.338C87.6187 139.652 87.8326 139.922 88.0562 140.129" stroke="#263238" stroke-miterlimit="10" stroke-linecap="round" stroke-linejoin="round"/>
<path d="M85.0964 132.763C85.0964 132.763 85.7302 135.858 86.7783 138.15" stroke="#263238" stroke-miterlimit="10" stroke-linecap="round" stroke-linejoin="round"/>
<path d="M82.825 134.003C82.825 134.003 82.8937 137.513 83.238 138.339" stroke="#263238" stroke-miterlimit="10" stroke-linecap="round" stroke-linejoin="round"/>
<path d="M88.8892 133.219L98.097 137.021L99.1663 135.536L88.8892 133.219Z" fill="#263238" stroke="#263238" stroke-miterlimit="10" stroke-linecap="round" stroke-linejoin="round"/>
<path d="M87.6008 126.846C87.6008 126.846 93.0336 126.167 93.7126 125.488C94.3917 124.809 96.4292 122.957 97.0463 122.834C97.6638 122.71 100.565 123.389 101.245 123.389C101.924 123.389 102.911 122.154 103.652 122.216C104.393 122.278 104.764 123.204 104.517 123.945C104.269 124.686 102.85 125.488 102.541 125.55C102.232 125.612 101.738 125.797 101.738 125.797C101.738 125.797 104.331 126.291 105.134 126.599C105.937 126.908 105.937 127.649 105.628 128.39C105.319 129.131 105.01 129.563 104.64 129.81C104.27 130.057 103.467 131.106 103.467 131.106C103.467 131.106 103.776 132.156 103.282 132.835C102.788 133.514 102.418 133.885 102.171 134.07C101.924 134.255 102.465 134.358 101.926 135.002C101.549 135.452 101.5 135.633 99.7013 135.922C99.1229 136.015 96.7379 135.552 95.0711 134.996C93.4042 134.44 90.5025 133.761 90.5025 133.761L86.5514 132.835L87.6008 126.846Z" fill="white" stroke="#263238" stroke-miterlimit="10" stroke-linecap="round" stroke-linejoin="round"/>
<path d="M103.898 128.253C103.898 128.253 103.958 129.624 103.6 130.102C103.242 130.579 102.705 130.877 102.705 130.877C102.705 130.877 102.884 131.593 102.586 132.248C102.287 132.904 102.287 132.904 102.287 132.904C102.287 132.904 101.801 133.489 101.982 133.879" stroke="#263238" stroke-miterlimit="10" stroke-linecap="round" stroke-linejoin="round"/>
<path d="M83.8329 126.123L87.6813 126.731L86.5674 132.808L84.2378 132.301L83.8329 126.123Z" fill="#263238" stroke="#263238" stroke-miterlimit="10" stroke-linecap="round" stroke-linejoin="round"/>
<path d="M70.3629 93.917C70.3629 93.917 65.2991 91.4864 62.058 92.7017C58.8173 93.917 58.6145 100.804 58.5134 101.715C58.4121 102.627 54.8675 125.617 54.4622 129.364C54.057 133.111 73.2998 134.934 77.6549 134.833C82.0099 134.732 83.9339 133.415 84.2378 132.301C84.5416 131.187 86.0608 126.528 85.0479 125.92C84.035 125.313 65.9065 121.464 65.9065 121.464L64.8936 120.249C64.8936 120.249 67.1218 106.88 67.5267 104.754" fill="#00B175"/>
<path d="M70.3629 93.917C70.3629 93.917 65.2991 91.4864 62.058 92.7017C58.8173 93.917 58.6145 100.804 58.5134 101.715C58.4121 102.627 54.8675 125.617 54.4622 129.364C54.057 133.111 73.2998 134.934 77.6549 134.833C82.0099 134.732 83.9339 133.415 84.2378 132.301C84.5416 131.187 86.0608 126.528 85.0479 125.92C84.035 125.313 65.9065 121.464 65.9065 121.464L64.8936 120.249C64.8936 120.249 67.1218 106.88 67.5267 104.754" stroke="#263238" stroke-miterlimit="10" stroke-linecap="round" stroke-linejoin="round"/>
<path d="M59.8132 122.045C59.5654 122.141 59.3327 122.251 59.1211 122.376" stroke="#263238" stroke-miterlimit="10" stroke-linecap="round" stroke-linejoin="round"/>
<path d="M65.9068 121.464C65.9068 121.464 63.2196 121.225 60.9634 121.711" stroke="#263238" stroke-miterlimit="10" stroke-linecap="round" stroke-linejoin="round"/>
<path d="M58.5134 119.54C58.5134 119.54 61.8556 119.135 63.881 120.047" stroke="#263238" stroke-miterlimit="10" stroke-linecap="round" stroke-linejoin="round"/>
<path d="M78.8307 95.1529C78.8307 95.1529 82.9927 97.4877 86.1396 96.777C89.2865 96.0663 88.982 88.656 88.982 88.656L86.4441 86.9302L78.8307 95.1529Z" fill="white" stroke="#263238" stroke-miterlimit="10" stroke-linecap="round" stroke-linejoin="round"/>
<path d="M86.3795 89.4104L83.0801 90.5635L78.8307 95.1529C78.8307 95.1529 79.9342 95.771 81.4335 96.2743L86.3795 89.4104Z" fill="#263238" stroke="#263238" stroke-miterlimit="10" stroke-linecap="round" stroke-linejoin="round"/>
<path d="M72.9607 63.363C72.9607 63.363 64.9069 70.522 64.8257 76.3792C64.7442 82.2364 68.4864 88.5005 68.4864 88.5005C68.4864 88.5005 64.4189 95.3341 64.3374 96.3917C64.2559 97.4492 66.7778 99.8085 67.022 99.8085C67.2662 99.8085 69.7066 97.7746 69.7066 97.7746L68.3237 100.785L72.4727 102.981C72.4727 102.981 74.4206 95.579 75.4827 93.219C75.4827 93.219 71.0083 84.9214 70.683 81.6672C70.3576 78.4131 70.5203 75.4031 71.4152 73.8576C72.31 72.312 76.6217 70.1154 76.8656 69.9528C77.1097 69.7901 82.6413 74.3456 83.5362 78.1693C84.431 81.9929 87.4589 88.7581 87.4589 88.7581C87.4589 88.7581 86.0581 96.1475 85.4071 98.0999C84.7564 100.052 82.5598 102.249 82.5598 102.249C82.5598 102.249 85.8139 103.469 87.1153 103.713C88.417 103.957 88.7424 103.957 88.7424 103.957C88.7424 103.957 90.6948 100.703 90.8575 100.46C91.0202 100.215 91.0202 103.714 91.0202 103.714C91.0202 103.714 94.437 103.469 98.0164 101.517C101.596 99.5646 103.711 97.1242 103.711 97.1242C103.711 97.1242 105.908 96.1478 106.965 92.894C108.023 89.6399 105.745 86.3046 103.06 83.132C100.376 79.9593 99.3997 78.983 98.5048 74.2648C97.6099 69.5462 95.9828 64.5839 91.59 61.5739C87.1971 58.5639 81.1772 58.4824 78.2485 60.1095C75.3197 61.7359 72.9607 63.363 72.9607 63.363Z" fill="#263238" stroke="#263238" stroke-miterlimit="10" stroke-linecap="round" stroke-linejoin="round"/>
<path d="M76.9017 66.933C76.9017 66.933 70.7097 71.704 69.7959 72.8206C68.8824 73.9371 69.5928 76.3733 69.39 79.5202C69.1869 82.6671 70.811 86.0167 71.7248 87.7426C72.6386 89.4681 75.0748 94.8484 76.902 95.2543C78.7293 95.6601 78.8306 95.1529 78.8306 95.1529C78.8306 95.1529 85.5303 92.006 87.4592 88.7577C87.4592 88.7577 86.2409 81.6519 85.632 78.9112C85.023 76.1706 84.7182 75.4599 84.7182 75.4599C84.7182 75.4599 81.3682 70.9933 79.8458 69.5723C78.3231 68.151 76.9017 66.933 76.9017 66.933Z" fill="white" stroke="#263238" stroke-miterlimit="10" stroke-linecap="round" stroke-linejoin="round"/>
<path d="M72.1862 81.8345C72.1862 81.8345 72.8593 81.0198 73.5958 81.424" stroke="#263238" stroke-miterlimit="10" stroke-linecap="round" stroke-linejoin="round"/>
<path d="M73.9022 82.3344C73.9425 82.5144 73.9269 82.6649 73.8947 82.7557C73.8944 82.7564 73.8942 82.7571 73.8939 82.7579C73.8934 82.7573 73.8928 82.7568 73.8923 82.7563C73.8246 82.6879 73.7464 82.5584 73.7062 82.3784C73.666 82.1984 73.6815 82.0479 73.7137 81.9572C73.714 81.9564 73.7143 81.9557 73.7145 81.9549C73.7151 81.9555 73.7156 81.956 73.7161 81.9565C73.7839 82.0249 73.862 82.1544 73.9022 82.3344ZM73.9454 82.799C73.9487 82.7997 73.9503 82.8005 73.9503 82.8007C73.9503 82.8009 73.9487 82.8005 73.9454 82.799ZM73.8611 82.8207C73.861 82.8205 73.8621 82.8191 73.8647 82.817C73.8625 82.8198 73.8612 82.8209 73.8611 82.8207ZM73.663 81.9138C73.6598 81.9131 73.6582 81.9123 73.6582 81.9121C73.6582 81.9119 73.6598 81.9123 73.663 81.9138ZM73.7473 81.8921C73.7474 81.8923 73.7463 81.8937 73.7437 81.8958C73.7459 81.893 73.7473 81.8919 73.7473 81.8921Z" fill="#263238" stroke="#263238"/>
<path d="M80.5745 82.6895C80.6067 82.5988 80.6223 82.4484 80.582 82.2682C80.5417 82.088 80.4636 81.9585 80.3959 81.8903C80.3953 81.8897 80.3947 81.889 80.394 81.8884C80.3938 81.8892 80.3935 81.8901 80.3932 81.8909C80.361 81.9815 80.3454 82.132 80.3856 82.3122L80.5745 82.6895ZM80.5745 82.6895C80.5742 82.6903 80.5739 82.6911 80.5736 82.6919M80.5745 82.6895L80.5736 82.6919M80.5736 82.6919C80.573 82.6913 80.5724 82.6907 80.5718 82.6901C80.504 82.6218 80.4259 82.4923 80.3856 82.3122L80.5736 82.6919ZM80.3428 81.8477C80.3396 81.8469 80.338 81.8462 80.338 81.846C80.338 81.8457 80.3396 81.8461 80.3428 81.8477ZM80.4267 81.826C80.4268 81.8262 80.4257 81.8276 80.4231 81.8296C80.4253 81.8268 80.4266 81.8258 80.4267 81.826ZM80.5409 82.7543C80.5408 82.7541 80.542 82.7527 80.5446 82.7507C80.5423 82.7535 80.541 82.7545 80.5409 82.7543ZM80.6249 82.7328C80.6281 82.7335 80.6297 82.7343 80.6297 82.7345C80.6297 82.7347 80.6281 82.7344 80.6249 82.7328Z" fill="#263238" stroke="#263238"/>
<path d="M78.7466 81.4925C78.7466 81.4925 79.558 80.9839 80.5569 81.4925" stroke="#263238" stroke-miterlimit="10" stroke-linecap="round" stroke-linejoin="round"/>
<path d="M76.9017 66.933C76.9017 66.933 79.3343 73.5841 84.7179 75.4599C84.7179 75.4599 79.2858 72.0714 78.4245 66.4241" fill="#263238"/>
<path d="M76.9017 66.933C76.9017 66.933 79.3343 73.5841 84.7179 75.4599C84.7179 75.4599 79.2858 72.0714 78.4245 66.4241" stroke="#263238" stroke-miterlimit="10" stroke-linecap="round" stroke-linejoin="round"/>
<path d="M76.9711 78.2749C76.9711 78.2749 76.5353 78.7072 77.3822 79.0618C78.2292 79.4169 81.0474 80.0382 81.6408 79.6167C82.2344 79.1955 78.5304 78.0186 76.9711 78.2749Z" fill="#263238" stroke="#263238" stroke-miterlimit="10" stroke-linecap="round" stroke-linejoin="round"/>
<path d="M73.2205 78.2472C73.2205 78.2472 70.84 79.2767 70.2813 79.8488C69.7225 80.4213 72.8902 79.7305 73.449 79.158C74.0078 78.5859 73.2205 78.2472 73.2205 78.2472Z" fill="#263238" stroke="#263238" stroke-miterlimit="10" stroke-linecap="round" stroke-linejoin="round"/>
<path d="M74.0574 79.9632C74.0574 79.9632 74.8835 81.3223 75.0064 81.9378C75.1293 82.553 75.1909 83.5375 75.1909 83.5375" stroke="#263238" stroke-miterlimit="10" stroke-linecap="round" stroke-linejoin="round"/>
<path d="M75.3757 87.2904C75.3757 87.2904 75.2528 88.1517 75.5602 88.4594C75.868 88.7672 76.606 89.2591 77.9596 88.5827" stroke="#263238" stroke-miterlimit="10" stroke-linecap="round" stroke-linejoin="round"/>
<path d="M76.5447 90.8588C76.5447 90.8588 76.9753 91.105 77.8366 90.8588" stroke="#263238" stroke-miterlimit="10" stroke-linecap="round" stroke-linejoin="round"/>
<path d="M76.7136 78.671C76.7136 78.671 76.0369 77.5019 76.7136 76.5177" stroke="#263238" stroke-miterlimit="10" stroke-linecap="round" stroke-linejoin="round"/>
</svg>
