<svg width="100" height="100" viewBox="0 0 100 100" fill="none" xmlns="http://www.w3.org/2000/svg">
<path d="M3.05724 17.8189C-1.01908 13.7426 -1.01908 7.13357 3.05724 3.05725C7.13355 -1.01906 13.7426 -1.01906 17.8189 3.05725L96.3076 81.5459C100.384 85.6222 100.384 92.2313 96.3076 96.3076C92.2312 100.384 85.6222 100.384 81.5459 96.3076L3.05724 17.8189Z" fill="black"/>
<path d="M17.8189 96.3076C13.7426 100.384 7.13357 100.384 3.05725 96.3076C-1.01906 92.2312 -1.01906 85.6222 3.05725 81.5459L81.5459 3.05724C85.6222 -1.01908 92.2313 -1.01908 96.3076 3.05724C100.384 7.13355 100.384 13.7426 96.3076 17.8189L17.8189 96.3076Z" fill="black"/>
</svg>
