<svg width="auto" height="auto" viewBox="0 0 67 61" fill="none" xmlns="http://www.w3.org/2000/svg">
<path d="M0 15.0903C0 6.75614 6.74939 0 15.0752 0H51.9248C60.2506 0 67 6.75614 67 15.0903V45.9097C67 54.2439 60.2506 61 51.9248 61H15.0752C6.74939 61 0 54.2439 0 45.9097V15.0903Z" fill="#55B45C"/>
<path fill-rule="evenodd" clip-rule="evenodd" d="M17.3045 12.7284C23.5449 6.18659 32.4023 5.10334 40.4833 8.20742C47.7972 11.0169 53.2833 16.5009 55.148 24.3625C57.3216 33.5259 53.7109 41.8487 47.0539 47.9159C41.9027 52.6106 36.3848 54.6876 29.481 54.8264C28.4348 54.8474 27.3785 54.6604 26.4467 54.0876C25.4877 53.4981 24.9131 52.6558 24.5796 51.8267C24.2641 51.0421 24.1461 50.2277 24.0888 49.5527C24.0384 48.959 24.0259 48.3263 24.015 47.7775C24.0135 47.7014 24.012 47.6268 24.0104 47.5542C23.9819 46.2121 23.9153 45.3276 23.6558 44.6805C23.4836 44.2512 23.2226 43.8768 22.344 43.6286C21.6058 43.42 20.8077 42.9896 20.1001 42.5355C19.3464 42.0516 18.5221 41.4281 17.7142 40.7011C16.1664 39.3086 14.4793 37.3572 13.5819 35.074C13.3857 34.6795 13.2016 34.2752 13.0299 33.8615C9.93609 26.4087 11.8795 18.4155 17.3045 12.7284ZM31.4961 44.5486C30.1146 44.7849 29.0044 46.0374 29.0342 47.4386L29.0344 47.4471C29.036 47.527 29.0376 47.6046 29.0392 47.6802C29.0509 48.2517 29.0602 48.7075 29.0958 49.1269C29.1129 49.3282 29.1339 49.4872 29.1557 49.6117C29.1748 49.721 29.2691 49.7995 29.3801 49.7973C35.1287 49.6817 39.4634 48.0311 43.6708 44.1965C49.2888 39.0763 51.9208 32.5309 50.2589 25.5245C48.8306 19.5029 44.6748 15.2052 38.683 12.9036C32.1268 10.3853 25.5267 11.3928 20.9388 16.2022C16.7443 20.5993 15.4186 26.5073 17.6702 31.9313C17.8115 32.2715 17.9628 32.6006 18.1236 32.9186C20.048 36.724 23.3983 39.0724 27.4464 39.657C30.0052 40.0266 32.9767 39.2968 35.4602 37.715C37.9463 36.1314 39.6457 33.8925 40.0796 31.5268C40.7213 28.0279 39.447 25.193 36.4027 23.3386C33.1594 21.363 30.0122 21.6557 28.2728 23.5128C26.6153 25.2826 26.9524 26.9565 27.8512 27.784C28.468 28.3518 29.0042 28.5501 29.4311 28.5793C29.8455 28.6076 30.4392 28.4966 31.2245 27.92C32.3434 27.0985 33.9158 27.3404 34.7365 28.4604C35.5573 29.5805 35.3155 31.1544 34.1966 31.9759C32.6391 33.1196 30.8966 33.7213 29.0887 33.5977C27.2932 33.475 25.7209 32.6567 24.4496 31.4864C21.0246 28.3333 21.5058 23.3836 24.6069 20.0725C28.5367 15.8766 34.5388 16.315 39.0149 19.0416C43.8295 21.9743 46.0419 26.8748 45.0221 32.4351C44.2715 36.5273 41.4846 39.8398 38.1578 41.9587C36.1615 43.2303 33.8637 44.1436 31.4961 44.5486Z" fill="white"/>
<path fill-rule="evenodd" clip-rule="evenodd" d="M15.0752 0C6.74939 0 0 6.75614 0 15.0903V22C0 9.84974 9.84974 0 22 0H15.0752ZM45 0C57.1503 0 67 9.84974 67 22V15.0903C67 6.75614 60.2506 0 51.9248 0H45ZM67 39C67 51.1503 57.1503 61 45 61H51.9248C60.2506 61 67 54.2439 67 45.9097V39ZM22 61C9.84974 61 0 51.1503 0 39V45.9097C0 54.2439 6.74939 61 15.0752 61H22Z" fill="white"/>
</svg>
