<svg width="auto" height="auto" viewBox="0 0 280 280" fill="none" xmlns="http://www.w3.org/2000/svg">
<path d="M244.237 47.4813C224.902 31.2334 192.349 28.7392 168.423 37.4214C150.597 43.89 136.79 58.3089 119.696 66.5157C107.642 72.3022 94.3354 74.825 81.494 78.5484C67.564 82.5877 54.1985 87.8041 45.0453 99.6649C34.9171 112.79 32.2241 130.124 36.8727 145.913C41.7374 162.437 53.8272 176.267 68.4404 185.385C83.0542 194.503 100.058 199.224 117.142 201.426C140.297 204.41 164.274 202.871 186.202 194.856C210.275 186.057 230.585 169.439 242.87 146.765C253.76 126.668 263.107 98.07 259.828 75.0002C258.273 64.0573 252.66 54.5591 244.237 47.4813Z" fill="#00B175"/>
<path opacity="0.7" d="M244.237 47.4813C224.902 31.2334 192.349 28.7392 168.423 37.4214C150.597 43.89 136.79 58.3089 119.696 66.5157C107.642 72.3022 94.3354 74.825 81.494 78.5484C67.564 82.5877 54.1985 87.8041 45.0453 99.6649C34.9171 112.79 32.2241 130.124 36.8727 145.913C41.7374 162.437 53.8272 176.267 68.4404 185.385C83.0542 194.503 100.058 199.224 117.142 201.426C140.297 204.41 164.274 202.871 186.202 194.856C210.275 186.057 230.585 169.439 242.87 146.765C253.76 126.668 263.107 98.07 259.828 75.0002C258.273 64.0573 252.66 54.5591 244.237 47.4813Z" fill="white"/>
<path d="M138.059 244.194C200.646 244.194 251.383 236.964 251.383 228.045C251.383 219.126 200.646 211.896 138.059 211.896C75.4717 211.896 24.7346 219.126 24.7346 228.045C24.7346 236.964 75.4717 244.194 138.059 244.194Z" fill="#00B175"/>
<path opacity="0.5" d="M138.059 244.194C200.646 244.194 251.383 236.964 251.383 228.045C251.383 219.126 200.646 211.896 138.059 211.896C75.4717 211.896 24.7346 219.126 24.7346 228.045C24.7346 236.964 75.4717 244.194 138.059 244.194Z" fill="white"/>
<path d="M254.813 166.902C252.912 167.404 251.199 168.451 249.887 169.916C248.742 171.142 247.745 172.498 246.915 173.957C246.38 174.884 245.893 175.841 245.441 176.809C245.15 177.439 244.93 178.23 244.651 178.955C244.253 179.596 243.861 180.256 243.522 180.874C244.711 176.589 248.55 168.703 248.615 166.462C248.693 164.026 246.351 167.651 245.049 172.613C244.311 175.426 243.752 178.282 243.373 181.165C243.237 181.42 243.118 181.665 243.011 181.89C242.773 182.389 242.363 183.239 241.823 184.345C243.011 180.708 243.445 176.387 242.726 175.852C241.686 175.08 241.311 176.976 241.317 180.476C241.216 182.98 240.803 185.462 240.087 187.863C239.434 189.158 238.702 190.585 237.918 192.088C238.738 189.468 239.214 185.694 239.665 182.865C240.318 178.752 240.04 177.468 238.708 179.448C237.377 181.427 237.609 184.291 237.923 187.798C238.035 190.039 237.628 192.276 236.734 194.335C235.73 196.243 234.666 198.21 233.591 200.147C234.503 198.162 235.082 196.04 235.302 193.866C235.766 189.111 235.154 184.743 234.054 185.979C232.954 187.215 233.602 190.526 233.46 194.555C233.378 196.994 233.102 199.423 232.634 201.818L232.301 202.412C232.743 200.367 232.859 198.265 232.645 196.184C232.865 195.387 232.788 194.882 232.52 194.639C232.485 193.742 232.556 192.392 232.176 191.709C231.213 189.991 230.161 192.303 230.149 193.218C230.149 193.916 230.197 194.613 230.292 195.304C229.918 195.654 229.594 196.054 229.33 196.493C229.187 196.736 229.032 197.01 228.872 197.307C228.872 197.022 228.908 196.713 228.92 196.44C228.968 195.663 228.804 194.888 228.444 194.199C229.025 193.044 229.443 191.814 229.686 190.544C229.789 190.122 229.752 189.677 229.579 189.278C229.343 188.759 228.73 188.528 228.21 188.765C228.151 188.792 228.094 188.825 228.04 188.862C226.209 189.831 225.722 192.161 225.514 194.027C225.322 195.634 225.004 197.224 224.563 198.781C224.189 200.189 223.862 201.461 223.648 202.346C223.488 201.366 223.303 200.415 223.054 199.535C222.846 198.769 222.65 198.026 222.46 197.313C222.285 194.717 222.794 192.121 223.934 189.783C226.097 185.338 227.66 183.245 226.163 183.168C224.665 183.091 222.49 185.409 222.181 189.069C221.952 191.29 221.904 193.526 222.038 195.755C221.563 194.05 221.093 192.445 220.606 190.81C220.23 189.004 220.321 187.133 220.873 185.373C221.895 182.354 224.944 176.993 223.339 177.415C221.735 177.837 219.809 180.946 219.595 184.238C219.536 185.96 219.727 187.681 220.16 189.349C219.809 188.202 219.44 187.019 219.042 185.783C218.876 185.248 218.698 184.684 218.525 184.095C218.525 184 218.525 183.899 218.478 183.798C218.256 182.097 218.563 180.368 219.358 178.848C220.891 176.09 223.744 173.725 222.062 173.089C220.38 172.453 217.83 176.945 217.688 179.192C217.654 180.045 217.721 180.899 217.89 181.736C217.824 181.563 217.753 181.385 217.682 181.213C217.32 179.929 216.969 178.657 216.66 177.528C216.591 175.866 216.926 174.213 217.635 172.708C219.132 169.273 221.04 165.344 219.097 166.343C217.528 167.151 215.835 171.787 216.167 175.697C216.037 175.186 215.918 174.746 215.822 174.39C215.567 172.149 215.085 166.872 215.822 163.728C216.304 161.63 217.088 159.645 217.332 157.488C217.377 157.266 217.365 157.037 217.296 156.822C216.773 155.52 215.079 158.052 214.8 158.468C213.754 160.134 213.219 162.07 213.261 164.037C213.263 165.715 213.462 167.386 213.855 169.017C214.092 170.057 214.384 171.091 214.722 172.108C214.936 172.767 215.317 173.498 215.608 174.212C215.751 174.955 215.917 175.709 216.089 176.387C214.033 172.411 211.43 164.019 209.974 162.308C208.364 160.477 209.142 164.739 211.555 169.249C212.941 171.817 214.487 174.294 216.185 176.667C216.262 176.946 216.339 177.208 216.416 177.445C216.583 177.974 216.862 178.877 217.219 180.054C215.585 176.601 212.976 173.13 212.084 173.225C210.801 173.368 211.823 175.008 214.212 177.57C215.836 179.468 217.22 181.56 218.33 183.798C218.734 185.195 219.174 186.734 219.626 188.368C218.437 185.89 216.209 182.806 214.61 180.434C212.28 176.981 211.198 176.233 211.573 178.586C211.948 180.94 214.075 182.877 216.708 185.224C218.313 186.796 219.537 188.716 220.286 190.835C220.85 192.909 221.414 195.078 221.949 197.229C221.263 195.154 220.239 193.206 218.919 191.465C216.007 187.661 212.577 184.892 212.619 186.544C212.661 188.196 215.388 190.175 218.045 193.2C219.653 195.037 221.108 197.003 222.395 199.078C222.449 199.292 222.502 199.512 222.55 199.726C221.361 197.544 219.465 195.768 217.623 194.127C216.975 193.533 215.994 192.285 215.156 192.018C213.291 191.424 214.092 193.831 214.711 194.502C216.708 196.689 219.524 198.038 221.373 200.338C222.07 201.205 222.694 202.127 223.239 203.096C223.369 203.851 223.465 204.558 223.542 205.218C222.832 204.546 222.088 203.912 221.313 203.316C219.055 201.794 217.747 199.708 216.006 197.7C215.483 197.105 214.598 196.362 213.759 196.326C212.571 196.273 212.22 197.515 212.571 198.496C213.944 202.537 219.108 202.716 222.134 204.813C222.687 205.167 223.199 205.582 223.661 206.049C223.786 207.297 223.82 208.552 223.762 209.805H216.815V212.699H218.877L220.553 223.004H234.436L236.112 212.699H238.174V209.805H227.732C228.208 209.211 228.719 208.617 229.23 207.939L231.429 208.005C231.429 208.005 239.06 208.337 241.859 206.816C244.658 205.295 242.162 203.845 239.482 204.623C236.802 205.402 231.536 207.779 230.371 207.744L229.384 207.714C229.931 207.007 230.478 206.27 230.995 205.521C233.097 204.995 235.164 204.336 237.182 203.548C239.375 202.681 241.936 201.979 243.802 200.511C244.164 200.272 244.439 199.922 244.587 199.513C244.766 198.971 244.472 198.386 243.93 198.206C243.871 198.187 243.81 198.173 243.748 198.164C241.746 197.623 239.796 198.99 238.4 200.214C237.161 201.257 235.843 202.203 234.46 203.043C233.224 203.81 232.118 204.523 231.363 205.01C231.916 204.19 232.427 203.364 232.861 202.562C233.235 201.861 233.598 201.189 233.942 200.53C235.586 198.513 237.73 196.962 240.159 196.031C244.77 194.248 247.332 193.808 246.304 192.721C245.276 191.633 242.084 191.847 239.362 194.313C237.676 195.778 236.113 197.38 234.691 199.104C235.505 197.534 236.266 196.037 237.021 194.51C237.98 192.933 239.326 191.629 240.931 190.718C243.736 189.214 249.62 187.372 248.158 186.588C246.696 185.803 243.172 186.754 240.771 189.018C239.551 190.237 238.514 191.626 237.693 193.143C238.221 192.061 238.757 190.944 239.321 189.761C239.565 189.25 239.826 188.721 240.094 188.174C240.153 188.091 240.213 188.008 240.266 187.919C241.265 186.524 242.67 185.471 244.29 184.905C247.261 183.936 250.994 184.15 250.191 182.528C249.389 180.906 244.468 182.463 242.828 184.002C242.224 184.605 241.692 185.274 241.241 185.999C241.312 185.833 241.384 185.654 241.448 185.476C242.043 184.288 242.637 183.099 243.232 182.088C244.314 180.826 245.687 179.846 247.231 179.23C250.672 177.744 254.749 176.169 252.645 175.575C250.946 175.093 246.542 177.322 244.123 180.412L244.759 179.224C246.102 177.406 249.353 173.221 252.027 171.421C253.81 170.233 255.741 169.299 257.375 167.891C257.557 167.757 257.704 167.582 257.803 167.38C258.29 166.088 255.324 166.784 254.813 166.902ZM223.743 202.929C224.189 202.246 224.979 200.986 225.853 199.364C226.122 200.103 226.429 200.827 226.774 201.533C225.966 203.192 225.229 204.636 224.801 205.004L224.064 205.658C223.981 204.748 223.874 203.833 223.743 202.929ZM228.795 207.737C228.165 208.551 227.606 209.229 227.048 209.8H224.338C224.296 208.694 224.219 207.339 224.088 205.895L225.74 204.439C225.74 204.439 226.465 203.844 227.44 202.887C227.908 203.811 228.273 204.784 228.527 205.788C228.692 206.425 228.782 207.079 228.795 207.737ZM231.041 202.02C230.958 203.13 230.785 204.231 230.524 205.312C230.102 205.954 229.692 206.536 229.3 207.095C229.264 206.097 228.997 204.296 228.967 204.172C228.784 203.364 228.682 202.539 228.664 201.711C229.457 200.899 230.207 200.046 230.911 199.156C231.057 200.103 231.1 201.063 231.041 202.02Z" fill="#263238"/>
<path d="M235.218 57.5428V166.326C235.218 169.106 233.126 171.361 230.532 171.361H33.4969C30.9148 171.361 28.8114 169.106 28.8114 166.326V57.5428C28.8114 54.763 30.9148 52.5084 33.4969 52.5084H230.532C233.126 52.509 235.218 54.7635 235.218 57.5428Z" fill="white" stroke="#263238" stroke-width="1.069" stroke-miterlimit="10" stroke-linecap="round" stroke-linejoin="round"/>
<path d="M85.6766 156.04H39.7549C37.81 156.04 36.2336 154.464 36.2336 152.519V75.0865C36.2336 73.1416 37.81 71.5652 39.7549 71.5652H85.6766C87.6215 71.5652 89.1979 73.1416 89.1979 75.0865V152.519C89.1979 154.464 87.6215 156.04 85.6766 156.04Z" fill="#00B175"/>
<path d="M56.1036 90.3202C56.1036 93.0838 54.7248 95.5203 52.6092 96.9942C51.296 97.9037 49.6972 98.4385 47.9796 98.4385C46.1434 98.4385 44.4438 97.8264 43.0886 96.7982C41.1275 95.3126 39.8613 92.965 39.8613 90.3202C39.8613 85.8334 43.4985 82.1963 47.9796 82.1963C52.4669 82.1963 56.1036 85.8329 56.1036 90.3202Z" fill="white" stroke="#263238" stroke-width="1.069" stroke-miterlimit="10" stroke-linecap="round" stroke-linejoin="round"/>
<path d="M81.2459 85.6531H64.2858V87.2586H81.2459V85.6531Z" fill="#263238"/>
<path d="M83.3202 89.516H64.2858V91.1215H83.3202V89.516Z" fill="#263238"/>
<path d="M81.2459 93.3783H64.2858V94.9838H81.2459V93.3783Z" fill="#263238"/>
<path d="M84.4122 97.2406H64.2858V98.8462H84.4122V97.2406Z" fill="#263238"/>
<path d="M80.3225 121.199H45.038C43.3827 121.199 42.0409 119.857 42.0409 118.202V110.95C42.0409 109.295 43.3827 107.953 45.038 107.953H80.3225C81.9778 107.953 83.3196 109.295 83.3196 110.95V118.202C83.3202 119.857 81.9778 121.199 80.3225 121.199Z" fill="white" stroke="#263238" stroke-width="1.069" stroke-miterlimit="10" stroke-linecap="round" stroke-linejoin="round"/>
<path d="M80.3225 138.858H45.038C43.3827 138.858 42.0409 137.516 42.0409 135.86V128.608C42.0409 126.953 43.3827 125.611 45.038 125.611H80.3225C81.9778 125.611 83.3196 126.953 83.3196 128.608V135.86C83.3202 137.516 81.9778 138.858 80.3225 138.858Z" fill="white" stroke="#263238" stroke-width="1.069" stroke-miterlimit="10" stroke-linecap="round" stroke-linejoin="round"/>
<path d="M172.383 71.3222V161.173" stroke="#263238" stroke-width="1.069" stroke-miterlimit="10" stroke-linecap="round" stroke-linejoin="round"/>
<path d="M235.218 57.2051V64.4616H28.8114V57.2051C28.8114 54.6118 30.9148 52.5084 33.4969 52.5084H230.532C233.126 52.509 235.218 54.6123 235.218 57.2051Z" fill="#263238"/>
<path d="M44.8022 58.4853C44.8022 59.5213 43.9622 60.3607 42.9268 60.3607C41.8908 60.3607 41.0508 59.5207 41.0508 58.4853C41.0508 57.4493 41.8908 56.6098 42.9268 56.6098C43.9628 56.6098 44.8022 57.4493 44.8022 58.4853Z" fill="white"/>
<path d="M53.4637 58.4853C53.4637 59.5213 52.6237 60.3607 51.5877 60.3607C50.5517 60.3607 49.7123 59.5207 49.7123 58.4853C49.7123 57.4493 50.5523 56.6098 51.5877 56.6098C52.6237 56.6098 53.4637 57.4493 53.4637 58.4853Z" fill="white"/>
<path d="M62.0211 58.4853C62.0211 59.5213 61.1811 60.3607 60.1451 60.3607C59.1091 60.3607 58.2697 59.5207 58.2697 58.4853C58.2697 57.4493 59.1097 56.6098 60.1451 56.6098C61.1805 56.6098 62.0211 57.4493 62.0211 58.4853Z" fill="white"/>
<path d="M225.426 79.6634H180.368V81.1558H225.426V79.6634Z" fill="#00B175"/>
<path d="M202.127 84.3282H180.368V85.8206H202.127V84.3282Z" fill="#00B175"/>
<path d="M215.198 88.9935H180.368V90.4859H215.198V88.9935Z" fill="#00B175"/>
<path d="M211.479 93.5262H180.368V95.1507H211.479V93.5262Z" fill="#00B175"/>
<path d="M210.506 98.3231H180.368V99.8155H210.506V98.3231Z" fill="#00B175"/>
<path d="M199.95 102.988H180.368V104.48H199.95V102.988Z" fill="#00B175"/>
<path opacity="0.2" d="M225.426 79.6634H180.368V81.1558H225.426V79.6634Z" fill="black"/>
<path opacity="0.2" d="M202.127 84.3282H180.368V85.8206H202.127V84.3282Z" fill="black"/>
<path opacity="0.2" d="M215.198 88.9935H180.368V90.4859H215.198V88.9935Z" fill="black"/>
<path opacity="0.2" d="M211.479 93.5262H180.368V95.1507H211.479V93.5262Z" fill="black"/>
<path opacity="0.2" d="M210.506 98.3231H180.368V99.8155H210.506V98.3231Z" fill="black"/>
<path opacity="0.2" d="M199.95 102.988H180.368V104.48H199.95V102.988Z" fill="black"/>
<path d="M47.9813 94.6422C50.5576 94.6422 52.6461 92.5537 52.6461 89.9774C52.6461 87.4011 50.5576 85.3126 47.9813 85.3126C45.405 85.3126 43.3165 87.4011 43.3165 89.9774C43.3165 92.5537 45.405 94.6422 47.9813 94.6422Z" fill="#263238"/>
<path d="M52.6092 96.9942C51.296 97.9037 49.6972 98.4385 47.9797 98.4385C46.1434 98.4385 44.4438 97.8264 43.0886 96.7982C43.8553 95.2588 45.3527 92.8581 47.1951 92.8519C49.5723 92.8402 51.1649 93.8739 52.6092 96.9942Z" fill="#263238"/>
<path d="M222.257 61.0786H177.307C176.024 61.0786 174.984 60.0387 174.984 58.7558V58.2142C174.984 56.9313 176.024 55.8914 177.307 55.8914H222.257C223.54 55.8914 224.58 56.9313 224.58 58.2142V58.7558C224.58 60.0387 223.54 61.0786 222.257 61.0786Z" fill="white"/>
<path d="M177.923 56.7795V60.069" stroke="#263238" stroke-width="1.069" stroke-miterlimit="10" stroke-linecap="round" stroke-linejoin="round"/>
<path d="M80.3431 151.071H69.0977C67.8758 151.071 66.8857 150.081 66.8857 148.859V146.018C66.8857 144.796 67.8764 143.806 69.0977 143.806H80.3431C81.565 143.806 82.5551 144.796 82.5551 146.018V148.859C82.5551 150.081 81.5645 151.071 80.3431 151.071Z" fill="#00B175"/>
<path d="M225.977 143.913H184.152V121.995" stroke="#263238" stroke-width="1.069" stroke-miterlimit="10" stroke-linecap="round" stroke-linejoin="round"/>
<path d="M185.84 134.874L187.641 138.892L197.074 126.402L199.047 132.428L202.775 130.332L211.396 138.892L217.828 132.954L220.315 135.573L224.603 127.138" stroke="#263238" stroke-width="1.069" stroke-miterlimit="10" stroke-linecap="round" stroke-linejoin="round"/>
<path d="M183.172 142.538H180.141V143.913H183.172V142.538Z" fill="#00B175"/>
<path d="M183.172 137.517H180.141V138.892H183.172V137.517Z" fill="#00B175"/>
<path d="M183.172 132.496H180.141V133.871H183.172V132.496Z" fill="#00B175"/>
<path d="M183.172 127.475H180.141V128.85H183.172V127.475Z" fill="#00B175"/>
<path d="M183.172 122.454H180.141V123.829H183.172V122.454Z" fill="#00B175"/>
<path d="M204.575 145.025V153.674H205.925V145.025H204.575Z" fill="#00B175"/>
<path d="M209.38 145.025V153.674H210.73V145.025H209.38Z" fill="#00B175"/>
<path d="M214.185 145.025V153.674H215.534V145.025H214.185Z" fill="#00B175"/>
<path d="M218.989 145.025V153.674H220.338V145.025H218.989Z" fill="#00B175"/>
<path d="M223.793 145.025V153.674H225.143V145.025H223.793Z" fill="#00B175"/>
<path d="M199.645 145.025V153.674H200.995V145.025H199.645Z" fill="#00B175"/>
<path d="M194.716 145.025V153.674H196.066V145.025H194.716Z" fill="#00B175"/>
<path d="M189.786 145.025V153.674H191.136V145.025H189.786Z" fill="#00B175"/>
<path d="M184.856 145.025V153.674H186.206V145.025H184.856Z" fill="#00B175"/>
<path d="M146.521 75.259C141.863 75.3536 138.164 79.2058 138.258 83.8634C138.35 88.3887 141.996 92.0349 146.521 92.1267C151.179 92.2208 155.032 88.5214 155.126 83.8634C155.22 79.2053 151.52 75.353 146.862 75.259C146.749 75.2567 146.635 75.2567 146.521 75.259Z" fill="#263238"/>
<path d="M151.871 80.9889C151.747 80.5028 151.37 80.122 150.886 79.9938C150.012 79.7586 146.518 79.7586 146.518 79.7586C146.518 79.7586 143.024 79.7586 142.153 79.9938C141.669 80.1254 141.293 80.5045 141.165 80.9889C140.856 82.7798 140.856 84.6098 141.165 86.4007C141.294 86.8846 141.67 87.2631 142.153 87.3958C143.024 87.631 146.518 87.631 146.518 87.631C146.518 87.631 150.012 87.631 150.886 87.3958C151.368 87.2637 151.743 86.884 151.871 86.4007C152.184 84.6098 152.184 82.7792 151.871 80.9889Z" fill="white"/>
<path d="M145.378 85.3569V82.0322L148.298 83.6942L145.378 85.3569Z" fill="#263238"/>
<path d="M113.3 75.2791C108.653 75.2791 104.886 79.0462 104.886 83.6931C104.886 88.34 108.653 92.1071 113.3 92.1071C117.947 92.1071 121.714 88.34 121.714 83.6931C121.714 79.0462 117.947 75.2791 113.3 75.2791Z" fill="#263238"/>
<path d="M111.883 89.0882H114.06V83.6377H115.577L115.74 81.8132H114.06V80.7615C114.06 80.3303 114.144 80.1623 114.563 80.1623H115.741V78.2667H114.234C112.615 78.2667 111.884 78.9818 111.884 80.3466V81.8009H110.75V83.6416H111.884V89.0882H111.883Z" fill="white"/>
<path d="M113.248 109.468C108.59 109.466 104.811 113.241 104.809 117.9C104.807 122.558 108.582 126.337 113.241 126.339C117.9 126.34 121.678 122.566 121.68 117.907C121.68 117.905 121.68 117.902 121.68 117.9C121.674 113.245 117.903 109.473 113.248 109.468Z" fill="#263238"/>
<path d="M113.248 113.874C114.561 113.874 114.717 113.874 115.235 113.901C115.546 113.906 115.855 113.963 116.147 114.07C116.36 114.15 116.552 114.275 116.711 114.437C116.874 114.595 117 114.789 117.077 115.003C117.187 115.295 117.244 115.604 117.246 115.916C117.27 116.434 117.277 116.607 117.277 117.899C117.277 119.192 117.277 119.368 117.246 119.886C117.244 120.198 117.187 120.506 117.077 120.798C117 121.012 116.875 121.205 116.711 121.362C116.553 121.525 116.36 121.651 116.147 121.731C115.855 121.839 115.546 121.896 115.235 121.9C114.717 121.924 114.561 121.928 113.248 121.928C111.935 121.928 111.779 121.928 111.261 121.9C110.95 121.896 110.641 121.839 110.349 121.731C110.136 121.651 109.944 121.524 109.786 121.362C109.622 121.205 109.496 121.012 109.419 120.798C109.309 120.506 109.252 120.197 109.25 119.886C109.226 119.367 109.219 119.212 109.219 117.899C109.219 116.586 109.219 116.434 109.25 115.916C109.253 115.604 109.31 115.295 109.419 115.003C109.497 114.789 109.622 114.595 109.786 114.437C109.945 114.275 110.137 114.15 110.349 114.07C110.641 113.963 110.95 113.906 111.261 113.901C111.779 113.877 111.935 113.874 113.248 113.874ZM113.248 112.989C111.914 112.989 111.745 112.989 111.223 113.016C110.822 113.022 110.425 113.094 110.048 113.231C109.388 113.486 108.866 114.008 108.611 114.668C108.469 115.05 108.391 115.454 108.383 115.861C108.359 116.386 108.352 116.552 108.352 117.886C108.352 119.22 108.352 119.389 108.383 119.914C108.392 120.322 108.469 120.724 108.611 121.106C108.862 121.773 109.384 122.302 110.048 122.561C110.43 122.704 110.833 122.781 111.241 122.789C111.763 122.813 111.932 122.816 113.266 122.816C114.599 122.816 114.769 122.816 115.291 122.789C115.698 122.781 116.101 122.704 116.483 122.561C117.144 122.306 117.665 121.784 117.92 121.124C118.063 120.742 118.139 120.338 118.148 119.931C118.172 119.406 118.179 119.24 118.179 117.903C118.179 116.566 118.179 116.403 118.148 115.878C118.139 115.47 118.063 115.068 117.92 114.686C117.665 114.025 117.144 113.503 116.483 113.248C116.101 113.105 115.698 113.028 115.291 113.02C114.769 112.996 114.599 112.993 113.266 112.993" fill="white"/>
<path d="M113.248 115.377C111.853 115.375 110.72 116.504 110.719 117.9C110.717 119.295 111.846 120.427 113.241 120.429C114.637 120.431 115.769 119.302 115.771 117.906C115.771 117.904 115.771 117.902 115.771 117.9C115.771 116.506 114.641 115.377 113.248 115.377ZM113.248 119.524C112.344 119.524 111.61 118.79 111.61 117.886C111.61 116.981 112.343 116.248 113.248 116.248C114.153 116.248 114.886 116.981 114.886 117.886C114.886 118.791 114.153 119.524 113.248 119.524Z" fill="white"/>
<path d="M146.838 125.717C142.399 125.717 138.8 122.118 138.8 117.68C138.8 113.241 142.399 109.642 146.838 109.642C151.276 109.642 154.875 113.241 154.875 117.68C154.875 122.118 151.276 125.717 146.838 125.717Z" fill="#263238" stroke="#263238" stroke-width="1.069" stroke-linecap="round" stroke-linejoin="round"/>
<path d="M142.559 120.375C143.362 120.891 144.296 121.164 145.25 121.164C148.508 121.164 150.352 118.41 150.246 115.94C150.586 115.69 150.88 115.382 151.115 115.032C150.795 115.174 150.455 115.266 150.107 115.308C150.473 115.088 150.747 114.743 150.878 114.337C150.534 114.544 150.157 114.691 149.764 114.771C149.099 114.064 147.987 114.028 147.279 114.692C146.822 115.121 146.628 115.762 146.77 116.372C145.358 116.303 144.042 115.636 143.151 114.539C142.685 115.341 142.923 116.367 143.694 116.883C143.416 116.874 143.143 116.8 142.899 116.665C142.892 117.506 143.483 118.235 144.307 118.403C144.049 118.474 143.778 118.483 143.516 118.432C143.745 119.148 144.404 119.639 145.156 119.652C144.419 120.226 143.486 120.486 142.559 120.375Z" fill="white"/>
<path d="M146.566 145.417C141.907 145.417 138.131 149.194 138.131 153.853C138.131 158.511 141.907 162.288 146.566 162.288C151.225 162.288 155.002 158.511 155.002 153.853C154.997 149.196 151.223 145.422 146.566 145.417Z" fill="#263238"/>
<path d="M144.106 151.642H142.25V157.634H144.106V151.642Z" fill="white"/>
<path d="M143.169 150.858C143.781 150.863 144.281 150.371 144.285 149.76C144.29 149.148 143.798 148.648 143.186 148.644C142.575 148.639 142.075 149.131 142.07 149.742C142.07 149.745 142.07 149.748 142.07 149.751C142.068 150.36 142.56 150.856 143.169 150.858Z" fill="white"/>
<path d="M147.074 154.492C147.074 153.647 147.459 153.148 148.203 153.148C148.948 153.148 149.21 153.629 149.21 154.492V157.635H151.058V153.853C151.058 152.251 150.147 151.472 148.869 151.472C148.135 151.462 147.449 151.84 147.065 152.466V151.664H145.283V157.657H147.065L147.074 154.492Z" fill="white"/>
<path d="M113.245 162.254C108.586 162.254 104.81 158.478 104.81 153.819C104.81 149.16 108.586 145.383 113.245 145.383C117.903 145.383 121.681 149.16 121.681 153.819C121.68 158.478 117.903 162.254 113.245 162.254Z" fill="#263238"/>
<path d="M112.005 157.016C112.248 156.97 112.478 156.869 112.675 156.72C112.845 156.593 112.988 156.434 113.097 156.252C113.275 155.971 113.368 155.644 113.363 155.312C113.371 155.006 113.29 154.704 113.131 154.442C112.969 154.197 112.728 154.012 112.448 153.919C112.619 153.84 112.773 153.726 112.899 153.586C113.091 153.337 113.188 153.027 113.174 152.713C113.182 152.391 113.085 152.074 112.899 151.81C112.521 151.365 111.95 151.131 111.368 151.182H108.508V157.087H111.162C111.444 157.093 111.727 157.069 112.005 157.016ZM109.685 152.207H110.971C111.208 152.2 111.444 152.232 111.671 152.3C111.885 152.392 112.014 152.613 111.988 152.845C112.009 153.05 111.917 153.25 111.747 153.368C111.557 153.472 111.34 153.521 111.123 153.511H109.685V152.207ZM109.685 156.071V154.493H111.14C111.341 154.485 111.543 154.518 111.731 154.59C111.98 154.701 112.132 154.956 112.11 155.227C112.142 155.53 111.987 155.822 111.718 155.965C111.528 156.043 111.324 156.079 111.119 156.07H109.685V156.071Z" fill="white"/>
<path d="M114.337 156.708C114.771 157.062 115.317 157.252 115.877 157.244C116.493 157.283 117.096 157.051 117.526 156.607C117.749 156.397 117.897 156.121 117.948 155.818H116.78C116.723 155.933 116.644 156.034 116.548 156.118C116.366 156.258 116.141 156.331 115.911 156.321C115.689 156.327 115.469 156.27 115.278 156.156C114.975 155.949 114.803 155.599 114.823 155.233H118.007C118.019 154.942 118.008 154.652 117.973 154.363C117.925 154.039 117.805 153.73 117.623 153.457C117.438 153.175 117.176 152.951 116.869 152.812C116.544 152.672 116.193 152.601 115.839 152.605C115.256 152.582 114.69 152.802 114.275 153.213C113.859 153.689 113.649 154.311 113.693 154.942C113.618 155.598 113.856 156.253 114.337 156.708ZM115.156 153.798C115.339 153.624 115.586 153.534 115.839 153.549C116.086 153.542 116.328 153.626 116.518 153.786C116.71 153.965 116.82 154.214 116.822 154.477H114.852C114.877 154.223 114.984 153.985 115.156 153.798Z" fill="white"/>
<path d="M117.049 151.52H114.476V152.119H117.049V151.52Z" fill="white"/>
<path d="M122.363 95.2801H104.237C102.843 95.2801 101.713 94.15 101.713 92.7556V74.6301C101.713 73.2357 102.843 72.1056 104.237 72.1056H122.363C123.757 72.1056 124.887 73.2357 124.887 74.6301V92.7556C124.887 94.15 123.757 95.2801 122.363 95.2801Z" stroke="#00B175" stroke-width="1.069" stroke-miterlimit="10"/>
<path d="M155.755 95.2801H137.629C136.235 95.2801 135.105 94.15 135.105 92.7556V74.6301C135.105 73.2357 136.235 72.1056 137.629 72.1056H155.755C157.149 72.1056 158.279 73.2357 158.279 74.6301V92.7556C158.279 94.15 157.149 95.2801 155.755 95.2801Z" stroke="#00B175" stroke-width="1.069" stroke-miterlimit="10"/>
<path d="M122.363 129.221H104.237C102.843 129.221 101.713 128.09 101.713 126.696V108.571C101.713 107.176 102.843 106.046 104.237 106.046H122.363C123.757 106.046 124.887 107.176 124.887 108.571V126.696C124.887 128.09 123.757 129.221 122.363 129.221Z" stroke="#00B175" stroke-width="1.069" stroke-miterlimit="10"/>
<path d="M155.755 129.221H137.629C136.235 129.221 135.105 128.09 135.105 126.696V108.571C135.105 107.176 136.235 106.046 137.629 106.046H155.755C157.149 106.046 158.279 107.176 158.279 108.571V126.696C158.279 128.09 157.149 129.221 155.755 129.221Z" stroke="#00B175" stroke-width="1.069" stroke-miterlimit="10"/>
<path d="M122.363 164.845H104.237C102.843 164.845 101.713 163.715 101.713 162.32V144.195C101.713 142.801 102.843 141.67 104.237 141.67H122.363C123.757 141.67 124.887 142.801 124.887 144.195V162.32C124.887 163.715 123.757 164.845 122.363 164.845Z" stroke="#00B175" stroke-width="1.069" stroke-miterlimit="10"/>
<path d="M155.755 164.845H137.629C136.235 164.845 135.105 163.715 135.105 162.32V144.195C135.105 142.801 136.235 141.67 137.629 141.67H155.755C157.149 141.67 158.279 142.801 158.279 144.195V162.32C158.279 163.715 157.149 164.845 155.755 164.845Z" stroke="#00B175" stroke-width="1.069" stroke-miterlimit="10"/>
<path d="M155.128 132.437H138.8V137.393H155.128V132.437Z" fill="#00B175"/>
<path d="M155.128 98.4362H138.8V103.392H155.128V98.4362Z" fill="#00B175"/>
<path d="M121.409 98.4362H105.081V103.392H121.409V98.4362Z" fill="#00B175"/>
<path d="M121.409 132.437H105.081V137.393H121.409V132.437Z" fill="#00B175"/>
<path d="M155.128 132.437H138.8V137.393H155.128V132.437Z" fill="#263238"/>
<path d="M155.128 98.4362H138.8V103.392H155.128V98.4362Z" fill="#263238"/>
<path d="M121.409 98.4362H105.081V103.392H121.409V98.4362Z" fill="#263238"/>
<path d="M121.409 132.437H105.081V137.393H121.409V132.437Z" fill="#263238"/>
<path d="M44.8022 74.0421H81.2459" stroke="#263238" stroke-width="1.069" stroke-miterlimit="10" stroke-linecap="round" stroke-linejoin="round"/>
<path d="M92.5176 217.972C92.5176 217.972 93.8246 222.434 93.3867 225.195C93.3867 225.195 92.8648 229.753 92.2869 232.184C91.709 234.616 91.0762 236.297 94.4983 237.261C97.9205 238.225 106.329 236.181 108.297 236.869C110.266 237.557 121.494 236.02 123.165 235.28C124.837 234.539 125.103 229.413 121.503 227.632C117.903 225.85 92.5176 217.972 92.5176 217.972Z" fill="white"/>
<path d="M93.0143 227.34C93.0143 227.34 92.0421 232.816 92.069 233.812C92.069 233.812 94.8662 232.993 97.1723 232.995C99.4784 232.998 106.396 233.084 109.14 232.672C111.885 232.259 117.159 230.322 119.599 230.309C122.039 230.295 124.221 230.722 124.221 230.722C124.221 230.722 124.507 228.763 120.651 227.748C116.795 226.733 102.762 223.774 102.762 223.774C102.762 223.774 99.6262 227.17 93.0143 227.34Z" fill="#00B175"/>
<path d="M141.928 224.75C141.928 224.75 144.387 223.194 146.699 224.148C149.011 225.103 157.246 225.091 157.246 225.091C157.246 225.091 163.764 224.273 166.542 225.649C169.321 227.025 169.63 229.102 169.411 230.722C169.193 232.343 165.093 236.655 159.71 236.869C154.328 237.084 153.886 235.882 149.462 235.65C149.462 235.65 143.531 235.274 141.813 234.533C140.096 233.792 137.863 233.176 137.926 229.972C137.991 226.768 141.928 224.75 141.928 224.75Z" fill="white"/>
<path d="M141.927 224.75C141.927 224.75 144.417 223.338 148.818 224.66C153.22 225.982 160.975 224.03 164.339 225.195C167.703 226.36 168.165 228.551 167.729 229.398C167.293 230.245 164.442 233.666 161.259 234.211C158.076 234.756 150.905 234.421 147.614 235.02C147.614 235.02 140.823 235.414 138.643 232.022C136.463 228.63 141.927 224.75 141.927 224.75Z" fill="#00B175"/>
<path d="M49.5147 222.3L45.3729 214.573L56.6704 202.915L66.8719 204.129L72.6438 212.931L71.2035 217.972L49.5147 222.3Z" fill="#263238"/>
<path d="M40.9646 220.184C40.9646 220.184 41.2765 234.628 50.6386 236.188C60.0007 237.749 93.417 221.496 93.417 221.496C93.417 221.496 105.864 227.959 115.225 228.793C124.587 229.627 138.172 231.351 139.576 232.911C140.981 234.471 146.129 227.918 143.165 224.017C143.165 224.017 133.022 223.372 126.625 220.184C120.228 216.996 99.3194 204.904 95.1065 204.163C90.8936 203.421 66.5527 214.968 66.5527 214.968L59.2195 216.528L40.9646 220.184Z" fill="#263238"/>
<path d="M68.6689 209.873L66.8713 204.129C66.8713 204.129 84.8636 184.131 92.5171 184.402C100.171 184.672 101.524 191.44 102.066 196.72C102.607 201.999 102.066 209.85 102.066 209.85L84.4682 212.051L71.2024 217.972L68.6689 209.873Z" fill="#263238"/>
<path d="M88.1905 206.515C88.1676 206.833 88.8071 197.403 91.5074 193.184" stroke="white" stroke-width="1.069" stroke-miterlimit="10" stroke-linecap="round" stroke-linejoin="round"/>
<path d="M94.3824 193.028C94.1931 194.885 94.2043 196.762 94.4154 198.617" stroke="white" stroke-width="1.069" stroke-miterlimit="10" stroke-linecap="round" stroke-linejoin="round"/>
<path d="M93.0933 227.17C93.0933 227.17 91.765 234.107 92.1334 235.584C92.5966 237.436 97.4439 237.475 98.8232 237.535C101.868 237.667 104.911 237.361 107.956 237.412C110.276 237.451 112.59 237.698 114.91 237.666C117.229 237.634 119.592 237.308 121.667 236.27C123.445 235.38 124.612 234.116 124.388 232.041C124.093 229.31 123.178 228.621 119.406 228.19C115.634 227.76 102.307 223.775 102.307 223.775C102.307 223.775 100.253 227.391 93.0933 227.17Z" stroke="#263238" stroke-width="1.069" stroke-miterlimit="10" stroke-linecap="round" stroke-linejoin="round"/>
<path d="M93.0933 227.17C93.0933 227.17 93.9793 223.332 93.0933 219.346C92.2074 215.36 99.0719 218.829 99.0719 218.829L102.762 222.814L102.307 223.774" stroke="#263238" stroke-width="1.069" stroke-miterlimit="10" stroke-linecap="round" stroke-linejoin="round"/>
<path d="M92.5176 236.286C92.5176 236.286 92.4291 234.919 93.8319 234.55C94.8281 234.288 96.04 234.466 97.0536 234.496C98.8064 234.547 100.558 234.625 102.312 234.64C108.213 234.69 113.946 232.819 119.84 232.598C120.877 232.56 122.728 232.28 123.65 232.926C125.126 233.96 122.398 235.995 121.373 236.409C120.347 236.823 117 237.817 113.537 237.654C110.075 237.492 104.654 237.512 102.308 237.538C99.96 237.565 95.5578 238.466 92.5176 236.286Z" fill="#263238"/>
<path d="M92.2992 233.812C93.9277 233.152 95.4358 233.003 97.1723 232.995C103.295 232.968 110.042 233.331 115.9 231.155C118.483 230.196 122.714 229.679 124.252 231.155" stroke="#263238" stroke-width="1.069" stroke-miterlimit="10" stroke-linecap="round" stroke-linejoin="round"/>
<path d="M138.559 231.672C138.559 231.672 138.78 234.181 142.987 234.772C147.194 235.362 155.682 236.469 158.487 236.839C161.291 237.208 169.336 234.18 169.41 230.232C169.484 226.284 166.015 225.103 163.875 225.029C161.734 224.955 151.549 225.398 148.818 224.66C146.087 223.922 144.537 223.627 142.913 224.586" stroke="#263238" stroke-width="1.069" stroke-miterlimit="10" stroke-linecap="round" stroke-linejoin="round"/>
<path d="M165.17 225.195C165.17 225.195 167.565 227.022 167.787 228.867C168.008 230.712 163.21 234.329 158.93 234.698C154.649 235.067 149.155 234.311 146.699 235.28" stroke="#263238" stroke-width="1.069" stroke-miterlimit="10" stroke-linecap="round" stroke-linejoin="round"/>
<path d="M41.6298 165.955C41.6298 165.955 44.8985 168.378 46.4816 167.337C48.0648 166.296 51.5149 162.354 51.5149 162.354L56.5084 165.075L61.7495 181.903L65.2551 196.78L70.8349 199.516V201.897C70.8349 201.897 67.5393 205.309 64.1015 206.321C60.6636 207.333 56.9755 208.316 54.1508 207.658C51.3268 207.001 45.902 188.303 45.902 188.303L32.2952 168.421L41.6298 165.955Z" fill="#263238"/>
<path d="M86.0021 205.065L61.749 198.906L86.0021 187.67L109.14 193.573L86.0021 205.065Z" fill="white" stroke="#263238" stroke-width="1.069" stroke-miterlimit="10" stroke-linecap="round" stroke-linejoin="round"/>
<path d="M86.002 205.065L91.4177 180.178L114.068 171.542L109.413 193.74L86.002 205.065Z" fill="white"/>
<path d="M61.749 198.62V199.983L86.146 206.515L109.66 194.734L109.787 193.379L86.146 204.816L61.749 198.62Z" fill="#263238"/>
<path d="M49.9772 164.126C49.9772 164.126 54.2785 169.06 56.4497 175.326C58.6208 181.593 62.7015 194.849 62.3504 199.946L70.9923 193.22C70.9923 193.22 69.5761 186.595 70.0537 180.209C70.5309 173.822 71.0141 163.654 65.4281 162.819C59.5969 161.573 51.8095 159.668 51.8095 159.668L49.9772 164.126Z" fill="#00B175"/>
<path d="M35.3685 161.63C35.3685 161.63 26.6039 166.341 25.5203 168.214C24.4367 170.088 23.7972 169.546 24.2099 172.538C24.6226 175.53 26.7898 185.277 27.314 188.57C27.8382 191.863 29.6302 206.087 29.6302 206.087C29.6302 206.087 32.466 207.339 34.6091 207.785L23.1532 222.728C23.1532 222.728 27.4736 232.11 35.7241 232.392C43.9751 232.673 47.7949 224.662 51.3621 219.009C54.9293 213.356 57.3199 205.72 57.3199 205.72L59.0486 205.401L58.4069 197.288L57.3199 197.458C57.3199 197.458 57.0926 186.131 52.3006 177.599C47.5093 169.067 35.3685 161.63 35.3685 161.63Z" fill="#00B175"/>
<path opacity="0.2" d="M53.9543 161.119C53.9543 161.119 57.7707 163.065 58.1605 165.517C58.5503 167.969 57.2981 171.015 59.1287 172.211C60.9594 173.406 63.112 173.663 64.1452 176.854C65.1784 180.045 64.8799 194.809 64.1452 197.338C63.4105 199.867 62.351 197.326 62.351 197.326L61.1358 190.877L58.6359 181.641L56.1943 174.699L53.9543 169.895L51.2675 164.423L53.9543 161.119Z" fill="black"/>
<path d="M58.9013 203.531C58.9013 203.531 62.4669 204 63.6591 203.488C64.8513 202.975 65.9142 202.717 66.7391 200.364C67.564 198.01 69.1493 197.29 70.8344 197.178C72.5194 197.066 76.3358 196.318 77.0061 194.484L75.353 194.366C75.353 194.366 76.4036 194.062 76.8885 193.525H76.1936C76.1936 193.525 72.8795 191.784 71.1844 191.363C69.4893 190.942 67.6844 190.506 66.0906 191.883C64.4969 193.26 63.6389 196.228 62.9893 197.001C62.3397 197.774 60.6205 198.734 58.3621 198.726L58.9013 203.531Z" fill="white"/>
<path d="M59.1287 203.55C59.1287 203.55 63.9671 204.394 65.5832 202.497C67.1994 200.599 66.6371 197.912 70.2206 197.289C73.804 196.665 76.837 195.888 77.0067 194.485C77.0067 194.485 69.6387 193.784 68.0679 195.049" stroke="#263238" stroke-width="1.069" stroke-miterlimit="10" stroke-linecap="round" stroke-linejoin="round"/>
<path d="M75.5798 194.291C76.1353 194.141 76.5654 193.909 76.8891 193.525C75.7853 193.314 74.6816 193.102 73.5778 192.89C72.4175 192.668 71.2594 192.28 70.0632 192.346C68.9684 192.406 68.0372 193.067 67.3209 193.862" stroke="#263238" stroke-width="1.069" stroke-miterlimit="10" stroke-linecap="round" stroke-linejoin="round"/>
<path d="M76.0049 193.175C74.7258 192.688 73.4474 192.202 72.1689 191.715C70.4021 191.042 68.3256 190.393 66.7167 191.386C66.0481 191.798 65.5631 192.447 65.1358 193.106C64.6722 193.823 64.2572 194.57 63.8949 195.342C63.6266 195.914 63.3825 196.506 62.9899 197.001C61.9416 198.322 60.3215 198.654 58.6365 198.727" stroke="#263238" stroke-width="1.069" stroke-miterlimit="10" stroke-linecap="round" stroke-linejoin="round"/>
<path d="M34.7402 161.63C34.7402 161.63 39.6077 163.532 41.6304 165.956C41.6304 165.956 46.5091 169.273 48.5369 165.626C50.5647 161.979 50.7926 154.641 50.7926 154.641L52.6355 150.442L51.9132 139.195L46.6391 131.27L41.6299 127.59L36.1917 138.086L29.8766 142.387L30.5962 154.129L34.7402 161.63Z" fill="white"/>
<path d="M44.9227 132.139C44.9227 132.139 45.1579 141.167 37.8112 144.49C37.8112 144.49 35.6726 155.453 42.756 157.769C42.756 157.769 43.9522 162.891 38.8635 163.708C32.2952 160.489 33.4516 157.046 33.4516 157.046L31.187 147.342L30.4646 140.838L38.8635 134.25L44.9227 132.139Z" fill="#00B175"/>
<path opacity="0.5" d="M44.9227 132.139C44.9227 132.139 45.1579 141.167 37.8112 144.49C37.8112 144.49 35.6726 155.453 42.756 157.769C42.756 157.769 43.9522 162.891 38.8635 163.708C32.2952 160.489 33.4516 157.046 33.4516 157.046L31.187 147.342L30.4646 140.838L38.8635 134.25L44.9227 132.139Z" fill="white"/>
<path d="M50.651 136.914C50.651 136.914 50.9662 137.936 50.656 140.98C50.3458 144.024 51.0928 147.917 50.0854 150.653C49.0779 153.389 47.3985 157.552 42.7566 157.769C39.1962 157.776 35.4772 152.756 35.0163 149.422C35.0163 149.422 30.7194 147.404 31.2302 144.549C31.7403 141.693 34.4994 142.461 35.2213 144.561" stroke="#263238" stroke-width="1.069" stroke-miterlimit="10" stroke-linecap="round" stroke-linejoin="round"/>
<path d="M46.7864 142.582C46.4285 144.254 46.4862 146.014 46.9527 147.659C47.0602 148.039 47.1884 148.453 47.0333 148.817C46.8944 149.143 46.5489 149.344 46.1989 149.401C45.8495 149.457 45.4922 149.392 45.1461 149.316" stroke="#263238" stroke-width="1.069" stroke-miterlimit="10" stroke-linecap="round" stroke-linejoin="round"/>
<path d="M44.9227 151.269C44.9227 151.269 42.9213 151.887 41.6669 150.442" stroke="#263238" stroke-width="1.069" stroke-miterlimit="10" stroke-linecap="round" stroke-linejoin="round"/>
<path d="M35.3684 161.63C36.6139 158.469 34.2949 148.999 34.2949 148.999" stroke="#263238" stroke-width="1.069" stroke-miterlimit="10" stroke-linecap="round" stroke-linejoin="round"/>
<path d="M43.116 141.001C43.116 141.001 40.2203 138.48 38.8634 142.213" stroke="#263238" stroke-width="1.069" stroke-miterlimit="10" stroke-linecap="round" stroke-linejoin="round"/>
<path d="M47.3082 140.838C47.5473 140.381 47.8615 139.94 48.3123 139.688C48.7631 139.436 49.3746 139.418 49.7649 139.756" stroke="#263238" stroke-width="1.069" stroke-miterlimit="10" stroke-linecap="round" stroke-linejoin="round"/>
<path d="M42.7274 144.49C42.7274 145.09 42.5112 145.577 42.2447 145.577C41.9781 145.577 41.762 145.09 41.762 144.49C41.762 143.89 41.9781 143.403 42.2447 143.403C42.5112 143.403 42.7274 143.89 42.7274 144.49Z" fill="#263238"/>
<path d="M48.2737 144.009C48.2737 144.609 48.0575 145.096 47.791 145.096C47.5244 145.096 47.3082 144.609 47.3082 144.009C47.3082 143.409 47.5244 142.922 47.791 142.922C48.0575 142.922 48.2737 143.409 48.2737 144.009Z" fill="#263238"/>
<path d="M45.5342 157.046C45.5342 157.046 44.534 159.039 46.1256 163.404" stroke="#263238" stroke-width="1.069" stroke-miterlimit="10" stroke-linecap="round" stroke-linejoin="round"/>
<path d="M34.295 142.922C34.295 142.922 45.1125 138.913 44.9221 132.138C44.9221 132.138 46.727 136.509 50.792 138.767C50.792 138.767 49.6289 132.575 48.2731 129.88C46.9174 127.185 38.8315 125.073 35.7359 125.728C32.6402 126.384 26.6667 127.622 25.4285 137.602C24.1903 147.581 25.4285 155.084 22.5148 159.091C19.6011 163.097 20.0441 170.018 24.2693 170.965C24.2693 170.965 24.8685 168.91 26.3984 167.453C27.9283 165.996 35.5113 161.772 35.5113 161.772C35.5113 161.772 35.8378 154.191 34.295 149C34.295 149 31.0565 148 31.229 144.549C31.5549 141.859 34.295 142.922 34.295 142.922Z" fill="#263238"/>
<path d="M47.9159 129.35C50.026 131.638 50.7125 132.695 51.9132 134.796C54.2596 138.904 56.8496 143.531 58.0272 148.113C58.9557 151.728 58.3498 155.711 56.3881 158.885C56.098 159.355 55.7777 159.811 55.5672 160.321C55.3152 160.932 55.2295 161.598 55.1438 162.253C54.9484 163.75 54.7193 165.3 53.9012 166.57C53.0824 167.839 51.501 168.747 50.0556 168.309C48.836 167.94 47.3083 166.449 46.8664 165.254C45.7392 162.204 45.0392 160.26 45.5348 157.046C45.5348 157.046 50.6571 152.534 50.6207 147.342C50.5843 142.149 51.5055 138.571 49.3982 135.997C47.2909 133.422 47.9159 129.35 47.9159 129.35Z" fill="#263238"/>
<path d="M35.5113 161.771C35.5113 161.771 28.4071 165.48 25.5209 168.214C22.6346 170.948 25.2437 177.264 26.4443 183.668C27.645 190.071 28.5706 196.179 29.6307 206.088C40.0131 210.911 49.765 206.991 59.0498 205.402L58.408 197.289C57.0618 197.362 49.9778 199.443 43.839 197.623C40.6577 196.68 38.0626 198.055 35.8747 200.549" stroke="#263238" stroke-width="1.069" stroke-miterlimit="10" stroke-linecap="round" stroke-linejoin="round"/>
<path d="M34.2087 198.397C37.3744 196.837 40.2371 196.179 43.148 197.453" stroke="#263238" stroke-width="1.069" stroke-miterlimit="10" stroke-linecap="round" stroke-linejoin="round"/>
<path d="M42.5304 197.212C40.6981 192.269 40.2523 186.542 39.3994 181.093" stroke="#263238" stroke-width="1.069" stroke-miterlimit="10" stroke-linecap="round" stroke-linejoin="round"/>
<path d="M29.6307 172.538C33.5026 174.77 36.5899 178.333 38.2475 182.483" stroke="#263238" stroke-width="1.069" stroke-miterlimit="10" stroke-linecap="round" stroke-linejoin="round"/>
<path d="M36.694 176.226C37.17 177.141 37.646 178.057 38.122 178.973" stroke="#263238" stroke-width="1.069" stroke-miterlimit="10" stroke-linecap="round" stroke-linejoin="round"/>
<path d="M35.3685 161.63C35.3685 161.63 49.4733 169.734 53.6324 180.377C57.7915 191.02 57.222 197.326 57.222 197.326" stroke="#263238" stroke-width="1.069" stroke-miterlimit="10" stroke-linecap="round" stroke-linejoin="round"/>
<path d="M35.3685 161.63C33.8644 164.864 35.2621 168.645 37.417 171.222C39.6626 173.91 43.3267 175.363 46.7236 175.894C47.0932 175.952 47.5356 176.044 47.6639 176.396C47.73 176.576 47.6874 176.779 47.6314 176.963C47.1224 178.632 45.556 179.974 45.5885 181.719C45.602 182.44 45.896 183.121 46.1911 183.778C48.0996 188.028 50.2522 192.169 52.635 196.173" stroke="#263238" stroke-width="1.069" stroke-miterlimit="10" stroke-linecap="round" stroke-linejoin="round"/>
<path opacity="0.5" d="M36.1922 129.605C35.5605 133.27 34.2305 136.812 32.2952 139.988" stroke="white" stroke-width="1.069" stroke-miterlimit="10" stroke-linecap="round" stroke-linejoin="round"/>
<path opacity="0.5" d="M29.8765 131.27C27.8471 136.002 28.8142 141.404 28.5969 146.549C28.4021 151.169 27.2059 155.745 25.1149 159.869" stroke="white" stroke-width="1.069" stroke-miterlimit="10" stroke-linecap="round" stroke-linejoin="round"/>
<path d="M57.3205 205.72C57.3205 205.72 50.1872 225.024 43.2942 229.97C36.4017 234.916 28.8058 232.267 23.1532 222.728L34.6091 207.785" stroke="#263238" stroke-width="1.069" stroke-miterlimit="10" stroke-linecap="round" stroke-linejoin="round"/>
<path d="M36.6654 208.37C37.7361 212.616 40.3172 216.464 43.839 219.065" stroke="#263238" stroke-width="1.069" stroke-miterlimit="10" stroke-linecap="round" stroke-linejoin="round"/>
<path d="M35.2571 208.219C34.7385 211.346 34.8992 214.583 35.7247 217.643" stroke="#263238" stroke-width="1.069" stroke-miterlimit="10" stroke-linecap="round" stroke-linejoin="round"/>
<path d="M47.3082 159.985C47.3082 159.985 53.816 166.929 57.783 178.973C61.7501 191.017 62.3504 197.622 62.3504 197.622" stroke="#263238" stroke-width="1.069" stroke-miterlimit="10" stroke-linecap="round" stroke-linejoin="round"/>
<path d="M42.2448 166.444C42.2448 166.444 46.4571 169.236 48.5369 165.626C50.6168 162.016 49.0975 160.78 49.0975 160.78" stroke="#263238" stroke-width="1.069" stroke-miterlimit="10" stroke-linecap="round" stroke-linejoin="round"/>
<path d="M48.132 159.471C49.4468 159.256 50.7712 159.718 52.0032 160.224C53.4604 160.824 54.9063 161.51 56.0996 162.538C57.293 163.566 58.2215 164.98 58.3805 166.548C58.5564 168.282 57.8261 170.196 58.7249 171.689C59.7324 173.363 62.2344 173.524 63.4155 175.081C63.9844 175.831 64.1614 176.799 64.2986 177.731C65.0764 183.008 65.0574 189.001 64.3759 194.291" stroke="#263238" stroke-width="1.069" stroke-miterlimit="10" stroke-linecap="round" stroke-linejoin="round"/>
<path d="M63.3674 169.957C64.8055 171.3 66.1534 172.784 67.0315 174.544C67.909 176.305 68.2809 178.381 67.7186 180.267C67.5109 180.963 67.1822 181.62 66.9923 182.321C66.812 182.987 66.7605 183.68 66.7095 184.368C66.5303 186.787 66.3511 189.208 66.1719 191.628" stroke="#263238" stroke-width="1.069" stroke-miterlimit="10" stroke-linecap="round" stroke-linejoin="round"/>
<path d="M49.9772 158.839C52.7285 159.66 55.4159 160.711 58.2276 161.319C60.9812 161.914 63.6759 162.068 66.3421 163.115C66.7363 163.27 67.1294 163.437 67.4766 163.68C69.7642 165.28 69.748 168.503 70.005 170.965C70.7868 178.441 68.7355 184.028 70.8344 191.246" stroke="#263238" stroke-width="1.069" stroke-miterlimit="10" stroke-linecap="round" stroke-linejoin="round"/>
<path d="M56.6703 207.628C56.6703 207.628 63.6893 208.372 70.1489 202.521" stroke="#263238" stroke-width="1.069" stroke-miterlimit="10" stroke-linecap="round" stroke-linejoin="round"/>
<path opacity="0.5" d="M52.0856 167.494C50.7987 165.616 49.9178 163.332 50.2561 161.082C50.475 159.623 51.1834 158.291 51.8246 156.963C52.6613 155.23 53.4055 153.433 53.7527 151.54C54.0999 149.648 54.0305 147.641 53.2823 145.868C52.7419 144.589 51.8745 143.479 51.0165 142.386" stroke="white" stroke-width="1.069" stroke-miterlimit="10" stroke-linecap="round" stroke-linejoin="round"/>
<path d="M86.002 205.065L114.068 171.542L109.413 193.74L86.002 205.065Z" fill="#263238"/>
<path opacity="0.8" d="M86.002 205.065L114.068 171.542L109.413 193.74L86.002 205.065Z" fill="white"/>
<path d="M104.381 187.349C103.991 188.86 102.865 189.876 101.866 189.618C100.867 189.361 100.372 187.926 100.762 186.416C101.152 184.904 102.277 183.888 103.277 184.146C104.276 184.403 104.77 185.837 104.381 187.349Z" fill="#263238"/>
<path d="M86.002 205.065L91.4177 180.178L114.068 171.542L109.413 193.74L86.002 205.065Z" stroke="#263238" stroke-width="1.069" stroke-miterlimit="10" stroke-linecap="round" stroke-linejoin="round"/>
<path d="M85.0808 204.526L90.3907 179.808L113.328 171.182L114.174 171.394L91.4178 180.178L86.002 205.065L85.0808 204.526Z" fill="#263238"/>
<path opacity="0.2" d="M35.3685 161.63C35.3685 161.63 33.3766 167.122 37.417 171.222C41.4574 175.322 47.6645 176.396 47.6645 176.396L47.632 176.963C47.632 176.963 44.9457 180.608 45.7005 182.483C46.4549 184.359 53.4 198.109 53.4 198.109L57.3211 197.459C57.3211 197.459 57.7943 188.035 53.0225 178.973C48.1321 169.687 35.3685 161.63 35.3685 161.63Z" fill="black"/>
<path opacity="0.2" d="M33.4718 209.269C33.4718 209.269 33.7501 213.329 35.2946 215.705C35.2946 215.705 35.4744 212.715 35.7241 210.077C35.7241 210.077 38.01 215.936 42.5298 218.004C42.5298 218.004 39.8676 212.715 39.0024 210.077C39.0024 210.077 48.0721 211.688 56.8272 207.092V205.819C56.8272 205.819 43.3211 209.775 34.6086 207.785L33.4718 209.269Z" fill="black"/>
<path opacity="0.2" d="M39.5226 181.903L45.15 196.172L51.9131 198.397L44.4746 198.108C44.4746 198.108 41.0222 197.613 36.694 199.946C36.694 199.946 36.8866 198.686 38.6781 197.622C38.6781 197.622 38.033 196.996 35.3422 197.874C35.3422 197.874 37.2282 195.904 39.8026 194.801L39.5226 181.903Z" fill="black"/>
<path opacity="0.2" d="M64.4269 170.818C63.0795 169.359 67.6474 173.203 68.278 175.086C68.9086 176.97 68.9354 178.995 68.9226 180.981C68.9102 182.968 68.8682 184.983 69.3734 186.904C69.711 188.19 70.4346 189.978 70.8344 191.245C70.8344 191.245 67.1569 190.733 66.1713 191.627L66.9917 182.321C66.9917 182.321 69.9927 176.849 64.4269 170.818Z" fill="black"/>
<path d="M77.0067 194.485L86.5642 189.696L88.6413 190.158" stroke="#263238" stroke-width="1.069" stroke-miterlimit="10" stroke-linecap="round" stroke-linejoin="round"/>
<path d="M85.7679 202.915L68.8632 198.459L73.72 196.57" stroke="#263238" stroke-width="1.069" stroke-miterlimit="10" stroke-linecap="round" stroke-linejoin="round"/>
<path d="M88.41 191.486L72.6438 199.392" stroke="#263238" stroke-width="1.069" stroke-miterlimit="10" stroke-linecap="round" stroke-linejoin="round"/>
<path d="M88.1709 194.485L76.4282 200.374" stroke="#263238" stroke-width="1.069" stroke-miterlimit="10" stroke-linecap="round" stroke-linejoin="round"/>
<path d="M87.6635 197.431L79.8431 201.354" stroke="#263238" stroke-width="1.069" stroke-miterlimit="10" stroke-linecap="round" stroke-linejoin="round"/>
<path d="M71.3966 197.073L86.6196 201.023" stroke="#263238" stroke-width="1.069" stroke-miterlimit="10" stroke-linecap="round" stroke-linejoin="round"/>
<path d="M75.7188 195.829L87.355 198.848" stroke="#263238" stroke-width="1.069" stroke-miterlimit="10" stroke-linecap="round" stroke-linejoin="round"/>
<path d="M78.0735 193.95L87.6635 196.438" stroke="#263238" stroke-width="1.069" stroke-miterlimit="10" stroke-linecap="round" stroke-linejoin="round"/>
<path d="M80.9911 192.488L88.1708 194.351" stroke="#263238" stroke-width="1.069" stroke-miterlimit="10" stroke-linecap="round" stroke-linejoin="round"/>
<path d="M83.9833 191.104L88.6414 192.312" stroke="#263238" stroke-width="1.069" stroke-miterlimit="10" stroke-linecap="round" stroke-linejoin="round"/>
<path d="M101.579 207.479C104.667 208.557 107.167 209.724 107.167 209.724" stroke="white" stroke-width="1.069" stroke-miterlimit="10" stroke-linecap="round" stroke-linejoin="round"/>
<path d="M62.351 214.487C62.351 214.487 89.1873 205.385 94.2485 205.72C95.3753 205.795 96.6409 206.035 97.9272 206.363" stroke="white" stroke-width="1.069" stroke-miterlimit="10" stroke-linecap="round" stroke-linejoin="round"/>
<path d="M66.8718 212.989C67.9655 211.748 68.6907 211.102 69.2977 210.099" stroke="white" stroke-width="1.069" stroke-miterlimit="10" stroke-linecap="round" stroke-linejoin="round"/>
</svg>
