<svg width="auto" height="auto" viewBox="0 0 283 284" fill="none" xmlns="http://www.w3.org/2000/svg">
<path d="M181.482 45.6632C170.641 52.1305 162.006 61.7189 151.725 69.0489C138.631 78.3846 123.176 83.8362 107.593 87.7424C88.1794 92.6084 66.5893 96.1715 53.5317 111.387C42.3028 124.472 40.3235 143.41 43.1881 160.437C56.4489 239.263 182.91 234.822 222.8 182.864C244.038 155.203 285.296 68.0027 240.325 42.6114C238.318 41.4782 236.178 40.5688 233.999 39.8293C217.348 34.1777 196.55 36.6741 181.482 45.6632Z" fill="#55B45C"/>
<path opacity="0.7" d="M181.482 45.6632C170.641 52.1305 162.006 61.7189 151.725 69.0489C138.631 78.3846 123.176 83.8362 107.593 87.7424C88.1794 92.6084 66.5893 96.1715 53.5317 111.387C42.3028 124.472 40.3235 143.41 43.1881 160.437C56.4489 239.263 182.91 234.822 222.8 182.864C244.038 155.203 285.296 68.0027 240.325 42.6114C238.318 41.4782 236.178 40.5688 233.999 39.8293C217.348 34.1777 196.55 36.6741 181.482 45.6632Z" fill="white"/>
<path d="M236.955 192.825C236.955 192.825 238.316 191.164 238.39 191.048C239.228 189.699 240.059 186.615 238.918 185.235C238.15 184.367 236.826 184.287 235.961 185.057C235.902 185.109 235.847 185.165 235.794 185.224C234.927 186.123 234.828 187.67 235.013 188.842C235.222 190.225 236.949 192.822 236.955 192.825Z" fill="#55B45C"/>
<path d="M250.428 186.432C250.366 186.389 250.304 186.347 250.242 186.303C248.708 185.407 245.808 186.762 244.626 187.823C244.525 187.918 243.12 189.546 243.12 189.546L243.15 189.559C242.695 189.769 242.213 190.005 241.67 190.264C240.708 190.765 239.595 191.324 238.443 192.02C237.184 192.758 235.979 193.572 234.82 194.45C233.52 195.428 232.309 196.521 231.202 197.712L232.031 195.855C232.487 194.335 232.475 191.122 231.015 190.111C230.044 189.475 228.751 189.744 228.117 190.718C228.074 190.781 228.035 190.852 227.996 190.924C227.394 192.023 227.712 193.544 228.195 194.627C228.741 195.85 230.909 197.773 231.084 197.926C229.985 199.165 228.968 200.485 228.044 201.862C227.502 202.663 226.979 203.487 226.468 204.316L226.84 203.484C227.297 201.964 227.291 198.754 225.831 197.742C224.86 197.106 223.555 197.386 222.921 198.36L222.812 198.555C222.21 199.655 222.522 201.173 223.005 202.256C223.487 203.34 225.314 205.035 225.8 205.468L225.214 206.434C224.297 207.977 223.379 209.52 222.436 211.006C222.099 211.529 221.756 212.034 221.412 212.539L221.732 211.823C222.191 210.297 222.179 207.084 220.719 206.073C219.748 205.437 218.443 205.716 217.809 206.69C217.772 206.755 217.736 206.82 217.699 206.885C217.095 207.991 217.41 209.503 217.896 210.595C218.382 211.688 220.023 213.203 220.603 213.722C220.236 214.231 219.868 214.74 219.487 215.213C219.217 215.537 218.984 215.861 218.702 216.164C218.419 216.467 218.149 216.774 217.881 217.076C217.335 217.638 216.778 218.224 216.237 218.759C215.864 219.132 215.493 219.484 215.128 219.838C215.465 219.316 216.106 218.293 216.147 218.2C216.698 216.915 216.919 215.511 216.773 214.119C216.836 213.977 216.893 213.833 216.932 213.679C217.274 212.567 216.648 211.389 215.539 211.046C215.466 211.028 215.396 211.004 215.32 210.992C213.565 210.707 211.345 213.019 210.624 214.436C210.586 214.522 210.219 215.476 210.001 216.081C210.078 215.709 210.153 215.342 210.224 214.952C210.367 214.187 210.491 213.413 210.624 212.584C210.68 212.179 210.729 211.772 210.784 211.367C210.839 210.962 210.86 210.52 210.896 210.092C210.965 209.109 210.986 208.103 210.988 207.089C211.669 207.218 214.047 207.627 215.202 207.354C216.357 207.081 217.749 206.41 218.249 205.258C218.753 204.211 218.314 202.946 217.27 202.44C217.202 202.41 217.135 202.38 217.065 202.355C215.375 201.81 212.825 203.752 211.9 205.047C211.862 205.134 211.28 206.124 210.98 206.678C210.979 206.07 210.977 205.462 210.948 204.849C210.879 203.07 210.757 201.275 210.636 199.48L210.536 197.836C210.773 197.883 213.603 198.437 214.899 198.131C216.054 197.858 217.442 197.178 217.948 196.028C218.434 194.973 217.974 193.722 216.916 193.231C216.777 193.161 216.622 193.114 216.467 193.081C214.777 192.536 212.233 194.481 211.305 195.767C211.255 195.878 210.433 197.308 210.244 197.683C210.174 196.481 210.114 195.277 210.106 194.088C210.08 192.477 210.168 190.873 210.357 189.276C210.456 189.321 213.411 189.909 214.742 189.573C215.897 189.3 217.288 188.629 217.788 187.476C218.286 186.426 217.844 185.169 216.8 184.662C216.732 184.632 216.665 184.602 216.595 184.577C214.905 184.032 212.361 185.977 211.439 187.266C211.398 187.359 210.759 188.442 210.477 188.974L210.391 188.936C210.616 187.341 210.984 185.773 211.489 184.244C211.763 183.398 212.067 182.601 212.378 181.837C212.916 182.005 215.386 182.738 216.613 182.585C217.839 182.433 219.244 181.932 219.87 180.843C220.482 179.852 220.18 178.545 219.192 177.931C219.13 177.889 219.071 177.854 219.004 177.824C217.381 177.095 214.641 178.752 213.578 179.926C213.543 180.006 213.006 180.713 212.639 181.237L213.093 180.219C213.644 178.985 214.225 177.899 214.748 176.942C215.051 176.396 215.328 175.906 215.602 175.459C216.215 175.342 218.681 174.859 219.677 174.166C220.673 173.473 221.711 172.369 221.776 171.117C221.871 169.96 221.017 168.947 219.867 168.845C219.782 168.837 219.707 168.84 219.626 168.84C217.855 168.94 216.152 171.663 215.775 173.22C215.72 173.343 215.44 175.476 215.495 175.501C215.221 175.933 214.939 176.399 214.644 176.91C214.103 177.86 213.494 178.941 212.913 180.161C212.697 180.612 212.487 181.066 212.283 181.522C211.901 182.394 211.547 183.287 211.233 184.19C210.68 185.726 210.271 187.305 210.001 188.917L209.976 188.972C209.906 188.452 209.646 187.017 209.612 186.913C209.155 185.39 207.384 182.712 205.6 182.673C204.437 182.684 203.509 183.637 203.52 184.804C203.517 184.877 203.52 184.953 203.532 185.025C203.689 186.228 204.77 187.344 205.771 187.979C206.921 188.711 209.765 189.1 209.993 189.136C209.761 190.78 209.635 192.434 209.624 194.095C209.611 195.067 209.628 196.037 209.655 197.019C209.582 196.572 209.501 196.172 209.487 196.122C209.031 194.599 207.256 191.927 205.473 191.889C204.31 191.899 203.376 192.85 203.389 194.011C203.39 194.092 203.393 194.168 203.402 194.246C203.507 195.5 204.577 196.573 205.6 197.225C206.623 197.878 209.054 198.267 209.711 198.333C209.727 198.71 209.737 199.085 209.756 199.456C209.832 201.253 209.923 203.049 209.95 204.809C209.964 205.438 209.951 206.046 209.944 206.658C209.87 206.262 209.811 205.931 209.808 205.856C209.351 204.332 207.577 201.661 205.793 201.622C204.635 201.621 203.698 202.562 203.703 203.727C203.704 203.823 203.705 203.921 203.721 204.017C203.826 205.271 204.893 206.35 205.919 206.996C206.944 207.642 209.157 208.007 209.901 208.112C209.873 208.736 209.842 209.367 209.805 209.979C209.759 210.396 209.743 210.796 209.67 211.207C209.597 211.619 209.551 212.02 209.49 212.422C209.345 213.194 209.203 213.989 209.042 214.732C208.934 215.254 208.823 215.752 208.714 216.243C208.709 215.626 208.679 214.421 208.666 214.318C208.441 212.736 207.089 209.832 205.342 209.529C204.193 209.376 203.136 210.189 202.983 211.342C202.974 211.412 202.968 211.476 202.964 211.549C202.879 212.799 203.8 214.042 204.689 214.827C205.673 215.684 208.333 216.502 208.66 216.612C208.472 217.431 208.283 218.235 208.095 218.987C207.442 221.589 206.798 223.728 206.331 225.222C206.275 225.412 206.217 225.593 206.16 225.753L207.228 226.255C207.307 226.046 207.354 225.808 207.433 225.547C207.875 224.028 208.472 221.845 209.075 219.205C209.272 218.368 209.457 217.474 209.647 216.552C210.541 216.583 211.433 216.569 212.325 216.504C212.753 217.777 214.403 219.785 214.619 220.045C214.014 220.625 213.417 221.186 212.845 221.706C210.869 223.521 209.178 224.961 207.944 225.94C207.755 226.084 207.583 226.221 207.428 226.352L208.671 226.94C208.694 226.921 208.718 226.902 208.741 226.883C209.937 225.858 211.647 224.375 213.603 222.506C214.22 221.917 214.886 221.283 215.536 220.605C215.813 220.811 218.077 222.436 219.354 222.699C220.519 222.933 222.058 222.907 223 222.071C223.891 221.331 224.022 219.997 223.278 219.1C223.236 219.045 223.18 218.99 223.129 218.937C221.824 217.729 218.7 218.428 217.319 219.207C217.237 219.258 216.409 219.856 215.892 220.239C216.16 219.967 216.413 219.732 216.698 219.424C217.244 218.862 217.768 218.282 218.339 217.665C218.601 217.361 218.87 217.052 219.138 216.735C219.405 216.418 219.661 216.075 219.928 215.742C220.531 214.954 221.104 214.131 221.66 213.284C222.15 213.756 223.912 215.429 225.03 215.835C226.148 216.242 227.698 216.472 228.742 215.786C229.742 215.199 230.08 213.914 229.494 212.91C229.455 212.848 229.417 212.786 229.371 212.722C228.266 211.329 225.076 211.532 223.593 212.109C223.498 212.141 222.483 212.662 221.929 212.961C222.26 212.451 222.589 211.946 222.907 211.415C223.828 209.896 224.714 208.325 225.595 206.765C225.87 206.281 226.145 205.813 226.423 205.338C226.59 205.509 228.645 207.536 229.901 207.996C231.009 208.406 232.572 208.626 233.613 207.947C234.616 207.354 234.95 206.06 234.359 205.053C234.326 204.994 234.287 204.932 234.245 204.876C233.131 203.487 229.95 203.686 228.461 204.261C228.345 204.306 226.896 205.039 226.532 205.276C227.139 204.23 227.749 203.193 228.4 202.198C229.265 200.839 230.223 199.536 231.256 198.297C231.338 198.379 233.472 200.508 234.752 200.98C235.864 201.383 237.392 201.596 238.467 200.924C239.463 200.328 239.785 199.028 239.188 198.034C239.152 197.966 239.113 197.904 239.066 197.846C237.961 196.453 234.771 196.656 233.281 197.231C233.183 197.268 232.071 197.842 231.544 198.131L231.483 198.052C232.554 196.844 233.727 195.736 235 194.737C235.691 194.181 236.384 193.686 237.067 193.215C237.423 193.656 239.078 195.637 240.171 196.18C241.265 196.723 242.721 197.082 243.849 196.522C244.905 196.042 245.364 194.797 244.891 193.74C244.855 193.672 244.819 193.603 244.783 193.536C243.833 192.027 240.64 191.889 239.104 192.287C239.021 192.308 238.215 192.628 237.597 192.854C237.911 192.646 238.228 192.433 238.533 192.245C239.666 191.524 240.751 190.931 241.709 190.421C242.267 190.131 242.769 189.882 243.249 189.632C243.821 189.889 246.143 190.837 247.357 190.812C248.571 190.787 250.042 190.434 250.795 189.394C251.5 188.477 251.339 187.152 250.428 186.432Z" fill="#55B45C"/>
<path d="M208.472 179.275C209.408 180.303 212.281 181.52 212.281 181.52C212.281 181.52 212.492 179.394 212.501 179.242C212.472 177.652 211.457 174.603 209.756 174.098C208.63 173.801 207.477 174.476 207.181 175.606C207.163 175.675 207.148 175.745 207.137 175.817C206.91 177.054 207.678 178.392 208.472 179.275Z" fill="#55B45C"/>
<path opacity="0.5" d="M250.428 186.432C250.366 186.389 250.304 186.347 250.242 186.303C248.708 185.407 245.808 186.762 244.626 187.823C244.525 187.918 243.12 189.546 243.12 189.546L243.15 189.559C242.695 189.769 242.213 190.005 241.67 190.264C240.708 190.765 239.595 191.324 238.443 192.02C237.184 192.758 235.979 193.572 234.82 194.45C233.52 195.428 232.309 196.521 231.202 197.712L232.031 195.855C232.487 194.335 232.475 191.122 231.015 190.111C230.044 189.475 228.751 189.744 228.117 190.718C228.074 190.781 228.035 190.852 227.996 190.924C227.394 192.023 227.712 193.544 228.195 194.627C228.741 195.85 230.909 197.773 231.084 197.926C229.985 199.165 228.968 200.485 228.044 201.862C227.502 202.663 226.979 203.487 226.468 204.316L226.84 203.484C227.297 201.964 227.291 198.754 225.831 197.742C224.86 197.106 223.555 197.386 222.921 198.36L222.812 198.555C222.21 199.655 222.522 201.173 223.005 202.256C223.487 203.34 225.314 205.035 225.8 205.468L225.214 206.434C224.297 207.977 223.379 209.52 222.436 211.006C222.099 211.529 221.756 212.034 221.412 212.539L221.732 211.823C222.191 210.297 222.179 207.084 220.719 206.073C219.748 205.437 218.443 205.716 217.809 206.69C217.772 206.755 217.736 206.82 217.699 206.885C217.095 207.991 217.41 209.503 217.896 210.595C218.382 211.688 220.023 213.203 220.603 213.722C220.236 214.231 219.868 214.74 219.487 215.213C219.217 215.537 218.984 215.861 218.702 216.164C218.419 216.467 218.149 216.774 217.881 217.076C217.335 217.638 216.778 218.224 216.237 218.759C215.864 219.132 215.493 219.484 215.128 219.838C215.465 219.316 216.106 218.293 216.147 218.2C216.698 216.915 216.919 215.511 216.773 214.119C216.836 213.977 216.893 213.833 216.932 213.679C217.274 212.567 216.648 211.389 215.539 211.046C215.466 211.028 215.396 211.004 215.32 210.992C213.565 210.707 211.345 213.019 210.624 214.436C210.586 214.522 210.219 215.476 210.001 216.081C210.078 215.709 210.153 215.342 210.224 214.952C210.367 214.187 210.491 213.413 210.624 212.584C210.68 212.179 210.729 211.772 210.784 211.367C210.839 210.962 210.86 210.52 210.896 210.092C210.965 209.109 210.986 208.103 210.988 207.089C211.669 207.218 214.047 207.627 215.202 207.354C216.357 207.081 217.749 206.41 218.249 205.258C218.753 204.211 218.314 202.946 217.27 202.44C217.202 202.41 217.135 202.38 217.065 202.355C215.375 201.81 212.825 203.752 211.9 205.047C211.862 205.134 211.28 206.124 210.98 206.678C210.979 206.07 210.977 205.462 210.948 204.849C210.879 203.07 210.757 201.275 210.636 199.48L210.536 197.836C210.773 197.883 213.603 198.437 214.899 198.131C216.054 197.858 217.442 197.178 217.948 196.028C218.434 194.973 217.974 193.722 216.916 193.231C216.777 193.161 216.622 193.114 216.467 193.081C214.777 192.536 212.233 194.481 211.305 195.767C211.255 195.878 210.433 197.308 210.244 197.683C210.174 196.481 210.114 195.277 210.106 194.088C210.08 192.477 210.168 190.873 210.357 189.276C210.456 189.321 213.411 189.909 214.742 189.573C215.897 189.3 217.288 188.629 217.788 187.476C218.286 186.426 217.844 185.169 216.8 184.662C216.732 184.632 216.665 184.602 216.595 184.577C214.905 184.032 212.361 185.977 211.439 187.266C211.398 187.359 210.759 188.442 210.477 188.974L210.391 188.936C210.616 187.341 210.984 185.773 211.489 184.244C211.763 183.398 212.067 182.601 212.378 181.837C212.916 182.005 215.386 182.738 216.613 182.585C217.839 182.433 219.244 181.932 219.87 180.843C220.482 179.852 220.18 178.545 219.192 177.931C219.13 177.889 219.071 177.854 219.004 177.824C217.381 177.095 214.641 178.752 213.578 179.926C213.543 180.006 213.006 180.713 212.639 181.237L213.093 180.219C213.644 178.985 214.225 177.899 214.748 176.942C215.051 176.396 215.328 175.906 215.602 175.459C216.215 175.342 218.681 174.859 219.677 174.166C220.673 173.473 221.711 172.369 221.776 171.117C221.871 169.96 221.017 168.947 219.867 168.845C219.782 168.837 219.707 168.84 219.626 168.84C217.855 168.94 216.152 171.663 215.775 173.22C215.72 173.343 215.44 175.476 215.495 175.501C215.221 175.933 214.939 176.399 214.644 176.91C214.103 177.86 213.494 178.941 212.913 180.161C212.697 180.612 212.487 181.066 212.283 181.522C211.901 182.394 211.547 183.287 211.233 184.19C210.68 185.726 210.271 187.305 210.001 188.917L209.976 188.972C209.906 188.452 209.646 187.017 209.612 186.913C209.155 185.39 207.384 182.712 205.6 182.673C204.437 182.684 203.509 183.637 203.52 184.804C203.517 184.877 203.52 184.953 203.532 185.025C203.689 186.228 204.77 187.344 205.771 187.979C206.921 188.711 209.765 189.1 209.993 189.136C209.761 190.78 209.635 192.434 209.624 194.095C209.611 195.067 209.628 196.037 209.655 197.019C209.582 196.572 209.501 196.172 209.487 196.122C209.031 194.599 207.256 191.927 205.473 191.889C204.31 191.899 203.376 192.85 203.389 194.011C203.39 194.092 203.393 194.168 203.402 194.246C203.507 195.5 204.577 196.573 205.6 197.225C206.623 197.878 209.054 198.267 209.711 198.333C209.727 198.71 209.737 199.085 209.756 199.456C209.832 201.253 209.923 203.049 209.95 204.809C209.964 205.438 209.951 206.046 209.944 206.658C209.87 206.262 209.811 205.931 209.808 205.856C209.351 204.332 207.577 201.661 205.793 201.622C204.635 201.621 203.698 202.562 203.703 203.727C203.704 203.823 203.705 203.921 203.721 204.017C203.826 205.271 204.893 206.35 205.919 206.996C206.944 207.642 209.157 208.007 209.901 208.112C209.873 208.736 209.842 209.367 209.805 209.979C209.759 210.396 209.743 210.796 209.67 211.207C209.597 211.619 209.551 212.02 209.49 212.422C209.345 213.194 209.203 213.989 209.042 214.732C208.934 215.254 208.823 215.752 208.714 216.243C208.709 215.626 208.679 214.421 208.666 214.318C208.441 212.736 207.089 209.832 205.342 209.529C204.193 209.376 203.136 210.189 202.983 211.342C202.974 211.412 202.968 211.476 202.964 211.549C202.879 212.799 203.8 214.042 204.689 214.827C205.673 215.684 208.333 216.502 208.66 216.612C208.472 217.431 208.283 218.235 208.095 218.987C207.442 221.589 206.798 223.728 206.331 225.222C206.275 225.412 206.217 225.593 206.16 225.753L207.228 226.255C207.307 226.046 207.354 225.808 207.433 225.547C207.875 224.028 208.472 221.845 209.075 219.205C209.272 218.368 209.457 217.474 209.647 216.552C210.541 216.583 211.433 216.569 212.325 216.504C212.753 217.777 214.403 219.785 214.619 220.045C214.014 220.625 213.417 221.186 212.845 221.706C210.869 223.521 209.178 224.961 207.944 225.94C207.755 226.084 207.583 226.221 207.428 226.352L208.671 226.94C208.694 226.921 208.718 226.902 208.741 226.883C209.937 225.858 211.647 224.375 213.603 222.506C214.22 221.917 214.886 221.283 215.536 220.605C215.813 220.811 218.077 222.436 219.354 222.699C220.519 222.933 222.058 222.907 223 222.071C223.891 221.331 224.022 219.997 223.278 219.1C223.236 219.045 223.18 218.99 223.129 218.937C221.824 217.729 218.7 218.428 217.319 219.207C217.237 219.258 216.409 219.856 215.892 220.239C216.16 219.967 216.413 219.732 216.698 219.424C217.244 218.862 217.768 218.282 218.339 217.665C218.601 217.361 218.87 217.052 219.138 216.735C219.405 216.418 219.661 216.075 219.928 215.742C220.531 214.954 221.104 214.131 221.66 213.284C222.15 213.756 223.912 215.429 225.03 215.835C226.148 216.242 227.698 216.472 228.742 215.786C229.742 215.199 230.08 213.914 229.494 212.91C229.455 212.848 229.417 212.786 229.371 212.722C228.266 211.329 225.076 211.532 223.593 212.109C223.498 212.141 222.483 212.662 221.929 212.961C222.26 212.451 222.589 211.946 222.907 211.415C223.828 209.896 224.714 208.325 225.595 206.765C225.87 206.281 226.145 205.813 226.423 205.338C226.59 205.509 228.645 207.536 229.901 207.996C231.009 208.406 232.572 208.626 233.613 207.947C234.616 207.354 234.95 206.06 234.359 205.053C234.326 204.994 234.287 204.932 234.245 204.876C233.131 203.487 229.95 203.686 228.461 204.261C228.345 204.306 226.896 205.039 226.532 205.276C227.139 204.23 227.749 203.193 228.4 202.198C229.265 200.839 230.223 199.536 231.256 198.297C231.338 198.379 233.472 200.508 234.752 200.98C235.864 201.383 237.392 201.596 238.467 200.924C239.463 200.328 239.785 199.028 239.188 198.034C239.152 197.966 239.113 197.904 239.066 197.846C237.961 196.453 234.771 196.656 233.281 197.231C233.183 197.268 232.071 197.842 231.544 198.131L231.483 198.052C232.554 196.844 233.727 195.736 235 194.737C235.691 194.181 236.384 193.686 237.067 193.215C237.423 193.656 239.078 195.637 240.171 196.18C241.265 196.723 242.721 197.082 243.849 196.522C244.905 196.042 245.364 194.797 244.891 193.74C244.855 193.672 244.819 193.603 244.783 193.536C243.833 192.027 240.64 191.889 239.104 192.287C239.021 192.308 238.215 192.628 237.597 192.854C237.911 192.646 238.228 192.433 238.533 192.245C239.666 191.524 240.751 190.931 241.709 190.421C242.267 190.131 242.769 189.882 243.249 189.632C243.821 189.889 246.143 190.837 247.357 190.812C248.571 190.787 250.042 190.434 250.795 189.394C251.5 188.477 251.339 187.152 250.428 186.432Z" fill="#55B45C"/>
<path opacity="0.3" d="M236.955 192.825C236.955 192.825 238.316 191.164 238.39 191.048C239.228 189.699 240.059 186.615 238.918 185.235C238.15 184.367 236.826 184.287 235.961 185.057C235.902 185.109 235.847 185.165 235.794 185.224C234.927 186.123 234.828 187.67 235.013 188.842C235.222 190.225 236.949 192.822 236.955 192.825Z" fill="#55B45C"/>
<path opacity="0.3" d="M208.472 179.275C209.408 180.303 212.281 181.52 212.281 181.52C212.281 181.52 212.492 179.394 212.501 179.242C212.472 177.652 211.457 174.603 209.756 174.098C208.63 173.801 207.477 174.476 207.181 175.606C207.163 175.675 207.148 175.745 207.137 175.817C206.91 177.054 207.678 178.392 208.472 179.275Z" fill="#55B45C"/>
<path d="M73.5936 192.375C73.5936 192.375 73.3927 190.38 73.3649 190.256C73.0264 188.813 71.5384 186.236 69.8801 186.088C68.8035 186.027 67.8815 186.854 67.8215 187.934C67.8176 188.007 67.8176 188.081 67.8215 188.154C67.8453 189.319 68.7996 190.402 69.6938 191.048C70.7421 191.817 73.5879 192.377 73.5936 192.375Z" fill="#55B45C"/>
<path d="M78.2263 179.234C78.1572 179.247 78.0888 179.26 78.0197 179.273C76.4219 179.702 75.411 182.517 75.334 183.998C75.3301 184.128 75.4801 186.13 75.4801 186.13L75.5095 186.118C75.3488 186.558 75.188 187.033 75.0018 187.564C74.7007 188.531 74.3384 189.636 74.0407 190.859C73.7 192.179 73.4459 193.512 73.263 194.859C73.0542 196.364 72.9795 197.886 73.0372 199.403L72.3574 197.633C71.6556 196.332 69.5297 194.231 67.9047 194.535C66.848 194.762 66.1767 195.798 66.402 196.859C66.415 196.928 66.4365 197.001 66.4575 197.073C66.7874 198.195 67.9981 198.982 69.0294 199.373C70.1942 199.813 72.8844 199.636 73.1006 199.62C73.1957 201.163 73.3978 202.705 73.6983 204.223C73.8704 205.108 74.0702 205.996 74.2818 206.88L73.9773 206.086C73.2755 204.785 71.1558 202.682 69.5303 202.986C68.4736 203.213 67.8006 204.263 68.0264 205.323L68.0836 205.524C68.4136 206.645 69.6186 207.435 70.6498 207.826C71.6811 208.216 73.9977 208.117 74.6022 208.079L74.8541 209.102C75.2684 210.725 75.6833 212.346 76.0432 213.949C76.1666 214.515 76.2742 215.075 76.3811 215.634L76.1191 214.953C75.415 213.645 73.2896 211.545 71.6641 211.849C70.6074 212.076 69.9344 213.126 70.1602 214.187C70.1795 214.254 70.1982 214.321 70.2174 214.388C70.5496 215.515 71.7524 216.298 72.7916 216.693C73.8313 217.087 75.9074 216.993 76.6307 216.95C76.7253 217.528 76.8192 218.106 76.8809 218.669C76.9171 219.061 76.9777 219.429 76.9913 219.815C77.0049 220.201 77.0309 220.583 77.0541 220.959C77.066 221.69 77.0869 222.445 77.0835 223.155C77.0847 223.648 77.0728 224.125 77.0666 224.6C76.9432 224.033 76.6896 222.936 76.6562 222.848C76.1712 221.638 75.3906 220.57 74.3775 219.753C74.3254 219.618 74.2677 219.485 74.1924 219.359C73.683 218.401 72.4961 218.043 71.5424 218.554C71.4824 218.591 71.4201 218.622 71.363 218.665C70.0227 219.642 70.0895 222.634 70.5496 224.043C70.5813 224.125 70.969 224.995 71.2243 225.537C71.0296 225.242 70.8377 224.951 70.6266 224.648C70.2157 224.051 69.7872 223.46 69.3288 222.828C69.0984 222.525 68.8618 222.225 68.6315 221.923C68.4011 221.621 68.1226 221.316 67.864 221.011C67.2617 220.319 66.6125 219.645 65.9464 218.978C66.4778 218.611 68.3094 217.301 68.8873 216.355C69.4657 215.409 69.9372 214.045 69.5059 212.956C69.1471 211.934 68.0253 211.396 67.0065 211.756C66.942 211.781 66.8774 211.806 66.8152 211.837C65.3464 212.601 64.9525 215.569 65.1987 217.033C65.2304 217.115 65.5004 218.152 65.6696 218.714C65.2677 218.316 64.8659 217.918 64.4431 217.535C63.225 216.413 61.9623 215.315 60.6995 214.217L59.55 213.203C59.7368 213.077 61.96 211.562 62.6087 210.501C63.1871 209.555 63.6507 208.187 63.225 207.096C62.8481 206.081 61.7217 205.565 60.7041 205.945C60.5671 205.991 60.4335 206.063 60.3101 206.145C58.8408 206.909 58.4531 209.874 58.6914 211.335C58.7321 211.441 59.134 212.926 59.2568 213.297C58.4197 212.554 57.5865 211.803 56.7975 211.028C55.7182 209.987 54.7192 208.875 53.7909 207.702C53.8849 207.665 56.2123 206.09 56.8649 204.987C57.4433 204.04 57.9148 202.677 57.4835 201.588C57.1185 200.568 55.9989 200.035 54.9801 200.396C54.9156 200.421 54.8511 200.445 54.7894 200.476C53.32 201.24 52.9323 204.206 53.1763 205.664C53.2102 205.752 53.5051 206.887 53.671 207.424L53.5889 207.456C52.685 206.26 51.8931 204.986 51.2173 203.647C50.8393 202.909 50.5138 202.184 50.215 201.476C50.6785 201.229 52.7829 200.071 53.4881 199.157C54.1934 198.243 54.7848 196.981 54.4786 195.85C54.2273 194.793 53.1678 194.137 52.1139 194.389C52.0448 194.402 51.9843 194.419 51.9197 194.444C50.3734 195.042 49.6671 197.949 49.7429 199.425C49.7723 199.501 49.8855 200.322 49.9903 200.909L49.6178 199.939C49.1662 198.764 48.8317 197.665 48.5441 196.689C48.3834 196.13 48.2424 195.624 48.1275 195.149C48.453 194.665 49.7537 192.71 49.9506 191.594C50.1476 190.478 50.1023 189.064 49.319 188.199C48.6194 187.376 47.3906 187.278 46.5682 187.974C46.5071 188.024 46.4595 188.077 46.4063 188.131C45.3089 189.372 45.9858 192.29 46.7641 193.562C46.8093 193.679 48.0308 195.266 48.0834 195.245C48.1881 195.711 48.3104 196.204 48.4541 196.736C48.7241 197.719 49.0377 198.832 49.4599 200.02C49.615 200.459 49.7763 200.896 49.9438 201.331C50.2682 202.157 50.6236 202.979 51.0124 203.78C51.6622 205.156 52.4337 206.464 53.3195 207.701L53.3398 207.754C52.9504 207.459 51.8343 206.689 51.7426 206.644C50.4385 205.946 47.5106 205.364 46.3141 206.523C45.5573 207.301 45.5766 208.543 46.3526 209.302C46.3984 209.352 46.4505 209.399 46.506 209.439C47.4019 210.125 48.8475 210.14 49.9229 209.892C51.1596 209.61 53.2844 207.978 53.457 207.85C54.3881 209.083 55.3961 210.253 56.484 211.351C57.1156 211.997 57.7665 212.623 58.4316 213.251C58.0886 213.006 57.7728 212.797 57.7297 212.773C56.4257 212.076 53.5 211.5 52.3035 212.658C51.5468 213.437 51.5603 214.681 52.3341 215.434C52.3884 215.488 52.4399 215.535 52.4976 215.58C53.393 216.335 54.8035 216.329 55.905 216.079C57.0064 215.828 58.8589 214.47 59.3338 214.077C59.593 214.314 59.8466 214.553 60.1035 214.785C61.338 215.914 62.5821 217.033 63.7588 218.171C64.1827 218.574 64.5749 218.983 64.9734 219.389C64.6638 219.178 64.4068 219 64.3553 218.953C63.0513 218.256 60.1256 217.68 58.9291 218.838C58.1678 219.605 58.1729 220.845 58.9432 221.607C59.0078 221.67 59.0723 221.732 59.1464 221.785C60.0413 222.539 61.4546 222.539 62.5532 222.283C63.6524 222.027 65.3464 220.797 65.9028 220.373C66.2961 220.801 66.6918 221.235 67.071 221.663C67.3155 221.966 67.5685 222.24 67.7921 222.558C68.0157 222.877 68.2494 223.171 68.4741 223.476C68.8873 224.079 69.3192 224.695 69.7023 225.289C69.9757 225.703 70.231 226.104 70.4834 226.499C70.0736 226.098 69.2592 225.326 69.1828 225.267C67.993 224.377 65.1907 223.368 63.8437 224.328C62.9879 224.99 62.8305 226.226 63.4899 227.085C63.5301 227.136 63.568 227.183 63.6139 227.232C64.3814 228.11 65.806 228.315 66.9074 228.24C68.1175 228.15 70.4036 226.921 70.6911 226.776C71.1072 227.439 71.513 228.092 71.8854 228.711C73.1725 230.853 74.159 232.685 74.8365 233.976C74.9254 234.138 75.0063 234.295 75.0742 234.438L76.1061 234.059C76.02 233.87 75.8938 233.682 75.7744 233.458C75.0629 232.167 74.017 230.337 72.6727 228.204C72.2499 227.524 71.7818 226.814 71.299 226.082C71.9063 225.51 72.4831 224.909 73.0259 224.273C74.146 224.825 76.5532 225.048 76.8662 225.076C76.8504 225.859 76.8283 226.623 76.796 227.345C76.6947 229.848 76.534 231.916 76.3687 233.377C76.3393 233.598 76.3166 233.802 76.3013 233.99L77.5052 233.552C77.508 233.524 77.5109 233.496 77.5131 233.468C77.6224 232.001 77.7678 229.892 77.8199 227.368C77.8369 226.571 77.8567 225.712 77.8363 224.836C78.1539 224.787 80.711 224.351 81.7236 223.676C82.6428 223.057 83.6361 222.018 83.7035 220.844C83.8008 219.767 83.0073 218.804 81.9279 218.709C81.864 218.7 81.7904 218.702 81.723 218.7C80.0692 218.773 78.4787 221.306 78.0859 222.734C78.0661 222.822 77.9167 223.765 77.829 224.359C77.8261 224.002 77.8375 223.681 77.821 223.288C77.8092 222.557 77.7718 221.829 77.7395 221.045C77.7101 220.671 77.6846 220.289 77.6512 219.904C77.6178 219.519 77.5596 219.122 77.5154 218.728C77.3915 217.81 77.2262 216.889 77.032 215.964C77.6654 215.949 79.9254 215.878 80.9267 215.403C81.9279 214.927 83.0979 214.05 83.3311 212.906C83.6005 211.856 82.975 210.788 81.9296 210.518C81.8634 210.503 81.7972 210.488 81.7247 210.476C80.0811 210.295 78.1199 212.546 77.5273 213.909C77.4854 213.992 77.1628 215.008 76.9958 215.572C76.877 215.018 76.7604 214.469 76.6189 213.909C76.2227 212.3 75.7687 210.68 75.3188 209.072C75.1807 208.572 75.0527 208.081 74.9226 207.585C75.145 207.586 77.8301 207.553 78.9581 207.022C79.956 206.555 81.1271 205.663 81.3631 204.526C81.6302 203.471 80.9969 202.399 79.9452 202.131C79.8847 202.114 79.8185 202.1 79.7545 202.09C78.1074 201.918 76.1496 204.16 75.5514 205.526C75.5044 205.632 75.0363 207.076 74.9537 207.472C74.6628 206.383 74.3803 205.297 74.1517 204.211C73.8239 202.745 73.5942 201.254 73.4555 199.755C73.5625 199.754 76.3676 199.736 77.5194 199.195C78.515 198.722 79.6588 197.847 79.9215 196.693C80.183 195.64 79.5377 194.573 78.4906 194.316C78.4221 194.296 78.3559 194.28 78.2857 194.274C76.6421 194.093 74.6809 196.343 74.082 197.709C74.0424 197.799 73.6904 198.914 73.5347 199.454L73.443 199.442C73.3496 197.938 73.3898 196.431 73.567 194.931C73.6542 194.108 73.7832 193.322 73.9207 192.56C74.446 192.613 76.8379 192.816 77.9139 192.446C78.9898 192.077 80.1818 191.346 80.5543 190.23C80.9307 189.213 80.4122 188.091 79.4047 187.711C79.3362 187.69 79.2677 187.669 79.1992 187.648C77.5811 187.289 75.3935 189.317 74.6475 190.598C74.6067 190.667 74.2875 191.412 74.0311 191.97C74.1007 191.626 74.1681 191.276 74.2445 190.949C74.5139 189.725 74.8343 188.615 75.1274 187.644C75.3023 187.083 75.4682 186.587 75.6187 186.104C76.1632 185.893 78.3129 184.973 79.0934 184.151C79.8739 183.329 80.6075 182.121 80.4162 180.939C80.2781 179.864 79.2989 179.102 78.2263 179.234Z" fill="#55B45C"/>
<path d="M45.9609 202.384C47.2531 202.437 49.9421 201.329 49.9421 201.329C49.9421 201.329 48.6788 199.793 48.5849 199.687C47.518 198.662 44.8419 197.335 43.3924 198.131C42.4568 198.684 42.1449 199.892 42.6951 200.831C42.729 200.889 42.7658 200.944 42.8054 200.998C43.4716 201.963 44.8578 202.331 45.9609 202.384Z" fill="#55B45C"/>
<path opacity="0.5" d="M78.2263 179.234C78.1572 179.247 78.0888 179.26 78.0197 179.273C76.4219 179.702 75.411 182.517 75.334 183.998C75.3301 184.128 75.4801 186.13 75.4801 186.13L75.5095 186.118C75.3488 186.558 75.188 187.033 75.0018 187.564C74.7007 188.531 74.3384 189.636 74.0407 190.859C73.7 192.179 73.4459 193.512 73.263 194.859C73.0542 196.364 72.9795 197.886 73.0372 199.403L72.3574 197.633C71.6556 196.332 69.5297 194.231 67.9047 194.535C66.848 194.762 66.1767 195.798 66.402 196.859C66.415 196.928 66.4365 197.001 66.4575 197.073C66.7874 198.195 67.9981 198.982 69.0294 199.373C70.1942 199.813 72.8844 199.636 73.1006 199.62C73.1957 201.163 73.3978 202.705 73.6983 204.223C73.8704 205.108 74.0702 205.996 74.2818 206.88L73.9773 206.086C73.2755 204.785 71.1558 202.682 69.5303 202.986C68.4736 203.213 67.8006 204.263 68.0264 205.323L68.0836 205.524C68.4136 206.645 69.6186 207.435 70.6498 207.826C71.6811 208.216 73.9977 208.117 74.6022 208.079L74.8541 209.102C75.2684 210.725 75.6833 212.346 76.0432 213.949C76.1666 214.515 76.2742 215.075 76.3811 215.634L76.1191 214.953C75.415 213.645 73.2896 211.545 71.6641 211.849C70.6074 212.076 69.9344 213.126 70.1602 214.187C70.1795 214.254 70.1982 214.321 70.2174 214.388C70.5496 215.515 71.7524 216.298 72.7916 216.693C73.8313 217.087 75.9074 216.993 76.6307 216.95C76.7253 217.528 76.8192 218.106 76.8809 218.669C76.9171 219.061 76.9777 219.429 76.9913 219.815C77.0049 220.201 77.0309 220.583 77.0541 220.959C77.066 221.69 77.0869 222.445 77.0835 223.155C77.0847 223.648 77.0728 224.125 77.0666 224.6C76.9432 224.033 76.6896 222.936 76.6562 222.848C76.1712 221.638 75.3906 220.57 74.3775 219.753C74.3254 219.618 74.2677 219.485 74.1924 219.359C73.683 218.401 72.4961 218.043 71.5424 218.554C71.4824 218.591 71.4201 218.622 71.363 218.665C70.0227 219.642 70.0895 222.634 70.5496 224.043C70.5813 224.125 70.969 224.995 71.2243 225.537C71.0296 225.242 70.8377 224.951 70.6266 224.648C70.2157 224.051 69.7872 223.46 69.3288 222.828C69.0984 222.525 68.8618 222.225 68.6315 221.923C68.4011 221.621 68.1226 221.316 67.864 221.011C67.2617 220.319 66.6125 219.645 65.9464 218.978C66.4778 218.611 68.3094 217.301 68.8873 216.355C69.4657 215.409 69.9372 214.045 69.5059 212.956C69.1471 211.934 68.0253 211.396 67.0065 211.756C66.942 211.781 66.8774 211.806 66.8152 211.837C65.3464 212.601 64.9525 215.569 65.1987 217.033C65.2304 217.115 65.5004 218.152 65.6696 218.714C65.2677 218.316 64.8659 217.918 64.4431 217.535C63.225 216.413 61.9623 215.315 60.6995 214.217L59.55 213.203C59.7368 213.077 61.96 211.562 62.6087 210.501C63.1871 209.555 63.6507 208.187 63.225 207.096C62.8481 206.081 61.7217 205.565 60.7041 205.945C60.5671 205.991 60.4335 206.063 60.3101 206.145C58.8408 206.909 58.4531 209.874 58.6914 211.335C58.7321 211.441 59.134 212.926 59.2568 213.297C58.4197 212.554 57.5865 211.803 56.7975 211.028C55.7182 209.987 54.7192 208.875 53.7909 207.702C53.8849 207.665 56.2123 206.09 56.8649 204.987C57.4433 204.04 57.9148 202.677 57.4835 201.588C57.1185 200.568 55.9989 200.035 54.9801 200.396C54.9156 200.421 54.8511 200.445 54.7894 200.476C53.32 201.24 52.9323 204.206 53.1763 205.664C53.2102 205.752 53.5051 206.887 53.671 207.424L53.5889 207.456C52.685 206.26 51.8931 204.986 51.2173 203.647C50.8393 202.909 50.5138 202.184 50.215 201.476C50.6785 201.229 52.7829 200.071 53.4881 199.157C54.1934 198.243 54.7848 196.981 54.4786 195.85C54.2273 194.793 53.1678 194.137 52.1139 194.389C52.0448 194.402 51.9843 194.419 51.9197 194.444C50.3734 195.042 49.6671 197.949 49.7429 199.425C49.7723 199.501 49.8855 200.322 49.9903 200.909L49.6178 199.939C49.1662 198.764 48.8317 197.665 48.5441 196.689C48.3834 196.13 48.2424 195.624 48.1275 195.149C48.453 194.665 49.7537 192.71 49.9506 191.594C50.1476 190.478 50.1023 189.064 49.319 188.199C48.6194 187.376 47.3906 187.278 46.5682 187.974C46.5071 188.024 46.4595 188.077 46.4063 188.131C45.3089 189.372 45.9858 192.29 46.7641 193.562C46.8093 193.679 48.0308 195.266 48.0834 195.245C48.1881 195.711 48.3104 196.204 48.4541 196.736C48.7241 197.719 49.0377 198.832 49.4599 200.02C49.615 200.459 49.7763 200.896 49.9438 201.331C50.2682 202.157 50.6236 202.979 51.0124 203.78C51.6622 205.156 52.4337 206.464 53.3195 207.701L53.3398 207.754C52.9504 207.459 51.8343 206.689 51.7426 206.644C50.4385 205.946 47.5106 205.364 46.3141 206.523C45.5573 207.301 45.5766 208.543 46.3526 209.302C46.3984 209.352 46.4505 209.399 46.506 209.439C47.4019 210.125 48.8475 210.14 49.9229 209.892C51.1596 209.61 53.2844 207.978 53.457 207.85C54.3881 209.083 55.3961 210.253 56.484 211.351C57.1156 211.997 57.7665 212.623 58.4316 213.251C58.0886 213.006 57.7728 212.797 57.7297 212.773C56.4257 212.076 53.5 211.5 52.3035 212.658C51.5468 213.437 51.5603 214.681 52.3341 215.434C52.3884 215.488 52.4399 215.535 52.4976 215.58C53.393 216.335 54.8035 216.329 55.905 216.079C57.0064 215.828 58.8589 214.47 59.3338 214.077C59.593 214.314 59.8466 214.553 60.1035 214.785C61.338 215.914 62.5821 217.033 63.7588 218.171C64.1827 218.574 64.5749 218.983 64.9734 219.389C64.6638 219.178 64.4068 219 64.3553 218.953C63.0513 218.256 60.1256 217.68 58.9291 218.838C58.1678 219.605 58.1729 220.845 58.9432 221.607C59.0078 221.67 59.0723 221.732 59.1464 221.785C60.0413 222.539 61.4546 222.539 62.5532 222.283C63.6524 222.027 65.3464 220.797 65.9028 220.373C66.2961 220.801 66.6918 221.235 67.071 221.663C67.3155 221.966 67.5685 222.24 67.7921 222.558C68.0157 222.877 68.2494 223.171 68.4741 223.476C68.8873 224.079 69.3192 224.695 69.7023 225.289C69.9757 225.703 70.231 226.104 70.4834 226.499C70.0736 226.098 69.2592 225.326 69.1828 225.267C67.993 224.377 65.1907 223.368 63.8437 224.328C62.9879 224.99 62.8305 226.226 63.4899 227.085C63.5301 227.136 63.568 227.183 63.6139 227.232C64.3814 228.11 65.806 228.315 66.9074 228.24C68.1175 228.15 70.4036 226.921 70.6911 226.776C71.1072 227.439 71.513 228.092 71.8854 228.711C73.1725 230.853 74.159 232.685 74.8365 233.976C74.9254 234.138 75.0063 234.295 75.0742 234.438L76.1061 234.059C76.02 233.87 75.8938 233.682 75.7744 233.458C75.0629 232.167 74.017 230.337 72.6727 228.204C72.2499 227.524 71.7818 226.814 71.299 226.082C71.9063 225.51 72.4831 224.909 73.0259 224.273C74.146 224.825 76.5532 225.048 76.8662 225.076C76.8504 225.859 76.8283 226.623 76.796 227.345C76.6947 229.848 76.534 231.916 76.3687 233.377C76.3393 233.598 76.3166 233.802 76.3013 233.99L77.5052 233.552C77.508 233.524 77.5109 233.496 77.5131 233.468C77.6224 232.001 77.7678 229.892 77.8199 227.368C77.8369 226.571 77.8567 225.712 77.8363 224.836C78.1539 224.787 80.711 224.351 81.7236 223.676C82.6428 223.057 83.6361 222.018 83.7035 220.844C83.8008 219.767 83.0073 218.804 81.9279 218.709C81.864 218.7 81.7904 218.702 81.723 218.7C80.0692 218.773 78.4787 221.306 78.0859 222.734C78.0661 222.822 77.9167 223.765 77.829 224.359C77.8261 224.002 77.8375 223.681 77.821 223.288C77.8092 222.557 77.7718 221.829 77.7395 221.045C77.7101 220.671 77.6846 220.289 77.6512 219.904C77.6178 219.519 77.5596 219.122 77.5154 218.728C77.3915 217.81 77.2262 216.889 77.032 215.964C77.6654 215.949 79.9254 215.878 80.9267 215.403C81.9279 214.927 83.0979 214.05 83.3311 212.906C83.6005 211.856 82.975 210.788 81.9296 210.518C81.8634 210.503 81.7972 210.488 81.7247 210.476C80.0811 210.295 78.1199 212.546 77.5273 213.909C77.4854 213.992 77.1628 215.008 76.9958 215.572C76.877 215.018 76.7604 214.469 76.6189 213.909C76.2227 212.3 75.7687 210.68 75.3188 209.072C75.1807 208.572 75.0527 208.081 74.9226 207.585C75.145 207.586 77.8301 207.553 78.9581 207.022C79.956 206.555 81.1271 205.663 81.3631 204.526C81.6302 203.471 80.9969 202.399 79.9452 202.131C79.8847 202.114 79.8185 202.1 79.7545 202.09C78.1074 201.918 76.1496 204.16 75.5514 205.526C75.5044 205.632 75.0363 207.076 74.9537 207.472C74.6628 206.383 74.3803 205.297 74.1517 204.211C73.8239 202.745 73.5942 201.254 73.4555 199.755C73.5625 199.754 76.3676 199.736 77.5194 199.195C78.515 198.722 79.6588 197.847 79.9215 196.693C80.183 195.64 79.5377 194.573 78.4906 194.316C78.4221 194.296 78.3559 194.28 78.2857 194.274C76.6421 194.093 74.6809 196.343 74.082 197.709C74.0424 197.799 73.6904 198.914 73.5347 199.454L73.443 199.442C73.3496 197.938 73.3898 196.431 73.567 194.931C73.6542 194.108 73.7832 193.322 73.9207 192.56C74.446 192.613 76.8379 192.816 77.9139 192.446C78.9898 192.077 80.1818 191.346 80.5543 190.23C80.9307 189.213 80.4122 188.091 79.4047 187.711C79.3362 187.69 79.2677 187.669 79.1992 187.648C77.5811 187.289 75.3935 189.317 74.6475 190.598C74.6067 190.667 74.2875 191.412 74.0311 191.97C74.1007 191.626 74.1681 191.276 74.2445 190.949C74.5139 189.725 74.8343 188.615 75.1274 187.644C75.3023 187.083 75.4682 186.587 75.6187 186.104C76.1632 185.893 78.3129 184.973 79.0934 184.151C79.8739 183.329 80.6075 182.121 80.4162 180.939C80.2781 179.864 79.2989 179.102 78.2263 179.234Z" fill="#55B45C"/>
<path opacity="0.3" d="M73.5936 192.375C73.5936 192.375 73.3927 190.38 73.3649 190.256C73.0264 188.813 71.5384 186.236 69.8801 186.088C68.8035 186.027 67.8815 186.854 67.8215 187.934C67.8176 188.007 67.8176 188.081 67.8215 188.154C67.8453 189.319 68.7996 190.402 69.6938 191.048C70.7421 191.817 73.5879 192.377 73.5936 192.375Z" fill="#55B45C"/>
<path opacity="0.3" d="M45.9609 202.384C47.2531 202.437 49.9421 201.329 49.9421 201.329C49.9421 201.329 48.6788 199.793 48.5849 199.687C47.518 198.662 44.8419 197.335 43.3924 198.131C42.4568 198.684 42.1449 199.892 42.6951 200.831C42.729 200.889 42.7658 200.944 42.8054 200.998C43.4716 201.963 44.8578 202.331 45.9609 202.384Z" fill="#55B45C"/>
<path d="M141.5 247.482C195.302 247.482 238.918 241.641 238.918 234.436C238.918 227.231 195.302 221.391 141.5 221.391C87.6977 221.391 44.0823 227.231 44.0823 234.436C44.0823 241.641 87.6977 247.482 141.5 247.482Z" fill="#55B45C"/>
<path opacity="0.5" d="M141.5 247.482C195.302 247.482 238.918 241.641 238.918 234.436C238.918 227.231 195.302 221.391 141.5 221.391C87.6977 221.391 44.0823 227.231 44.0823 234.436C44.0823 241.641 87.6977 247.482 141.5 247.482Z" fill="white"/>
<path d="M253.849 111.102C253.849 111.102 250.386 127.097 245.843 134.671L240.651 132.835L238.073 135.003L227.096 144.257C227.096 144.257 210.489 138.702 207.403 133.276C204.318 127.849 208.598 120.702 208.598 120.702L219.44 94.5175L219.534 94.4635L224.193 91.9706C224.193 91.9706 225.037 91.8621 226.312 91.774C226.751 91.7399 227.244 91.7133 227.77 91.6928C230.369 91.5843 233.799 91.6519 236.033 92.4988C240.043 94.0165 243.344 93.4542 243.344 93.4542C243.344 93.4542 247.989 99.7005 250.872 104.05C253.762 108.406 253.849 111.102 253.849 111.102Z" fill="#55B45C"/>
<path d="M193.133 161.353C193.133 161.353 189.399 171.264 188.81 177.167C188.222 183.069 195.475 193.102 195.475 193.102C195.475 193.102 191.966 199.398 193.133 201.365C194.299 203.332 197.691 198.413 199.328 191.921C200.965 185.429 198.024 176.576 198.024 176.576C198.024 176.576 202.823 169.756 203.07 166.772C203.318 163.789 193.133 161.353 193.133 161.353Z" fill="white"/>
<path d="M193.206 161.353C193.206 161.353 189.409 171.264 188.811 177.167C188.214 183.069 195.588 193.102 195.588 193.102C195.588 193.102 192.02 199.398 193.206 201.365C194.392 203.332 197.841 198.413 199.505 191.921C201.169 185.429 198.179 176.576 198.179 176.576C198.179 176.576 203.057 169.756 203.309 166.772C203.56 163.789 193.206 161.353 193.206 161.353Z" stroke="#263238" stroke-miterlimit="10" stroke-linecap="round" stroke-linejoin="round"/>
<path d="M194.452 194.518C194.452 194.518 193.49 192.748 194.051 192.265C194.613 191.782 196.697 192.989 197.018 193.874C197.339 194.759 198.937 193.336 198.937 193.336L199.86 190.007C199.86 190.007 200.786 192.185 200.866 193.15C200.946 194.116 199.169 195.944 198.942 198.219C198.674 200.896 195.414 203.529 193.49 203.288C191.566 203.046 192.688 197.253 194.452 194.518Z" fill="#263238"/>
<path d="M200.301 192.73C199.205 194.303 198.403 195.898 197.621 197.649C197.138 198.734 196.957 199.939 196.044 200.697C195.191 201.406 194.217 201.823 193.133 202.052" stroke="white" stroke-miterlimit="10" stroke-linecap="round" stroke-linejoin="round"/>
<path opacity="0.1" d="M238.073 135.003L227.096 144.257C227.096 144.257 210.489 138.702 207.403 133.275C204.318 127.848 208.598 120.701 208.598 120.701L219.44 94.5169L219.534 94.4629C221.796 93.8194 224.064 92.5459 226.312 91.7735C226.825 91.5974 227.332 91.4412 227.838 91.3333C227.817 91.4554 227.791 91.5701 227.77 91.6922C225.799 102.532 228.047 114.089 233.941 123.384C235.122 125.247 235.574 127.489 236.486 129.494C237.053 130.747 237.627 132.021 237.897 133.369C238.005 133.905 238.059 134.454 238.073 135.003Z" fill="black"/>
<path d="M237.382 96.6617C237.382 96.6617 237.696 98.8888 240.961 99.3085C244.227 99.7283 246.041 97.2541 246.041 97.2541C246.041 97.2541 245.492 94.5158 246.078 91.4287C246.664 88.3422 247.585 87.4152 247.585 87.4152C247.585 87.4152 251.379 87.4601 251.608 84.4837C251.837 81.5074 248.117 79.8835 246.891 81.1467C245.665 82.4094 244.047 77.8115 244.047 77.8115L239.706 75.2986L236.52 72.4325L234.043 74.8329C234.043 74.8329 233.228 77.6746 233.032 79.0355C232.835 80.3964 231.92 82.8036 231.931 83.9879C231.942 85.1722 232.27 91.7081 233.005 93.7637C233.74 95.8193 235.657 96.3981 236.52 96.2357C237.382 96.0732 237.382 96.6617 237.382 96.6617Z" fill="white"/>
<path d="M203.479 225.474C203.081 223.432 203.415 221.066 204.344 218.579C205.957 214.265 207.403 186.04 211.491 182.803C214.128 180.714 220.647 183.522 220.647 183.522C220.647 183.522 221.005 187.297 220.647 193.41C220.288 199.523 209.191 219.659 209.096 221.456C209.079 221.784 209.323 222.321 209.723 223.001L203.479 225.474Z" fill="white"/>
<path d="M203.479 225.474C203.081 223.432 203.415 221.066 204.344 218.579C205.957 214.265 207.403 186.04 211.491 182.803C214.128 180.714 220.647 183.522 220.647 183.522C220.647 183.522 221.005 187.297 220.647 193.41C220.288 199.523 209.191 219.659 209.096 221.456C209.079 221.784 209.323 222.321 209.723 223.001L203.479 225.474Z" stroke="#263238" stroke-miterlimit="10" stroke-linecap="round" stroke-linejoin="round"/>
<path d="M203.689 220.721C203.689 220.721 202.289 224.982 202.512 227.412C202.735 229.842 204.49 228.516 207.945 232.542C211.399 236.568 214.537 236.965 215.652 236.182C216.766 235.4 216.109 233.367 212.603 227.412C209.096 221.456 210.392 224.067 210.392 224.067C210.392 224.067 211.107 221.582 209.756 221.231C207.797 220.722 206.635 223.58 205.41 223.58C204.184 223.579 203.689 220.721 203.689 220.721Z" fill="#263238"/>
<path d="M202.908 226.24C203.192 226.68 203.585 227.065 204.009 227.372C204.857 227.983 205.846 228.371 206.718 228.947C207.842 229.688 208.74 230.718 209.686 231.677C210.344 232.344 211.032 232.982 211.746 233.588C212.311 234.067 212.906 234.533 213.603 234.779C214.301 235.025 215.124 235.019 215.729 234.593" stroke="white" stroke-miterlimit="10" stroke-linecap="round" stroke-linejoin="round"/>
<path d="M237.397 71.7208C235.846 72.9505 234.171 74.3569 233.548 76.3159C232.929 78.2653 233.099 80.4589 232.292 82.3589C231.732 83.6778 231.969 85.5391 232.049 86.933C232.173 89.1141 232.487 91.2941 232.925 93.4326C233.252 95.027 233.923 96.0301 235.604 96.2289C237.252 96.4237 239.069 95.5649 240.496 94.8231C242.795 93.628 245.526 89.8173 246.891 87.5475C248.702 87.117 252.16 87.3362 251.533 83.8584C250.905 80.3805 248.291 82.0737 247.56 83.0728" stroke="#263238" stroke-miterlimit="10" stroke-linecap="round" stroke-linejoin="round"/>
<path d="M238.458 81.8068C239.348 80.8605 240.271 81.1524 241.335 81.796" stroke="#263238" stroke-miterlimit="10" stroke-linecap="round" stroke-linejoin="round"/>
<path d="M236.169 82.4162C236.401 83.7573 236.08 85.1989 235.255 86.2832C235.026 86.5836 234.751 86.8847 234.716 87.2613C234.677 87.6816 234.953 88.065 235.257 88.3564" stroke="#263238" stroke-miterlimit="10" stroke-linecap="round" stroke-linejoin="round"/>
<path d="M236.092 90.7715C237.462 90.8919 238.237 90.5653 238.964 89.5083" stroke="#263238" stroke-miterlimit="10" stroke-linecap="round" stroke-linejoin="round"/>
<path d="M239.854 84.3253C239.812 84.8092 239.584 85.1847 239.344 85.1636C239.104 85.1426 238.944 84.7331 238.987 84.2486C239.029 83.7647 239.257 83.3892 239.497 83.4102C239.737 83.4318 239.897 83.8413 239.854 84.3253Z" fill="#263238"/>
<path d="M234.667 83.6374C234.625 84.1219 234.396 84.4968 234.156 84.4758C233.917 84.4548 233.757 84.0453 233.799 83.5608C233.842 83.0768 234.07 82.7014 234.31 82.7224C234.549 82.744 234.709 83.1535 234.667 83.6374Z" fill="#263238"/>
<path d="M233.242 81.0655C233.242 81.0655 234.086 80.3402 234.879 81.2098" stroke="#263238" stroke-miterlimit="10" stroke-linecap="round" stroke-linejoin="round"/>
<path d="M246.891 87.547C246.313 89.4237 246.111 91.0305 245.891 92.9822C245.73 94.4067 245.669 95.8705 246.041 97.2541C245.172 98.6718 242.938 99.488 241.285 99.3472C240.352 99.2677 239.411 99.0183 238.656 98.4634C237.9 97.9084 237.357 97.0127 237.383 96.0732" stroke="#263238" stroke-miterlimit="10" stroke-linecap="round" stroke-linejoin="round"/>
<path d="M207.175 131.654C207.175 131.654 217.111 141.843 227.912 143.577C227.912 143.577 230.936 148.996 229.425 154.199C227.912 159.402 222.08 181.947 222.08 181.947L211.063 180.646V153.115C211.063 153.115 207.403 162.462 204.025 167.032L193.133 161.352C193.133 161.352 196.806 140.109 207.175 131.654Z" fill="#263238"/>
<path d="M207.403 145.254L210.712 149.049L211.063 153.115" stroke="white" stroke-miterlimit="10" stroke-linecap="round" stroke-linejoin="round"/>
<path d="M209.233 174.68C209.233 174.68 208.632 178.168 209.95 183.58C209.95 183.58 217.62 185.625 222.294 184.182C222.294 184.182 224.571 179.371 224.93 177.447C224.93 177.447 217.385 172.997 209.233 174.68Z" fill="#263238"/>
<path d="M191.254 163.616C191.254 163.616 196.408 167.705 202.879 168.907C202.879 168.907 206.175 166.622 207.403 165.059C207.403 165.059 200.363 157.963 192.094 157.963L191.254 163.616Z" fill="#263238"/>
<path d="M238.669 117.055C238.669 117.055 240.329 110.715 245.845 109.212" stroke="#263238" stroke-miterlimit="10" stroke-linecap="round" stroke-linejoin="round"/>
<path d="M247.722 82.7678C247.205 83.1768 247.356 84.0549 246.962 84.5849C246.607 85.0625 246.092 85.3772 245.496 85.4221C245.443 85.4261 245.385 85.4266 245.342 85.3954C245.296 85.3619 245.281 85.3011 245.269 85.2454C245.096 84.4054 245.238 83.5369 245.239 82.6792C245.243 81.2615 244.663 80.5958 243.704 79.6859C242.958 78.9776 242.983 77.724 242.274 76.9788C241.769 76.4483 240.99 76.2841 240.26 76.2585C239.529 76.2324 238.787 76.3165 238.071 76.1648C236.722 75.8803 235.705 74.7903 235.406 73.3265C234.278 74.233 233.302 77.2804 233.302 77.2804L232.591 76.6596C230.87 75.0481 230.544 72.1843 231.732 70.1378C232.943 68.0526 235.518 66.9246 237.899 67.2586C239.484 67.4807 240.958 68.2702 242.551 68.4128C244.493 68.586 246.512 67.7897 248.363 68.4059C250.208 69.0205 251.358 70.8932 251.904 72.7665C252.449 74.6392 252.549 76.6232 253.134 78.484C253.328 79.1014 253.576 79.708 253.657 80.3498C253.846 81.834 253.031 83.396 251.707 84.0844C251.708 84.0844 251.172 80.042 247.722 82.7678Z" fill="#263238"/>
<path opacity="0.2" d="M233.325 74.9306C232.593 73.848 232.364 72.4013 232.862 71.1926C233.36 69.9838 234.629 69.0972 235.93 69.1835C237.242 69.271 238.322 70.2406 239.15 71.2653C239.978 72.2899 240.698 73.4469 241.791 74.1802C242.988 74.9834 244.491 75.1788 245.769 75.8445C247.774 76.889 249.082 79.1553 248.987 81.4205" stroke="white" stroke-miterlimit="10" stroke-linecap="round" stroke-linejoin="round"/>
<path opacity="0.2" d="M241.385 70.4581C241.941 71.4862 243.091 72.0389 244.213 72.3569C245.335 72.675 246.518 72.8341 247.549 73.3805C249.139 74.224 250.188 76.0069 250.154 77.812" stroke="white" stroke-miterlimit="10" stroke-linecap="round" stroke-linejoin="round"/>
<path d="M230.713 81.267L188.344 183.709C187.458 185.851 185.008 186.87 182.87 185.98L127.443 162.893C125.308 162.004 124.294 159.542 125.18 157.399L167.549 54.9578C168.435 52.8153 170.888 51.7975 173.023 52.687L228.451 75.7733C230.588 76.6634 231.6 79.124 230.713 81.267Z" fill="white" stroke="#263238" stroke-miterlimit="10"/>
<path d="M215.172 84.0203L213.151 88.909C212.541 90.3819 210.853 91.0822 209.385 90.471L176.117 76.6141C174.9 76.1069 174.214 74.8624 174.359 73.6151C174.386 73.3527 174.452 73.0891 174.557 72.8346L176.579 67.9459C177.19 66.4696 178.877 65.7699 180.348 66.3822L213.617 80.2397C215.085 80.8503 215.783 82.5446 215.172 84.0203Z" fill="#55B45C"/>
<path d="M191.45 74.4551L189.765 78.5305L189.01 78.2164L189.732 76.4698L187.632 75.5951L186.91 77.3417L186.155 77.0276L187.841 72.9522L188.595 73.2663L187.899 74.9487L189.999 75.8235L190.696 74.141L191.45 74.4551Z" fill="#263238"/>
<path d="M194.233 78.8429L191.802 77.8302C191.701 78.3204 191.958 78.7685 192.498 78.9935C192.846 79.1383 193.164 79.1411 193.479 79.006L193.682 79.616C193.266 79.8318 192.759 79.825 192.225 79.6029C191.186 79.1701 190.79 78.2204 191.173 77.2946C191.556 76.3687 192.51 75.9876 193.432 76.3721C194.337 76.7493 194.736 77.6592 194.334 78.6317C194.31 78.6907 194.268 78.7754 194.233 78.8429ZM191.996 77.3446L193.754 78.0767C193.882 77.6041 193.667 77.1531 193.191 76.9549C192.721 76.7595 192.254 76.9197 191.996 77.3446Z" fill="#263238"/>
<path d="M196.181 76.1393L196.906 76.4414L195.119 80.7616L194.394 80.4595L196.181 76.1393Z" fill="#263238"/>
<path d="M197.858 76.8373L198.583 77.1395L196.796 81.4597L196.071 81.1575L197.858 76.8373Z" fill="#263238"/>
<path d="M198.136 80.1953C198.521 79.2638 199.49 78.8958 200.441 79.2922C201.404 79.6932 201.823 80.639 201.437 81.5705C201.052 82.502 200.087 82.878 199.124 82.477C198.172 82.0805 197.75 81.1269 198.136 80.1953ZM200.706 81.2655C200.952 80.6713 200.714 80.1289 200.186 79.9091C199.663 79.6915 199.113 79.9057 198.867 80.4992C198.621 81.0934 198.86 81.6358 199.381 81.8533C199.909 82.0737 200.46 81.8596 200.706 81.2655Z" fill="#263238"/>
<path d="M201.528 82.9462C201.631 82.6957 201.91 82.5798 202.183 82.6934C202.45 82.8047 202.56 83.0825 202.456 83.3324C202.352 83.5829 202.077 83.7067 201.81 83.5954C201.537 83.4824 201.424 83.1961 201.528 82.9462ZM203.083 79.3008L203.942 79.6586L202.67 82.3231L202.095 82.084L203.083 79.3008Z" fill="#263238"/>
<path d="M206.735 110.265L164.444 92.6516L163.379 95.2253L205.671 112.839L206.735 110.265Z" fill="#263238"/>
<path d="M203.997 116.886L161.706 99.2723L160.641 101.846L202.933 119.459L203.997 116.886Z" fill="#263238"/>
<path d="M201.259 123.507L158.967 105.894L157.903 108.467L200.195 126.081L201.259 123.507Z" fill="#263238"/>
<path d="M198.521 130.128L156.23 112.514L155.165 115.088L197.457 132.701L198.521 130.128Z" fill="#263238"/>
<path d="M195.783 136.749L153.491 119.136L152.427 121.709L194.719 139.323L195.783 136.749Z" fill="#263238"/>
<path d="M193.045 143.369L150.754 125.756L149.689 128.33L191.981 145.943L193.045 143.369Z" fill="#263238"/>
<path d="M199.896 155.777L188.344 183.709C187.458 185.851 185.008 186.87 182.87 185.98L143.169 169.443C145.634 166.494 149.001 164.304 152.753 163.466C158.564 162.17 165.194 163.748 170.17 160.467C174.184 157.822 176.147 152.522 180.557 150.614C182.777 149.656 185.31 149.72 187.678 150.191C191.94 151.039 196.294 153.137 199.896 155.777Z" fill="#55B45C" stroke="#263238" stroke-miterlimit="10"/>
<path d="M173.537 63.925C172.001 65.0542 171.003 66.7638 170.167 68.4764C168.2 72.5137 166.896 76.8487 164.9 80.8701C162.902 84.8876 160.044 88.7068 155.986 90.6011C154.863 91.1248 153.637 91.4599 152.394 91.5991L167.548 54.9574C168.435 52.8149 170.888 51.797 173.023 52.6865L182.702 56.7182C181.919 60.2324 176.561 61.7064 173.537 63.925Z" fill="#55B45C" stroke="#263238" stroke-miterlimit="10"/>
<path opacity="0.1" d="M215.172 84.0203L213.151 88.909C212.541 90.3819 210.853 91.0822 209.385 90.471L176.117 76.6141C174.9 76.1069 174.214 74.8624 174.359 73.6151C176.091 73.6367 178.237 75.0992 179.667 75.6837C181.984 76.638 184.321 77.5337 186.682 78.3749C194.094 81.0144 202.228 83.0984 209.734 80.7429C210.609 80.468 211.481 80.1238 212.291 79.687L213.617 80.2391C215.085 80.8503 215.783 82.5446 215.172 84.0203Z" fill="black"/>
<path d="M215.172 84.0203L213.151 88.909C212.541 90.3819 210.853 91.0822 209.385 90.471L176.117 76.6141C174.9 76.1069 174.214 74.8624 174.359 73.6151C174.386 73.3527 174.452 73.0891 174.557 72.8346L176.579 67.9459C177.19 66.4696 178.877 65.7699 180.348 66.3822L213.617 80.2397C215.085 80.8503 215.783 82.5446 215.172 84.0203Z" stroke="#263238" stroke-miterlimit="10"/>
<path d="M241.403 133.725C241.403 133.725 233.116 139.906 230.387 141.886C230.387 141.886 217.049 133.326 212.321 128.881C207.593 124.436 205.534 122.881 205.236 117.841C205.236 117.841 198.219 118.594 197.481 117.072C197.481 117.072 198.63 116.316 200.484 116.212C200.484 116.212 197.22 115.267 197.209 114.069L203.755 113.708C203.755 113.708 196.383 112.598 196.465 111.918C196.547 111.237 205.533 110.18 207.943 111.918C207.943 111.918 210.842 117.048 212.03 120.514C212.03 120.514 221.03 128.62 230.387 130.478L233.781 126.843L241.403 133.725Z" fill="white"/>
<path d="M233.781 126.843L230.387 130.478C230.387 130.478 218.472 127.351 212.03 120.514C212.03 120.514 209.324 113.676 207.942 111.917C206.561 110.158 195.908 111.135 196.465 111.917C197.021 112.699 203.02 113.958 203.02 113.958" stroke="#263238" stroke-miterlimit="10" stroke-linecap="round" stroke-linejoin="round"/>
<path d="M241.403 133.393C241.403 133.393 235.79 138.858 230.387 141.885C230.387 141.885 216.592 134.12 209.773 126.224L209.156 125.8C206.555 124.014 205.07 120.998 205.236 117.84C202.813 118.594 200.121 118.44 197.799 117.415C197.647 117.348 197.471 117.238 197.481 117.072C197.488 116.953 197.589 116.865 197.688 116.8C198.453 116.3 199.572 116.252 200.484 116.211C202.192 116.135 203.762 115.652 205.444 115.958" stroke="#263238" stroke-miterlimit="10" stroke-linecap="round" stroke-linejoin="round"/>
<path d="M205.986 114.014C205.23 114 204.475 113.985 203.719 113.971C201.684 113.932 199.649 113.894 197.613 113.855C197.444 113.852 197.217 113.899 197.21 114.069C197.206 114.147 197.257 114.216 197.307 114.275C197.784 114.842 198.434 115.229 199.076 115.596C199.44 115.804 199.813 116.012 200.211 116.139" stroke="#263238" stroke-miterlimit="10" stroke-linecap="round" stroke-linejoin="round"/>
<path d="M224.931 143.57C224.931 143.57 223.431 152.626 229.425 154.2" stroke="white" stroke-miterlimit="10" stroke-linecap="round" stroke-linejoin="round"/>
<path d="M212.06 174.506C212.06 174.506 217.624 174.134 221.982 176.335" stroke="white" stroke-miterlimit="10" stroke-linecap="round" stroke-linejoin="round"/>
<path d="M205.124 163.106C205.124 163.106 203.836 162.113 201.973 161.016" stroke="white" stroke-miterlimit="10" stroke-linecap="round" stroke-linejoin="round"/>
<path d="M226.409 91.6735C228.192 91.5241 230.764 91.5241 232.596 91.9723" stroke="#263238" stroke-miterlimit="10" stroke-linecap="round" stroke-linejoin="round"/>
<path d="M245.845 96.2561C245.845 96.2561 252.249 104.674 253.85 111.101C253.85 111.101 251.183 126.456 245.845 134.669C245.845 134.669 239.218 134.49 232.835 125.206C232.835 125.206 236.271 119.492 241.77 113.422" stroke="#263238" stroke-miterlimit="10" stroke-linecap="round" stroke-linejoin="round"/>
<path d="M227.912 143.577L229.848 141.886" stroke="#263238" stroke-miterlimit="10" stroke-linecap="round" stroke-linejoin="round"/>
<path d="M237.528 96.3663C237.528 96.3663 239.047 98.289 241.403 97.5637C243.759 96.8383 245.845 89.1732 245.845 89.1732C245.845 89.1732 241.879 94.9401 237.528 96.3663Z" fill="#263238"/>
<path d="M181.132 83.7248V224.963C181.132 228.138 178.567 230.712 175.403 230.712H105.249C103.949 230.712 102.745 230.275 101.781 229.539C100.408 228.491 99.5198 226.83 99.5198 224.963V83.7248C99.5198 80.5496 102.085 77.9755 105.249 77.9755H175.403C178.567 77.9755 181.132 80.5496 181.132 83.7248Z" fill="#263238"/>
<path d="M183.48 83.7249V224.963C183.48 228.138 180.915 230.713 177.751 230.713H107.597C106.297 230.713 105.093 230.275 104.129 229.54C102.756 228.492 101.868 226.83 101.868 224.963V83.7249C101.868 80.5498 104.433 77.9756 107.597 77.9756H177.751C180.915 77.9756 183.48 80.5498 183.48 83.7249Z" fill="#263238"/>
<path d="M131.221 84.2838H150.183" stroke="white" stroke-width="2" stroke-miterlimit="10" stroke-linecap="round" stroke-linejoin="round"/>
<path opacity="0.1" d="M181.132 83.7249V224.963C181.132 228.138 178.567 230.712 175.403 230.712H105.249C103.949 230.712 102.745 230.275 101.781 229.54L163.022 77.975H175.403C178.567 77.9756 181.132 80.5498 181.132 83.7249Z" fill="white"/>
<path d="M181.132 83.7248V224.963C181.132 228.138 178.567 230.712 175.403 230.712H105.249C103.949 230.712 102.745 230.275 101.781 229.539C100.408 228.491 99.5198 226.83 99.5198 224.963V83.7248C99.5198 80.5496 102.085 77.9755 105.249 77.9755H175.403C178.567 77.9755 181.132 80.5496 181.132 83.7248Z" stroke="#263238" stroke-miterlimit="10"/>
<path d="M169.286 217.801H111.475C107.47 217.801 104.223 214.543 104.223 210.523V95.2042C104.223 91.1844 107.47 87.9258 111.475 87.9258H169.286C173.292 87.9258 176.539 91.1844 176.539 95.2042V210.522C176.539 214.542 173.292 217.801 169.286 217.801Z" fill="white" stroke="#263238" stroke-miterlimit="10"/>
<path d="M143.531 224.651C143.531 226.55 141.998 228.089 140.106 228.089C138.214 228.089 136.681 226.55 136.681 224.651C136.681 222.753 138.214 221.214 140.106 221.214C141.998 221.213 143.531 222.753 143.531 224.651Z" fill="#263238"/>
<path d="M163.759 227.758V221.544L169.952 224.651L163.759 227.758Z" fill="#263238"/>
<path d="M116.804 221.89H111.182V227.531H116.804V221.89Z" fill="#263238"/>
<path d="M160.977 122.219L160.091 120.263L157.735 120.676L157.568 122.831C156.849 123.104 156.166 123.466 155.536 123.908L153.664 122.799L152.002 124.483L153.123 126.371C152.389 127.459 151.888 128.688 151.653 129.981L149.506 130.504V132.884L151.668 133.433C151.807 134.171 152.034 134.889 152.346 135.572L150.881 137.272L152.236 139.223L154.321 138.423C154.856 138.944 155.449 139.402 156.088 139.788L155.858 142.026L158.084 142.842L159.34 140.985C159.856 141.075 160.379 141.12 160.903 141.121C161.127 141.121 161.351 141.121 161.57 141.095L162.654 143.046L164.948 142.428L164.917 140.221C165.604 139.895 166.249 139.488 166.84 139.008L168.815 139.96L170.337 138.14L169.076 136.372C169.463 135.703 169.764 134.988 169.973 134.243L172.099 133.888L172.302 131.519L170.296 130.802C170.217 130.024 170.042 129.257 169.775 128.522L171.291 127.026L170.103 124.966L168.06 125.53C167.554 124.937 166.976 124.41 166.339 123.961L166.725 121.87L164.578 120.865L163.228 122.507C162.492 122.32 161.736 122.223 160.977 122.219ZM160.935 125.739C164.205 125.739 166.856 128.399 166.856 131.68C166.856 134.961 164.205 137.621 160.935 137.621C157.666 137.621 155.015 134.961 155.015 131.68C155.015 128.399 157.665 125.739 160.935 125.739Z" fill="#263238"/>
<path d="M161.994 120.944L161.108 118.987L158.752 119.4L158.585 121.555C157.866 121.829 157.183 122.191 156.553 122.633L154.682 121.524L153.019 123.208L154.14 125.096C153.406 126.184 152.905 127.413 152.67 128.705L150.523 129.229V131.608L152.685 132.158C152.824 132.896 153.052 133.614 153.363 134.297L151.898 135.997L153.253 137.948L155.338 137.148C155.872 137.668 156.466 138.127 157.105 138.512L156.875 140.751L159.101 141.567L160.357 139.71C160.873 139.8 161.397 139.845 161.92 139.846C162.144 139.846 162.368 139.846 162.587 139.819L163.671 141.771L165.964 141.153L165.933 138.946C166.62 138.62 167.266 138.213 167.856 137.733L169.832 138.685L171.354 136.865L170.093 135.097C170.479 134.428 170.78 133.713 170.989 132.968L173.116 132.613L173.319 130.244L171.312 129.527C171.233 128.748 171.058 127.982 170.791 127.246L172.308 125.751L171.119 123.69L169.077 124.255C168.571 123.662 167.993 123.135 167.357 122.686L167.742 120.594L165.595 119.59L164.245 121.232C163.509 121.044 162.753 120.948 161.994 120.944ZM161.952 124.464C165.222 124.464 167.872 127.124 167.872 130.405C167.872 133.686 165.222 136.346 161.952 136.346C158.682 136.346 156.031 133.686 156.031 130.405C156.031 127.124 158.682 124.464 161.952 124.464Z" fill="#55B45C" stroke="#263238" stroke-miterlimit="10"/>
<path d="M126.716 101.993L125.298 98.8632L121.528 99.5244L121.261 102.973C120.11 103.411 119.018 103.99 118.008 104.697L115.014 102.923L112.353 105.618L114.146 108.64C112.972 110.38 112.171 112.347 111.795 114.415L108.358 115.252V119.06L111.82 119.939C112.041 121.12 112.405 122.269 112.904 123.362L110.56 126.082L112.729 129.204L116.065 127.923C116.921 128.757 117.869 129.49 118.892 130.108L118.525 133.69L122.086 134.996L124.096 132.025C124.922 132.168 125.76 132.241 126.598 132.242C126.957 132.242 127.315 132.242 127.666 132.2L129.401 135.322L133.071 134.334L133.021 130.802C134.12 130.281 135.153 129.629 136.098 128.86L139.259 130.384L141.695 127.471L139.676 124.642C140.295 123.571 140.777 122.427 141.111 121.236L144.514 120.666L144.839 116.875L141.628 115.728C141.502 114.482 141.222 113.256 140.794 112.079L143.221 109.685L141.319 106.388L138.05 107.291C137.241 106.342 136.316 105.499 135.298 104.78L135.915 101.432L132.479 99.8254L130.319 102.454C129.14 102.155 127.93 102 126.716 101.993ZM126.649 110.784C130.143 110.784 132.977 113.627 132.977 117.135C132.977 120.642 130.144 123.484 126.649 123.484C123.154 123.484 120.321 120.642 120.321 117.135C120.321 113.627 123.154 110.784 126.649 110.784Z" fill="#263238"/>
<path d="M155.4 182.655L154.34 180.314L151.522 180.809L151.322 183.387C150.461 183.715 149.644 184.148 148.89 184.677L146.651 183.35L144.661 185.365L146.002 187.625C145.124 188.926 144.525 190.396 144.243 191.943L141.674 192.569V195.416L144.262 196.074C144.428 196.957 144.7 197.816 145.073 198.634L143.32 200.668L144.942 203.002L147.436 202.044C148.076 202.668 148.786 203.216 149.55 203.678L149.276 206.357L151.939 207.333L153.441 205.111C154.06 205.218 154.686 205.273 155.313 205.273C155.581 205.273 155.849 205.273 156.111 205.242L157.408 207.577L160.152 206.838L160.115 204.197C160.937 203.807 161.71 203.32 162.416 202.745L164.78 203.884L166.6 201.706L165.091 199.591C165.554 198.79 165.914 197.935 166.164 197.044L168.708 196.619L168.952 193.784L166.551 192.927C166.456 191.995 166.246 191.079 165.927 190.198L167.741 188.408L166.32 185.943L163.875 186.619C163.27 185.909 162.578 185.278 161.817 184.741L162.278 182.238L159.709 181.036L158.093 183.002C157.214 182.776 156.309 182.66 155.4 182.655ZM155.351 189.229C157.964 189.229 160.082 191.355 160.082 193.977C160.082 196.599 157.963 198.724 155.351 198.724C152.738 198.724 150.619 196.598 150.619 193.977C150.619 191.354 152.737 189.229 155.351 189.229Z" fill="#263238"/>
<path d="M156.401 180.956L155.34 178.616L152.522 179.11L152.322 181.688C151.462 182.016 150.644 182.449 149.89 182.978L147.651 181.651L145.661 183.666L147.002 185.926C146.124 187.228 145.525 188.698 145.244 190.244L142.674 190.87V193.718L145.262 194.375C145.428 195.258 145.7 196.117 146.073 196.935L144.32 198.969L145.942 201.303L148.436 200.346C149.076 200.969 149.786 201.517 150.55 201.979L150.276 204.658L152.939 205.634L154.442 203.413C155.06 203.52 155.686 203.575 156.313 203.575C156.581 203.575 156.849 203.575 157.111 203.544L158.408 205.878L161.152 205.14L161.115 202.499C161.937 202.109 162.71 201.622 163.416 201.047L165.78 202.186L167.601 200.008L166.092 197.893C166.554 197.092 166.915 196.237 167.164 195.346L169.709 194.921L169.952 192.086L167.551 191.229C167.456 190.296 167.247 189.38 166.928 188.5L168.742 186.71L167.32 184.244L164.876 184.92C164.271 184.211 163.579 183.58 162.818 183.043L163.279 180.539L160.709 179.337L159.094 181.303C158.213 181.077 157.309 180.961 156.401 180.956ZM156.35 187.53C158.963 187.53 161.081 189.656 161.081 192.278C161.081 194.9 158.963 197.026 156.35 197.026C153.737 197.026 151.619 194.9 151.619 192.278C151.619 189.656 153.737 187.53 156.35 187.53Z" fill="#55B45C" stroke="#263238" stroke-miterlimit="10"/>
<path d="M175.442 162.56V159.003C172.222 158.446 170.063 155.375 170.618 152.144C171.043 149.669 172.975 147.128 175.442 146.701V141.769L173.263 142.156L173.096 144.306C172.377 144.582 171.694 144.946 171.064 145.389L169.193 144.275L167.514 145.954L168.624 147.847C167.889 148.934 167.388 150.163 167.155 151.456L165.007 151.979V154.359L167.17 154.882C167.31 155.622 167.537 156.341 167.847 157.026L166.377 158.726L167.737 160.672L169.822 159.872C170.355 160.396 170.948 160.854 171.589 161.236L171.359 163.48L173.585 164.291L174.841 162.439C175.056 162.518 175.249 162.539 175.442 162.56Z" fill="#263238"/>
<path d="M125.124 146.365L123.004 143.786L119.633 145.363L120.238 148.647C119.239 149.352 118.332 150.18 117.538 151.111L114.33 150.225L112.464 153.461L114.845 155.809C114.426 156.965 114.151 158.167 114.026 159.39L110.875 160.515L111.195 164.235L114.533 164.794C114.861 165.963 115.334 167.086 115.941 168.137L113.961 170.912L116.35 173.771L119.452 172.276C120.379 173.03 121.393 173.669 122.472 174.181L122.422 177.647L126.023 178.616L127.725 175.553C128.069 175.594 128.421 175.594 128.773 175.594C129.596 175.593 130.417 175.522 131.228 175.38L133.201 178.296L136.695 177.014L136.335 173.5C137.338 172.894 138.269 172.174 139.11 171.356L142.383 172.612L144.511 169.549L142.211 166.88C142.7 165.808 143.057 164.68 143.275 163.521L146.671 162.659V158.922L143.299 158.101C142.93 156.072 142.144 154.142 140.992 152.434L142.751 149.469L140.141 146.824L137.203 148.565C136.212 147.871 135.14 147.303 134.011 146.873L133.749 143.489L130.05 142.841L128.659 145.912C127.467 145.92 126.28 146.071 125.124 146.365ZM128.724 151.44C133.859 151.44 138.021 155.617 138.021 160.77C138.021 165.922 133.858 170.099 128.724 170.099C123.59 170.099 119.428 165.922 119.428 160.77C119.428 155.617 123.59 151.44 128.724 151.44Z" fill="#263238"/>
<path d="M123.291 145.334L121.171 142.755L117.799 144.332L118.405 147.617C117.406 148.322 116.499 149.149 115.705 150.081L112.496 149.194L110.63 152.43L113.012 154.778C112.593 155.934 112.318 157.136 112.194 158.359L109.043 159.484L109.362 163.205L112.701 163.763C113.028 164.932 113.502 166.055 114.108 167.106L112.128 169.881L114.518 172.74L117.619 171.245C118.546 171.999 119.56 172.638 120.639 173.15L120.59 176.616L124.191 177.585L125.893 174.522C126.236 174.563 126.588 174.563 126.94 174.563C127.763 174.562 128.584 174.491 129.396 174.349L131.368 177.265L134.863 175.983L134.503 172.469C135.505 171.863 136.437 171.144 137.277 170.325L140.551 171.581L142.678 168.518L140.379 165.849C140.868 164.777 141.225 163.649 141.443 162.49L144.839 161.628V157.891L141.467 157.07C141.098 155.041 140.311 153.111 139.16 151.403L140.919 148.438L138.309 145.793L135.371 147.534C134.38 146.841 133.308 146.273 132.179 145.843L131.917 142.459L128.218 141.81L126.827 144.882C125.634 144.889 124.447 145.041 123.291 145.334ZM126.892 150.41C132.026 150.41 136.188 154.587 136.188 159.739C136.188 164.892 132.026 169.069 126.892 169.069C121.757 169.069 117.595 164.892 117.595 159.739C117.595 154.587 121.757 150.41 126.892 150.41Z" fill="#55B45C" stroke="#263238" stroke-miterlimit="10"/>
<path d="M105.163 208.607L107.136 211.514L110.63 210.241L110.27 206.718C111.277 206.118 112.208 205.398 113.045 204.574L116.319 205.831L118.455 202.775L116.147 200.106C116.634 199.031 116.992 197.9 117.211 196.739L120.608 195.918V192.181L117.236 191.36C116.869 189.33 116.083 187.4 114.929 185.693L116.672 182.72L114.037 180.084L111.098 181.833C110.108 181.137 109.036 180.566 107.907 180.133L107.645 176.758L104.224 176.15V184.839C108.098 185.509 111.131 188.554 111.799 192.441C112.671 197.515 109.279 202.336 104.224 203.211V208.795C104.525 208.763 104.828 208.73 105.163 208.607Z" fill="#263238"/>
<path d="M105.163 206.398L107.136 209.305L110.63 208.032L110.27 204.509C111.277 203.909 112.208 203.189 113.045 202.365L116.319 203.622L118.455 200.566L116.147 197.897C116.634 196.822 116.992 195.691 117.211 194.53L120.608 193.709V189.972L117.236 189.151C116.869 187.121 116.083 185.191 114.929 183.484L116.672 180.511L114.037 177.875L111.098 179.624C110.108 178.929 109.036 178.358 107.907 177.924L107.645 174.549L104.224 173.941V182.63C108.098 183.3 111.131 186.345 111.799 190.232C112.671 195.306 109.279 200.127 104.224 201.002V206.586C104.525 206.554 104.828 206.521 105.163 206.398Z" fill="#55B45C" stroke="#263238" stroke-miterlimit="10"/>
<path d="M125.698 100.61L124.281 97.4802L120.511 98.1413L120.244 101.59C119.093 102.028 118.001 102.607 116.991 103.314L113.997 101.54L111.336 104.235L113.129 107.257C111.955 108.997 111.154 110.964 110.778 113.031L107.341 113.869V117.677L110.802 118.556C111.024 119.737 111.388 120.886 111.887 121.979L109.543 124.699L111.711 127.821L115.047 126.54C115.904 127.374 116.852 128.107 117.875 128.725L117.508 132.307L121.069 133.613L123.079 130.642C123.905 130.785 124.742 130.859 125.581 130.859C125.94 130.859 126.298 130.859 126.649 130.817L128.384 133.939L132.053 132.951L132.004 129.419C133.103 128.898 134.136 128.246 135.081 127.477L138.242 129.001L140.678 126.088L138.659 123.259C139.278 122.188 139.76 121.044 140.094 119.853L143.497 119.283L143.822 115.492L140.611 114.345C140.485 113.099 140.204 111.873 139.777 110.696L142.204 108.302L140.302 105.004L137.033 105.908C136.224 104.959 135.299 104.116 134.281 103.397L134.898 100.049L131.461 98.4423L129.302 101.07C128.124 100.772 126.914 100.617 125.698 100.61ZM125.632 109.401C129.126 109.401 131.959 112.244 131.959 115.751C131.959 119.258 129.126 122.101 125.632 122.101C122.137 122.101 119.304 119.258 119.304 115.751C119.304 112.244 122.137 109.401 125.632 109.401Z" fill="#55B45C" stroke="#263238" stroke-miterlimit="10"/>
<path d="M176.539 161.655V158.098C173.319 157.541 171.16 154.47 171.714 151.24C172.139 148.764 174.072 146.825 176.539 146.398V140.865L174.36 141.251L174.193 143.401C173.474 143.677 172.791 144.041 172.161 144.484L170.29 143.37L168.611 145.049L169.721 146.942C168.986 148.029 168.485 149.258 168.251 150.551L166.104 151.074V153.454L168.267 153.977C168.406 154.717 168.634 155.437 168.944 156.122L167.474 157.822L168.834 159.767L170.919 158.967C171.452 159.491 172.045 159.949 172.685 160.332L172.456 162.575L174.682 163.386L175.938 161.534C176.153 161.612 176.346 161.633 176.539 161.655Z" fill="#55B45C" stroke="#263238" stroke-miterlimit="10"/>
<path d="M125.582 124.963C130.651 124.963 134.761 120.839 134.761 115.752C134.761 110.664 130.651 106.54 125.582 106.54C120.512 106.54 116.402 110.664 116.402 115.752C116.402 120.839 120.512 124.963 125.582 124.963Z" stroke="white" stroke-miterlimit="10"/>
<path d="M126.649 171.788C133.279 171.788 138.655 166.393 138.655 159.739C138.655 153.085 133.279 147.691 126.649 147.691C120.018 147.691 114.643 153.085 114.643 159.739C114.643 166.393 120.018 171.788 126.649 171.788Z" stroke="white" stroke-miterlimit="10"/>
<path d="M156.313 199.52C160.316 199.52 163.561 196.264 163.561 192.246C163.561 188.229 160.316 184.973 156.313 184.973C152.31 184.973 149.065 188.229 149.065 192.246C149.065 196.264 152.31 199.52 156.313 199.52Z" stroke="#263238" stroke-miterlimit="10"/>
<path d="M52.4518 94.8622C54.263 96.088 56.2938 97.0422 57.8101 98.6207C59.5902 100.474 60.4958 103.06 60.622 105.632C60.7482 108.203 60.146 110.766 59.2319 113.171C58.6919 114.591 58.0127 116.01 56.879 117.018C55.8104 117.968 54.4169 118.477 53.0161 118.759C50.2834 119.307 47.424 119.056 44.7536 118.256C42.3996 117.55 40.1339 116.393 38.4354 114.612C37.0832 113.194 36.1368 111.436 35.3631 109.634C34.1643 106.841 33.3385 103.877 33.0487 100.85C32.7691 97.9249 32.9893 94.9775 33.2095 92.0472C33.3912 89.6287 33.5734 87.2101 33.7557 84.7916C33.8547 83.475 33.703 80.0607 35.362 79.5149C36.73 79.065 38.8548 81.3472 39.7757 82.1771C42.6606 84.7785 45.0129 87.8991 47.69 90.7028C49.148 92.2296 50.7011 93.6774 52.4518 94.8622Z" fill="#263238"/>
<path d="M44.6297 105.644C44.6297 105.644 51.3724 106.142 54.7848 104.014C58.1973 101.886 65.9345 110.563 65.9345 110.563L63.2669 155.969C63.2669 155.969 56.4879 157.408 52.3024 155.408C48.1168 153.409 46.0611 153.506 45.0564 151.109C44.0518 148.712 44.0365 144.729 39.7117 141.262C35.3863 137.795 35.3829 135.991 34.0438 133.803C32.7046 131.614 28.3792 128.569 28.081 126.15C27.7827 123.73 28.2304 117.637 28.2304 117.637L36.4917 111.181C36.4906 111.181 38.5169 104.016 44.6297 105.644Z" fill="#55B45C"/>
<path opacity="0.1" d="M49.9048 112.105C50.1646 115.088 50.7917 118.039 51.7681 120.868C48.1892 120.958 44.6365 121.94 41.5161 123.7C43.9222 127.364 46.9373 130.623 50.3989 133.304C51.1947 132.279 52.3465 131.538 53.607 131.241C54.096 131.126 54.6009 131.075 55.0775 130.915C55.5297 130.764 55.9446 130.518 56.3442 130.257C60.7805 127.361 63.6541 122.192 63.7792 116.881C63.8533 113.748 63.0269 110.64 61.7376 107.785C60.6882 105.461 59.087 103.09 56.621 102.471C55.3356 102.148 53.98 102.352 52.6884 102.647C51.6798 102.877 50.1985 103.067 49.3207 103.634C47.9538 104.517 48.3358 104.225 48.7886 105.739C49.4294 107.884 49.7101 109.867 49.9048 112.105Z" fill="black"/>
<path d="M40.1968 83.7664C40.1968 83.7664 43.762 89.953 44.8046 92.9685C45.8471 95.984 45.6128 99.3614 45.4006 100.576C45.4006 100.576 45.6015 102.661 46.9474 105.257L49.1362 105.643C49.1362 105.643 52.1626 112.019 52.3459 121.426C52.3459 121.426 47.1823 114.872 43.6046 113.156C40.027 111.44 40.7622 111.631 40.7622 111.631C40.7622 111.631 37.8399 106.463 36.3129 104.879C34.7858 103.296 28.18 108.454 28.18 108.454L21.3065 97.4387L24.6974 91.022L29.3001 87.4385L33.8044 83.7652H36.3134H40.1968V83.7664Z" fill="white"/>
<path d="M67.5663 239.333C69.8116 242.259 73.2144 244.266 76.8543 244.811C77.7095 244.939 78.7929 244.87 79.1517 244.081C79.3096 243.733 79.2745 243.331 79.2111 242.955C78.3865 238.036 73.6977 234.836 71.1853 230.534C70.4749 229.317 69.5314 226.179 67.984 226.402C67.2816 226.503 65.3306 228.645 64.9762 229.333C63.469 232.264 65.7918 237.021 67.5663 239.333Z" fill="white" stroke="#263238" stroke-miterlimit="10"/>
<path d="M64.9768 229.333C64.9768 229.333 65.356 234.728 68.7764 237.874C72.1967 241.021 73.1142 242.79 79.2117 242.955" fill="white"/>
<path d="M64.9768 229.333C64.9768 229.333 65.356 234.728 68.7764 237.874C72.1967 241.021 73.1142 242.79 79.2117 242.955" stroke="#263238" stroke-miterlimit="10"/>
<path d="M83.1958 219.467C83.1958 219.467 82.1243 225.593 84.4455 228.678C86.7667 231.764 89.0878 231.103 92.8376 231.792C95.3263 232.249 97.4007 234.035 100.048 233.376C102.423 232.785 100.943 231.058 99.8118 230.108C97.3186 228.014 94.372 226.52 91.8567 224.445C87.4804 220.833 88.2473 217.645 88.2473 217.645L83.1958 219.467Z" fill="white" stroke="#263238" stroke-miterlimit="10"/>
<path d="M83.6248 227.138C84.63 227.791 85.1841 228.634 86.2312 229.218C87.734 230.056 89.5571 229.934 91.2681 230.1C92.2727 230.198 93.2666 230.402 94.2283 230.71C95.2725 231.043 96.2896 231.5 97.3769 231.634C98.4302 231.763 99.5198 231.576 100.47 231.102" stroke="#263238" stroke-miterlimit="10"/>
<path d="M52.9623 155.418C52.9623 155.418 48.5204 170.352 52.9623 185.955C57.4043 201.557 53.1842 211.141 62.9573 230.534C62.9573 230.534 67.5312 234.323 70.686 228.751C70.686 228.751 69.7895 207.13 68.2613 202.004C66.7331 196.877 73.2942 185.688 71.1241 175.011C68.9541 164.334 64.2897 155.419 64.2897 155.419C64.2897 155.419 56.96 156.978 52.9623 155.418Z" fill="#263238"/>
<path d="M74.832 191.943C74.832 191.943 78.0837 213.645 82.1487 221.803C82.1487 221.803 86.864 225.23 89.7908 220.824C89.7908 220.824 90.1163 184.764 87.1895 181.989C84.2627 179.216 74.832 191.943 74.832 191.943Z" fill="#263238"/>
<path d="M125.748 50.2879L144.975 177.931C145.378 180.605 143.544 183.1 140.88 183.504L71.8186 193.981C70.5168 194.178 69.2535 193.84 68.2607 193.13C67.221 192.387 66.471 191.238 66.265 189.871L47.038 62.2278C46.635 59.5542 48.4689 57.059 51.133 56.6546L120.194 46.1784C122.215 45.8717 124.138 46.8589 125.12 48.5214C125.434 49.0491 125.65 49.6421 125.748 50.2879Z" fill="white"/>
<path d="M119.92 59.2894L110.874 60.662L110.991 61.4415L120.037 60.0689L119.92 59.2894Z" fill="#263238"/>
<path d="M119.582 57.0482L110.536 58.4208L110.653 59.2009L119.7 57.8284L119.582 57.0482Z" fill="#263238"/>
<path d="M119.244 54.8062L110.198 56.1788L110.315 56.9583L119.362 55.5858L119.244 54.8062Z" fill="#263238"/>
<path d="M123.878 142.465L124.796 148.556C125.072 150.396 123.814 152.108 121.982 152.386L80.5271 158.675C78.6944 158.953 76.9839 157.69 76.7066 155.851L75.7891 149.76C75.5118 147.921 76.7739 146.204 78.6067 145.925L120.061 139.637C121.894 139.359 123.601 140.626 123.878 142.465Z" fill="#55B45C"/>
<path d="M93.4036 148.402L92.76 152.163L92.0565 152.27L90.7751 149.753L90.277 152.539L89.5684 152.647L87.846 149.245L88.5343 149.14L89.8316 151.728L90.3438 148.865L90.9556 148.773L92.2705 151.373L92.7708 148.497L93.4036 148.402Z" fill="#263238"/>
<path d="M96.5941 150.393L94.458 150.717C94.5944 151.104 94.9641 151.311 95.4384 151.239C95.7446 151.192 95.9698 151.058 96.1334 150.829L96.5347 151.171C96.3338 151.5 95.9744 151.712 95.5057 151.783C94.5928 151.921 93.913 151.423 93.7902 150.609C93.6679 149.795 94.1767 149.122 94.9873 148.999C95.7825 148.878 96.4475 149.348 96.576 150.202C96.5834 150.254 96.5902 150.332 96.5941 150.393ZM94.389 150.294L95.9336 150.059C95.8232 149.673 95.4819 149.448 95.0637 149.512C94.6511 149.574 94.3901 149.886 94.389 150.294Z" fill="#263238"/>
<path d="M96.8205 147.665L97.4578 147.568L98.0301 151.364L97.3928 151.461L96.8205 147.665Z" fill="#263238"/>
<path d="M98.4359 149.905C98.3125 149.086 98.8372 148.416 99.6992 148.285C100.229 148.204 100.686 148.36 100.957 148.743L100.511 149.104C100.309 148.868 100.046 148.788 99.7756 148.829C99.307 148.9 98.9991 149.281 99.0783 149.808C99.1587 150.341 99.5634 150.609 100.033 150.537C100.304 150.497 100.53 150.342 100.654 150.056L101.187 150.268C101.039 150.709 100.651 151.003 100.121 151.084C99.2589 151.214 98.5587 150.723 98.4359 149.905Z" fill="#263238"/>
<path d="M101.358 149.462C101.234 148.643 101.759 147.972 102.595 147.845C103.442 147.717 104.136 148.203 104.258 149.022C104.382 149.84 103.863 150.515 103.017 150.643C102.181 150.77 101.481 150.28 101.358 149.462ZM103.616 149.119C103.538 148.597 103.141 148.317 102.677 148.388C102.218 148.457 101.921 148.842 102 149.364C102.079 149.886 102.475 150.166 102.934 150.096C103.399 150.026 103.695 149.641 103.616 149.119Z" fill="#263238"/>
<path d="M109.394 148.039L109.63 149.604L108.992 149.701L108.769 148.217C108.696 147.732 108.436 147.531 108.048 147.59C107.63 147.653 107.381 147.973 107.463 148.515L107.672 149.901L107.035 149.998L106.811 148.515C106.738 148.029 106.478 147.828 106.09 147.886C105.668 147.95 105.423 148.27 105.505 148.812L105.714 150.198L105.077 150.295L104.665 147.563L105.271 147.471L105.324 147.819C105.491 147.542 105.787 147.361 106.16 147.305C106.557 147.244 106.911 147.342 107.146 147.621C107.323 147.306 107.663 147.077 108.097 147.011C108.755 146.911 109.27 147.215 109.394 148.039Z" fill="#263238"/>
<path d="M112.846 147.928L110.71 148.252C110.847 148.639 111.217 148.845 111.69 148.773C111.996 148.727 112.221 148.593 112.385 148.363L112.786 148.706C112.585 149.034 112.225 149.245 111.757 149.316C110.844 149.455 110.164 148.957 110.041 148.143C109.918 147.33 110.428 146.656 111.238 146.533C112.033 146.412 112.699 146.883 112.827 147.736C112.835 147.788 112.842 147.866 112.846 147.928ZM110.641 147.828L112.186 147.594C112.075 147.207 111.734 146.982 111.316 147.046C110.903 147.109 110.642 147.42 110.641 147.828Z" fill="#263238"/>
<path d="M135.372 160.836L70.4797 170.682L70.6552 171.847L135.548 162.001L135.372 160.836Z" fill="#263238"/>
<path d="M135.85 164.002L70.9571 173.848L71.1327 175.014L136.025 165.168L135.85 164.002Z" fill="#263238"/>
<path d="M136.326 167.169L71.4337 177.015L71.6093 178.18L136.502 168.334L136.326 167.169Z" fill="#263238"/>
<path d="M136.804 170.335L71.9109 180.181L72.0864 181.347L136.979 171.501L136.804 170.335Z" fill="#263238"/>
<path opacity="0.1" d="M123.878 142.465L124.796 148.556C125.072 150.396 123.814 152.108 121.981 152.386L80.5271 158.675C78.6944 158.953 76.9839 157.69 76.7066 155.851L76.6964 155.783C84.3266 155.869 110.966 155.05 119.53 139.717L120.06 139.637C121.894 139.359 123.601 140.626 123.878 142.465Z" fill="black"/>
<path d="M123.878 142.465L124.796 148.556C125.072 150.396 123.814 152.108 121.982 152.386L80.5271 158.675C78.6944 158.953 76.9839 157.69 76.7066 155.851L75.7891 149.76C75.5118 147.921 76.7739 146.204 78.6067 145.925L120.061 139.637C121.894 139.359 123.601 140.626 123.878 142.465Z" stroke="#263238" stroke-miterlimit="10" stroke-linecap="round" stroke-linejoin="round"/>
<path d="M94.0171 133.105C94.1003 133.657 93.7222 134.171 93.1727 134.255C92.6231 134.338 92.1103 133.959 92.0271 133.407C91.9439 132.856 92.322 132.341 92.8715 132.258C93.4211 132.174 93.9339 132.554 94.0171 133.105Z" fill="#263238"/>
<path d="M98.7687 132.384C98.8519 132.936 98.4738 133.45 97.9242 133.534C97.3746 133.617 96.8618 133.238 96.7786 132.686C96.6954 132.135 97.0735 131.62 97.6231 131.537C98.1733 131.453 98.6861 131.833 98.7687 132.384Z" fill="#263238"/>
<path d="M103.521 131.664C103.604 132.215 103.226 132.73 102.676 132.813C102.127 132.897 101.614 132.517 101.531 131.966C101.448 131.414 101.826 130.9 102.375 130.816C102.925 130.732 103.438 131.112 103.521 131.664Z" fill="#263238"/>
<path d="M88.6928 64.4271L57.2792 69.1926C56.1234 69.3681 55.0446 68.5695 54.8697 67.4097L54.7684 66.7366C54.5935 65.5767 55.3893 64.4941 56.5451 64.3186L87.9587 59.5531C89.1144 59.3776 90.1932 60.1762 90.3681 61.336L90.4694 62.0091C90.6443 63.169 89.8491 64.2516 88.6928 64.4271Z" fill="white" stroke="#263238" stroke-miterlimit="10"/>
<path d="M58.1559 67.8646L57.7903 65.4342" stroke="#263238" stroke-miterlimit="10" stroke-linecap="round" stroke-linejoin="round"/>
<path d="M121.276 68.2916L56.4883 78.1217L64.8404 133.558L129.628 123.728L121.276 68.2916Z" fill="#55B45C"/>
<path opacity="0.5" d="M121.276 68.2916L56.4883 78.1217L64.8404 133.558L129.628 123.728L121.276 68.2916Z" fill="white"/>
<path d="M121.276 68.2916L56.4883 78.1217L64.8404 133.558L129.628 123.728L121.276 68.2916Z" stroke="#263238" stroke-miterlimit="10"/>
<path d="M116.54 86.4232C118.598 83.5886 117.976 79.6169 115.152 77.5521C112.327 75.4873 108.369 76.1113 106.312 78.9458C104.254 81.7804 104.876 85.7521 107.701 87.817C110.525 89.8818 114.483 89.2578 116.54 86.4232Z" fill="#55B45C" stroke="#263238" stroke-miterlimit="10"/>
<path d="M124.986 92.9691L129.62 123.728L64.8336 133.556L61.9363 114.323C63.9161 109.809 66.865 104.548 70.3102 103.018C76.6964 100.183 83.2677 119.076 95.3902 115.992C107.513 112.909 109.772 93.106 124.986 92.9691Z" fill="#55B45C"/>
<path opacity="0.1" d="M124.986 92.9691L129.62 123.728L64.8336 133.556L61.9363 114.323C63.9161 109.809 66.865 104.548 70.3102 103.018C76.6964 100.183 83.2677 119.076 95.3902 115.992C107.513 112.909 109.772 93.106 124.986 92.9691Z" fill="black"/>
<path d="M124.986 92.9691L129.62 123.728L64.8336 133.556L61.9363 114.323C63.9161 109.809 66.865 104.548 70.3102 103.018C76.6964 100.183 83.2677 119.076 95.3902 115.992C107.513 112.909 109.772 93.106 124.986 92.9691Z" stroke="#263238" stroke-miterlimit="10"/>
<path opacity="0.1" d="M125.748 50.2879L144.975 177.931C145.378 180.605 143.544 183.1 140.88 183.504L71.8186 193.981C70.5168 194.178 69.2535 193.84 68.2607 193.13C83.6497 179.435 132.163 129.443 125.119 48.5214C125.434 49.0491 125.65 49.6421 125.748 50.2879Z" fill="black"/>
<path d="M125.748 50.2879L144.975 177.931C145.378 180.605 143.544 183.1 140.88 183.504L71.8186 193.981C70.5168 194.178 69.2535 193.84 68.2607 193.13C67.221 192.387 66.471 191.238 66.265 189.871L47.038 62.2278C46.635 59.5542 48.4689 57.059 51.133 56.6546L120.194 46.1784C122.215 45.8717 124.138 46.8589 125.12 48.5214C125.434 49.0491 125.65 49.6421 125.748 50.2879Z" stroke="#263238" stroke-miterlimit="10"/>
<path d="M40.9105 84.8149C40.9105 84.8149 44.6506 92.2068 45.5868 94.9105C46.5224 97.6136 45.567 102.078 43.2175 104.088C40.868 106.098 38.235 105.97 35.3116 104.518C32.3894 103.066 29.4241 100.853 29.4212 100.851C29.3624 100.807 28.8966 100.899 28.8111 100.898C28.2343 100.89 25.9602 100.01 25.1887 98.5747C23.2779 95.0167 27.4952 96.2857 28.347 96.8724" stroke="#263238" stroke-miterlimit="10" stroke-linecap="round" stroke-linejoin="round"/>
<path d="M40.1968 92.3931C40.5873 93.3048 41.2614 94.092 42.1002 94.6174C42.4404 94.8304 42.8281 95.023 43.0075 95.3831C43.1977 95.7648 43.0907 96.2419 42.8485 96.5929C42.6062 96.944 42.2496 97.1956 41.901 97.4398" stroke="#263238" stroke-miterlimit="10" stroke-linecap="round" stroke-linejoin="round"/>
<path d="M38.6052 100.278C38.6052 100.278 39.9358 100.93 41.279 100.304" stroke="#263238" stroke-miterlimit="10" stroke-linecap="round" stroke-linejoin="round"/>
<path d="M37.7579 94.4118C37.9916 94.9082 38.0086 95.3922 37.7947 95.4939C37.5813 95.595 37.2185 95.2752 36.9847 94.7787C36.751 94.2829 36.734 93.7984 36.9479 93.6967C37.1613 93.5956 37.5241 93.9154 37.7579 94.4118Z" fill="#263238"/>
<path d="M42.0702 91.4991C42.304 91.9955 42.321 92.4795 42.107 92.5812C41.8936 92.6823 41.5308 92.3625 41.2971 91.8666C41.0633 91.3702 41.0463 90.8862 41.2603 90.7846C41.4731 90.6829 41.8359 91.0027 42.0702 91.4991Z" fill="#263238"/>
<path d="M36.4906 91.5536C36.4906 91.5536 34.706 91.5588 34.2781 93.7308" stroke="#263238" stroke-miterlimit="10" stroke-linecap="round" stroke-linejoin="round"/>
<path d="M39.6783 89.6298C39.6783 89.6298 40.319 88.1911 41.5082 89.042" stroke="#263238" stroke-miterlimit="10" stroke-linecap="round" stroke-linejoin="round"/>
<path d="M28.0272 96.6963C28.1302 96.7719 33.4755 93.9239 34.0992 85.8538C34.0992 85.8538 37.1658 88.203 42.1585 86.2468C42.1585 86.2468 38.0522 77.7541 32.0367 78.9253C26.0213 80.0965 20.7801 84.0867 20.5752 91.1566C20.4298 96.1857 21.4842 101.189 21.5284 106.219C21.551 108.765 21.3852 111.352 20.6256 113.797C19.3527 117.894 16.4751 120.635 17.7124 125.264C18.6276 128.688 21.6512 132.649 25.3008 132.172C26.8386 131.971 30.3682 131.069 30.9568 130.358C29.7218 128.514 29.1796 126.821 29.132 126.15C28.8383 121.994 29.7971 120.408 29.7971 120.408L39.3772 109.309L36.713 105.114L29.4207 100.851C29.4207 100.851 26.3982 101.198 24.7382 97.4398C24.4286 95.2093 28.0272 96.6963 28.0272 96.6963Z" fill="#263238"/>
<path d="M50.5942 133.803C50.5942 133.803 43.3001 128.206 40.0773 121.994" stroke="#263238" stroke-miterlimit="10" stroke-linecap="round" stroke-linejoin="round"/>
<path d="M54.7848 131.486C54.5901 130.963 53.8323 130.911 53.3523 131.193C52.8723 131.475 52.5514 131.963 52.1139 132.308C51.7884 132.564 51.3962 132.742 51.1285 133.059C50.8342 133.407 50.7312 133.875 50.6547 134.326C50.331 136.23 50.3055 138.185 50.5755 140.097" stroke="#263238" stroke-miterlimit="10" stroke-linecap="round" stroke-linejoin="round"/>
<path d="M48.3664 140.097C48.5215 138.616 48.886 137.157 49.4452 135.778" stroke="#263238" stroke-miterlimit="10" stroke-linecap="round" stroke-linejoin="round"/>
<path d="M57.7875 141.752C58.4191 142.279 58.4316 143.385 57.8129 143.927C57.5798 144.131 57.2877 144.253 57.0279 144.422C56.2276 144.945 55.7895 145.879 55.0599 146.497C54.0536 147.351 52.3697 147.421 51.4851 146.441C50.7408 145.615 50.5557 143.861 50.5942 142.749" stroke="#263238" stroke-miterlimit="10" stroke-linecap="round" stroke-linejoin="round"/>
<path d="M51.0526 146.487C46.305 147.051 30.9579 130.358 30.9579 130.358C28.6662 127.54 28.6209 123.204 30.3302 119.982C31.9666 116.897 35.1956 114.966 37.086 112.031" stroke="#263238" stroke-miterlimit="10" stroke-linecap="round" stroke-linejoin="round"/>
<path d="M37.1211 105.468C38.4857 107.23 39.5323 108.868 40.0773 111.032" stroke="#263238" stroke-miterlimit="10" stroke-linecap="round" stroke-linejoin="round"/>
<path d="M45.4011 100.576C45.3853 102.913 46.3826 104.879 48.0523 106.537" stroke="#263238" stroke-miterlimit="10" stroke-linecap="round" stroke-linejoin="round"/>
<path d="M38.0312 110.339C36.9021 111.517 37.3769 113.968 38.797 114.77C40.302 115.62 42.2196 114.866 43.8978 115.276C44.1271 115.331 44.3597 115.415 44.5267 115.581C44.8249 115.879 44.8385 116.349 44.8487 116.771C44.8702 117.662 45.0247 118.668 45.7532 119.176C46.2003 119.488 46.7703 119.54 47.3006 119.665C50.194 120.342 52.1388 122.12 53.6121 124.71" stroke="#263238" stroke-miterlimit="10" stroke-linecap="round" stroke-linejoin="round"/>
<path d="M39.7111 111.181C46.3407 113.827 51.7437 119.411 54.1843 126.139" stroke="#263238" stroke-miterlimit="10" stroke-linecap="round" stroke-linejoin="round"/>
<path d="M33.7353 133.352C35.4158 138.868 41.6174 141.563 43.5384 147C44.0269 148.382 44.2301 149.899 45.0564 151.108C46.1126 152.655 47.9702 153.4 49.7191 154.061C50.9089 154.511 52.2854 155.518 53.4751 155.968" stroke="#263238" stroke-miterlimit="10" stroke-linecap="round" stroke-linejoin="round"/>
<path d="M59.0338 156.24C57.5418 156.05 56.3821 154.871 55.4533 153.684C54.525 152.497 53.6438 151.183 52.3012 150.502" stroke="#263238" stroke-miterlimit="10" stroke-linecap="round" stroke-linejoin="round"/>
<path d="M47.0635 105.413C49.1526 105.799 51.0074 105.632 52.9951 104.879" stroke="#263238" stroke-miterlimit="10" stroke-linecap="round" stroke-linejoin="round"/>
<path d="M49.362 105.644C50.9904 110.624 52.6861 116.692 52.3159 121.994" stroke="#263238" stroke-miterlimit="10" stroke-linecap="round" stroke-linejoin="round"/>
<path d="M53.6121 132.451C53.6121 132.451 53.8374 139.258 56.8094 142.171C56.8094 142.171 64.1431 134.881 67.2702 130.375C70.3974 125.868 73.8834 120.521 74.9033 116.78C75.9232 113.04 73.3247 112.031 73.3247 112.031C73.3247 112.031 72.5454 109.906 71.7473 110.147C70.9492 110.388 69.6248 114.286 69.6248 114.286C69.6248 114.286 68.7945 112.277 67.1491 115.21C65.5038 118.143 64.7147 119.482 65.8501 122.149L59.3864 128.478L53.6121 132.451Z" fill="white"/>
<path d="M68.7079 116.742C68.7079 116.742 70.1042 112.868 68.7079 113.704C67.3116 114.541 65.9967 116.825 65.5043 118.143C65.0113 119.462 65.8507 122.149 65.8507 122.149C62.3579 126.822 56.8853 130.435 53.6127 132.451" stroke="#263238" stroke-miterlimit="10" stroke-linecap="round" stroke-linejoin="round"/>
<path d="M68.8833 116.215C68.8833 116.215 70.8434 110.807 71.7473 110.147C72.6512 109.488 72.6506 111.631 72.6506 111.631C72.6506 111.631 74.047 112.303 74.2937 113.121C74.5399 113.939 75.1971 114.546 75.0329 116.221C74.8688 117.896 70.6855 125.316 70.6855 125.316C69.318 128.232 62.3115 136.889 56.8094 142.171" stroke="#263238" stroke-miterlimit="10" stroke-linecap="round" stroke-linejoin="round"/>
<path d="M72.6506 111.631C72.6506 111.631 72.3235 114.077 72.0507 114.829" stroke="#263238" stroke-miterlimit="10" stroke-linecap="round" stroke-linejoin="round"/>
<path d="M53.7853 132.268C53.4978 132.459 53.4666 132.864 53.4757 133.21C53.5742 136.786 54.949 140.314 57.295 143.007" stroke="#263238" stroke-miterlimit="10" stroke-linecap="round" stroke-linejoin="round"/>
<path opacity="0.2" d="M23.9786 98.3708C25.0681 102.383 25.4106 106.599 24.9827 110.735C24.6527 113.928 23.8688 117.09 23.9746 120.298C24.0805 123.506 25.2798 126.916 27.9927 128.617" stroke="white" stroke-miterlimit="10" stroke-linecap="round" stroke-linejoin="round"/>
<path opacity="0.2" d="M26.5347 93.7654C28.2864 90.6676 29.7829 87.4243 31.0049 84.0805" stroke="white" stroke-miterlimit="10" stroke-linecap="round" stroke-linejoin="round"/>
<path opacity="0.2" d="M24.5214 93.2202C25.9041 89.8985 25.6115 86.098 26.7367 82.6803" stroke="white" stroke-miterlimit="10" stroke-linecap="round" stroke-linejoin="round"/>
<path d="M38.2458 105.513C38.2458 105.513 42.0283 107.304 43.9329 106.538C45.8375 105.772 45.0366 101.52 45.0366 101.52C45.0366 101.52 43.1315 106.308 38.2458 105.513Z" fill="#263238"/>
</svg>
