<svg width="25" height="25" viewBox="0 0 25 25" xmlns="http://www.w3.org/2000/svg">
<path d="M12.5 25C10.0277 25 7.61099 24.2669 5.55538 22.8934C3.49976 21.5199 1.89761 19.5676 0.951511 17.2835C0.0054161 14.9995 -0.242126 12.4861 0.24019 10.0614C0.722505 7.63661 1.91301 5.40932 3.66117 3.66116C5.40933 1.91301 7.63661 0.722497 10.0614 0.240182C12.4861 -0.242133 14.9995 0.00540841 17.2835 0.951504C19.5676 1.8976 21.5199 3.49975 22.8934 5.55537C24.2669 7.61098 25 10.0277 25 12.5C24.9964 15.8141 23.6783 18.9914 21.3349 21.3349C18.9915 23.6783 15.8141 24.9964 12.5 25ZM15.8563 17.7083H9.14376C10.0279 19.4539 11.1582 21.0634 12.5 22.4875C13.8423 21.0638 14.9727 19.4542 15.8563 17.7083ZM16.6896 15.625C17.0097 14.6139 17.1769 13.5606 17.1854 12.5C17.1769 11.4394 17.0097 10.3861 16.6896 9.375H8.30834C7.98818 10.3861 7.82106 11.4394 7.81251 12.5C7.82106 13.5606 7.98818 14.6139 8.30834 15.625H16.6896ZM9.79167 22.5458C8.59132 21.0773 7.60061 19.4493 6.84792 17.7083H3.49271C4.87381 20.087 7.13715 21.8253 9.79167 22.5458ZM2.08334 12.5C2.08324 13.56 2.24518 14.6139 2.56355 15.625H6.14584C5.87579 14.6051 5.7358 13.5551 5.72917 12.5C5.7358 11.4449 5.87579 10.3949 6.14584 9.375H2.56355C2.24518 10.3861 2.08324 11.4399 2.08334 12.5ZM3.49271 7.29166H6.84792C7.60061 5.55072 8.59132 3.92269 9.79167 2.45416C7.13715 3.17474 4.87381 4.91295 3.49271 7.29166ZM9.14376 7.29166H15.8563C14.9721 5.54611 13.8418 3.93662 12.5 2.5125C11.1577 3.93622 10.0273 5.54579 9.14376 7.29166ZM15.2135 2.45416C16.4121 3.923 17.401 5.55102 18.1521 7.29166H21.5073C20.1274 4.91403 17.8661 3.17596 15.2135 2.45416ZM22.9167 12.5C22.9168 11.4399 22.7548 10.3861 22.4365 9.375H18.8542C19.1242 10.3949 19.2642 11.4449 19.2708 12.5C19.2642 13.5551 19.1242 14.6051 18.8542 15.625H22.4344C22.7535 14.614 22.9161 13.5602 22.9167 12.5ZM18.1521 17.7083C17.401 19.449 16.4121 21.077 15.2135 22.5458C17.8661 21.824 20.1274 20.086 21.5073 17.7083H18.1521Z"/>
</svg>
