<svg width="25" height="25" viewBox="0 0 25 25" fill="none" xmlns="http://www.w3.org/2000/svg">
<path d="M23.4219 11.4323L12.5 17.9865L1.5781 11.4323C1.3412 11.2902 1.05754 11.2479 0.78952 11.3149C0.521499 11.382 0.291073 11.5527 0.148934 11.7896C0.00679447 12.0265 -0.0354155 12.3101 0.0315896 12.5782C0.0985948 12.8462 0.269327 13.0766 0.506226 13.2187L11.9646 20.0938C12.1266 20.1911 12.312 20.2425 12.501 20.2425C12.69 20.2425 12.8755 20.1911 13.0375 20.0938L24.4958 13.2187C24.7327 13.0766 24.9034 12.8462 24.9704 12.5782C25.0375 12.3101 24.9952 12.0265 24.8531 11.7896C24.711 11.5527 24.4805 11.382 24.2125 11.3149C23.9445 11.2479 23.6608 11.2902 23.4239 11.4323H23.4219Z"/>
<path d="M23.4219 16.1906L12.5 22.7438L1.5781 16.1906C1.4608 16.1202 1.33079 16.0737 1.19548 16.0535C1.06018 16.0334 0.92223 16.0401 0.78952 16.0733C0.656809 16.1065 0.531933 16.1655 0.422021 16.2469C0.312109 16.3283 0.219314 16.4306 0.148934 16.5479C0.0785536 16.6652 0.0319665 16.7952 0.0118325 16.9305C-0.00830143 17.0658 -0.00158795 17.2038 0.0315896 17.3365C0.0985948 17.6045 0.269326 17.8349 0.506226 17.9771L11.9646 24.8521C12.1266 24.9494 12.312 25.0008 12.501 25.0008C12.69 25.0008 12.8755 24.9494 13.0375 24.8521L24.4958 17.9771C24.7327 17.8349 24.9034 17.6045 24.9704 17.3365C25.0375 17.0685 24.9952 16.7848 24.8531 16.5479C24.711 16.311 24.4805 16.1403 24.2125 16.0733C23.9445 16.0063 23.6608 16.0485 23.4239 16.1906H23.4219Z"/>
<path d="M0.505184 8.70521L10.9052 14.9458C11.3867 15.2355 11.938 15.3886 12.5 15.3886C13.0619 15.3886 13.6132 15.2355 14.0948 14.9458L24.4948 8.70521C24.6488 8.6126 24.7762 8.48172 24.8647 8.32529C24.9531 8.16887 24.9996 7.99221 24.9996 7.8125C24.9996 7.63279 24.9531 7.45613 24.8647 7.29971C24.7762 7.14328 24.6488 7.0124 24.4948 6.91979L14.0948 0.679166C13.6131 0.389822 13.0618 0.236961 12.5 0.236961C11.9381 0.236961 11.3868 0.389822 10.9052 0.679166L0.505184 6.91979C0.351171 7.0124 0.223737 7.14328 0.135268 7.29971C0.0467992 7.45613 0.000305176 7.63279 0.000305176 7.8125C0.000305176 7.99221 0.0467992 8.16887 0.135268 8.32529C0.223737 8.48172 0.351171 8.6126 0.505184 8.70521Z"/>
</svg>