<svg width="26" height="28" viewBox="0 0 26 28" fill="none" xmlns="http://www.w3.org/2000/svg">
<path d="M1.45329 20.6667C0.889653 19.692 0.451512 18.6499 0.149292 17.5653C0.807035 17.2308 1.35942 16.7208 1.74533 16.0919C2.13124 15.4629 2.33565 14.7394 2.33592 14.0015C2.3362 13.2636 2.13234 12.5399 1.7469 11.9107C1.36145 11.2814 0.809451 10.771 0.151959 10.436C0.754673 8.25666 1.90226 6.26661 3.48662 4.65334C4.10542 5.05564 4.82345 5.27889 5.56126 5.29838C6.29907 5.31787 7.02789 5.13285 7.66706 4.76378C8.30623 4.39472 8.83083 3.85601 9.18279 3.20726C9.53476 2.55852 9.70037 1.82504 9.66129 1.08801C11.8508 0.522171 14.1483 0.523089 16.3373 1.09067C16.2986 1.82769 16.4645 2.56106 16.8167 3.20962C17.169 3.85818 17.6938 4.39664 18.3331 4.76542C18.9724 5.1342 19.7012 5.31892 20.439 5.29914C21.1768 5.27936 21.8947 5.05585 22.5133 4.65334C23.2853 5.44001 23.9706 6.33468 24.5466 7.33334C25.124 8.33201 25.556 9.37334 25.8506 10.4347C25.1929 10.7692 24.6405 11.2792 24.2546 11.9081C23.8687 12.5371 23.6643 13.2606 23.664 13.9985C23.6637 14.7365 23.8676 15.4601 24.253 16.0893C24.6385 16.7186 25.1905 17.229 25.848 17.564C25.2452 19.7434 24.0977 21.7334 22.5133 23.3467C21.8945 22.9444 21.1765 22.7211 20.4387 22.7016C19.7008 22.6821 18.972 22.8672 18.3329 23.2362C17.6937 23.6053 17.1691 24.144 16.8171 24.7928C16.4652 25.4415 16.2995 26.175 16.3386 26.912C14.1491 27.4778 11.8517 27.4769 9.66262 26.9093C9.70135 26.1723 9.53542 25.439 9.18319 24.7904C8.83095 24.1418 8.30615 23.6034 7.66685 23.2346C7.02756 22.8658 6.2987 22.6811 5.56093 22.7009C4.82316 22.7207 4.10524 22.9442 3.48662 23.3467C2.69861 22.5426 2.01542 21.6421 1.45329 20.6667ZM8.99996 20.928C10.4208 21.7475 11.4891 23.0627 12 24.6213C12.6653 24.684 13.3333 24.6853 13.9986 24.6227C14.5098 23.0638 15.5786 21.7486 17 20.9293C18.4202 20.1076 20.094 19.8393 21.7 20.176C22.0866 19.632 22.42 19.052 22.6973 18.4453C21.6032 17.2233 20.9988 15.6403 21 14C21 12.32 21.6266 10.7507 22.6973 9.55468C22.418 8.94821 22.0832 8.36885 21.6973 7.82401C20.0923 8.16042 18.4197 7.89264 17 7.07201C15.5791 6.2525 14.5108 4.93732 14 3.37867C13.3346 3.31601 12.6666 3.31467 12.0013 3.37734C11.4901 4.9362 10.4213 6.25142 8.99996 7.07067C7.57967 7.89243 5.90593 8.1607 4.29996 7.82401C3.91405 8.36839 3.58013 8.94783 3.30263 9.55468C4.39672 10.7768 5.00114 12.3597 4.99996 14C4.99996 15.68 4.37329 17.2493 3.30263 18.4453C3.58192 19.0518 3.91668 19.6312 4.30263 20.176C5.90758 19.8396 7.58024 20.1074 8.99996 20.928ZM13 18C11.9391 18 10.9217 17.5786 10.1715 16.8284C9.42138 16.0783 8.99996 15.0609 8.99996 14C8.99996 12.9391 9.42138 11.9217 10.1715 11.1716C10.9217 10.4214 11.9391 10 13 10C14.0608 10 15.0782 10.4214 15.8284 11.1716C16.5785 11.9217 17 12.9391 17 14C17 15.0609 16.5785 16.0783 15.8284 16.8284C15.0782 17.5786 14.0608 18 13 18ZM13 15.3333C13.3536 15.3333 13.6927 15.1929 13.9428 14.9428C14.1928 14.6928 14.3333 14.3536 14.3333 14C14.3333 13.6464 14.1928 13.3072 13.9428 13.0572C13.6927 12.8072 13.3536 12.6667 13 12.6667C12.6463 12.6667 12.3072 12.8072 12.0571 13.0572C11.8071 13.3072 11.6666 13.6464 11.6666 14C11.6666 14.3536 11.8071 14.6928 12.0571 14.9428C12.3072 15.1929 12.6463 15.3333 13 15.3333Z"/>
</svg>
